{"glyphs":{"0":{"ha":663,"x_min":54,"x_max":608,"o":"m 331 -11 q 140 31 197 -11 q 69 166 83 72 q 54 478 54 260 q 69 790 54 696 q 140 925 83 883 q 331 967 197 967 q 522 925 465 967 q 594 790 579 883 q 608 478 608 696 q 594 166 608 260 q 522 31 579 72 q 331 -11 465 -11 m 331 157 q 394 172 378 157 q 416 248 411 188 q 421 478 421 308 q 416 708 421 647 q 394 783 411 768 q 331 799 378 799 q 267 783 283 799 q 246 709 250 768 q 242 478 242 650 q 246 247 242 306 q 267 172 250 188 q 331 157 283 157 z "},"1":{"ha":431,"x_min":24,"x_max":356,"o":"m 164 0 l 164 736 l 24 679 l 24 854 l 213 956 l 356 956 l 356 0 l 164 0 z "},"2":{"ha":625,"x_min":51,"x_max":574,"o":"m 240 168 l 574 168 l 574 0 l 51 0 l 51 122 q 57 316 51 256 q 85 415 63 376 q 158 481 107 453 l 313 564 q 357 593 343 581 q 377 626 371 606 q 383 686 383 646 q 372 763 383 740 q 336 792 361 786 q 254 799 311 799 q 63 786 193 799 l 63 942 q 179 960 110 953 q 307 967 249 967 q 449 950 393 967 q 539 875 504 933 q 574 700 574 817 q 545 522 574 578 q 456 435 517 467 q 290 347 406 410 q 251 314 260 332 q 242 273 244 299 q 240 192 240 247 l 240 168 z "},"3":{"ha":607,"x_min":35,"x_max":557,"o":"m 271 -11 q 153 -4 219 -11 q 35 14 86 3 l 35 168 q 229 157 142 157 q 313 164 286 157 q 353 195 340 171 q 365 274 365 219 q 356 355 365 328 q 324 391 346 382 q 261 400 303 400 l 131 400 l 131 567 l 261 567 q 319 574 300 567 q 348 607 339 582 q 357 685 357 632 q 346 761 357 738 q 308 792 335 785 q 221 799 281 799 q 36 788 156 799 l 36 942 q 153 960 88 953 q 271 967 219 967 q 431 943 371 967 q 520 866 492 919 q 549 719 549 813 q 517 561 549 615 q 422 490 486 507 l 422 485 q 524 416 492 467 q 557 251 557 365 q 530 100 557 157 q 440 16 503 43 q 271 -11 378 -11 z "},"4":{"ha":651,"x_min":29,"x_max":626,"o":"m 356 0 l 356 190 l 29 190 l 29 336 l 222 956 l 421 956 l 219 357 l 357 357 l 408 600 l 546 600 l 546 357 l 626 357 l 626 190 l 546 190 l 546 0 l 356 0 z "},"5":{"ha":629,"x_min":65,"x_max":585,"o":"m 65 168 q 250 157 168 157 q 343 167 314 157 q 383 205 372 176 q 393 296 393 233 q 382 390 393 361 q 342 427 371 418 q 247 436 313 436 q 71 424 164 436 l 71 956 l 544 956 l 544 788 l 247 788 l 247 594 q 296 601 265 599 q 354 604 326 604 q 535 533 486 604 q 585 315 585 461 q 561 124 585 193 q 476 22 538 54 q 301 -11 415 -11 q 183 -4 250 -11 q 65 14 117 3 l 65 168 z "},"6":{"ha":657,"x_min":54,"x_max":610,"o":"m 339 -11 q 203 3 253 -11 q 122 57 153 17 q 74 176 90 97 q 54 476 54 258 q 82 790 54 697 q 176 927 111 888 q 364 967 240 967 q 469 958 410 967 q 578 938 529 950 l 578 783 q 400 799 465 799 q 292 781 324 799 q 252 712 261 763 q 243 538 243 661 l 254 538 q 404 604 293 604 q 521 584 478 604 q 587 503 564 564 q 610 321 610 442 q 588 119 610 189 q 508 19 565 50 q 339 -11 451 -11 m 333 156 q 393 163 375 156 q 418 199 411 171 q 425 294 425 226 q 418 392 425 364 q 394 428 411 421 q 333 436 376 436 q 274 428 292 436 q 250 394 256 419 q 244 308 244 368 q 252 204 244 236 q 277 164 260 172 q 333 156 294 156 z "},"7":{"ha":585,"x_min":31,"x_max":558,"o":"m 90 0 l 358 788 l 31 788 l 31 956 l 558 956 l 558 806 l 293 0 l 90 0 z "},"8":{"ha":676,"x_min":50,"x_max":626,"o":"m 339 -11 q 167 15 229 -11 q 77 99 104 42 q 50 251 50 156 q 82 416 50 367 q 185 485 114 465 l 185 490 q 89 563 119 508 q 58 719 58 617 q 87 866 58 813 q 176 943 115 919 q 339 967 238 967 q 500 943 439 967 q 590 866 561 919 q 618 719 618 813 q 588 562 618 615 q 492 490 557 508 l 492 485 q 594 416 563 465 q 626 251 626 367 q 599 99 626 156 q 510 15 572 42 q 339 -11 447 -11 m 339 561 q 397 569 379 561 q 422 601 415 576 q 429 682 429 626 q 423 764 429 739 q 399 797 417 789 q 339 804 381 804 q 278 797 297 804 q 253 764 260 789 q 247 682 247 739 q 253 601 247 625 q 278 569 260 576 q 339 561 297 561 m 339 151 q 399 160 381 151 q 426 194 418 168 q 433 276 433 219 q 426 362 433 335 q 399 397 418 389 q 339 406 381 406 q 276 397 296 406 q 250 363 257 389 q 243 276 243 336 q 251 194 243 219 q 278 160 258 168 q 339 151 297 151 z "},"9":{"ha":657,"x_min":46,"x_max":603,"o":"m 293 -11 q 187 -3 247 -11 q 78 18 126 6 l 78 172 q 257 157 190 157 q 365 175 333 157 q 405 244 396 193 q 414 418 414 294 l 404 418 q 253 351 365 351 q 135 372 178 351 q 69 453 92 392 q 46 635 46 514 q 68 835 46 765 q 148 936 90 906 q 318 967 206 967 q 450 955 400 967 q 531 908 500 943 q 579 807 563 874 q 597 676 592 754 q 603 479 603 597 q 569 150 603 249 q 476 25 540 61 q 293 -11 411 -11 m 322 519 q 382 528 364 519 q 406 562 400 536 q 413 647 413 588 q 405 751 413 719 q 379 792 397 783 q 322 800 361 800 q 263 792 281 800 q 239 757 246 785 q 232 661 232 729 q 239 563 232 592 q 263 527 246 535 q 322 519 279 519 z "},"\u0000":{"ha":0,"x_min":0,"x_max":0,"o":""},"\r":{"ha":249,"x_min":0,"x_max":0,"o":""}," ":{"ha":249,"x_min":0,"x_max":0,"o":""},"A":{"ha":696,"x_min":11,"x_max":685,"o":"m 490 0 l 453 196 l 239 196 l 201 0 l 11 0 l 208 956 l 488 956 l 685 0 l 490 0 m 350 775 l 342 775 l 267 361 l 424 361 l 350 775 z "},"Á":{"ha":696,"x_min":11,"x_max":685,"o":"m 490 0 l 453 196 l 239 196 l 201 0 l 11 0 l 208 956 l 488 956 l 685 0 l 490 0 m 350 775 l 342 775 l 267 361 l 424 361 l 350 775 m 257 1042 l 257 1049 l 331 1244 l 508 1244 l 508 1238 l 399 1042 l 257 1042 z "},"Ă":{"ha":696,"x_min":11,"x_max":685,"o":"m 490 0 l 453 196 l 239 196 l 201 0 l 11 0 l 208 956 l 488 956 l 685 0 l 490 0 m 350 775 l 342 775 l 267 361 l 424 361 l 350 775 m 529 1233 q 516 1131 529 1171 q 463 1067 503 1090 q 346 1044 424 1044 q 231 1067 269 1044 q 179 1131 192 1090 q 167 1233 167 1171 l 276 1233 q 280 1185 276 1201 q 298 1159 283 1169 q 346 1149 313 1149 q 407 1169 394 1149 q 419 1233 419 1189 l 529 1233 z "},"Ắ":{"ha":696,"x_min":11,"x_max":685,"o":"m 490 0 l 453 196 l 239 196 l 201 0 l 11 0 l 208 956 l 488 956 l 685 0 l 490 0 m 350 775 l 342 775 l 267 361 l 424 361 l 350 775 m 529 1233 q 516 1131 529 1171 q 463 1067 503 1090 q 346 1044 424 1044 q 231 1067 269 1044 q 179 1131 192 1090 q 167 1233 167 1171 l 276 1233 q 280 1185 276 1201 q 298 1159 283 1169 q 346 1149 313 1149 q 407 1169 394 1149 q 419 1233 419 1189 l 529 1233 m 269 1271 l 269 1278 l 343 1474 l 521 1474 l 521 1467 l 411 1271 l 269 1271 z "},"Ặ":{"ha":696,"x_min":11,"x_max":685,"o":"m 490 0 l 453 196 l 239 196 l 201 0 l 11 0 l 208 956 l 488 956 l 685 0 l 490 0 m 350 775 l 342 775 l 267 361 l 424 361 l 350 775 m 250 -268 l 250 -86 l 446 -86 l 446 -268 l 250 -268 m 529 1233 q 516 1131 529 1171 q 463 1067 503 1090 q 346 1044 424 1044 q 231 1067 269 1044 q 179 1131 192 1090 q 167 1233 167 1171 l 276 1233 q 280 1185 276 1201 q 298 1159 283 1169 q 346 1149 313 1149 q 407 1169 394 1149 q 419 1233 419 1189 l 529 1233 z "},"Ằ":{"ha":696,"x_min":11,"x_max":685,"o":"m 490 0 l 453 196 l 239 196 l 201 0 l 11 0 l 208 956 l 488 956 l 685 0 l 490 0 m 350 775 l 342 775 l 267 361 l 424 361 l 350 775 m 531 1233 q 517 1131 531 1171 q 465 1067 504 1090 q 347 1044 425 1044 q 232 1067 271 1044 q 181 1131 193 1090 q 168 1233 168 1171 l 278 1233 q 281 1185 278 1201 q 299 1159 285 1169 q 347 1149 314 1149 q 408 1169 396 1149 q 421 1233 421 1189 l 531 1233 m 281 1271 l 172 1467 l 172 1474 l 350 1474 l 424 1278 l 424 1271 l 281 1271 z "},"Ẳ":{"ha":696,"x_min":11,"x_max":685,"o":"m 490 0 l 453 196 l 239 196 l 201 0 l 11 0 l 208 956 l 488 956 l 685 0 l 490 0 m 350 775 l 342 775 l 267 361 l 424 361 l 350 775 m 522 1233 q 509 1131 522 1171 q 456 1067 496 1090 q 339 1044 417 1044 q 224 1067 263 1044 q 172 1131 185 1090 q 160 1233 160 1171 l 269 1233 q 273 1185 269 1201 q 291 1159 276 1169 q 339 1149 306 1149 q 400 1169 388 1149 q 413 1233 413 1189 l 522 1233 m 279 1267 q 291 1318 279 1303 q 335 1346 303 1333 l 353 1353 q 396 1374 385 1365 q 407 1396 407 1382 q 395 1415 407 1411 q 350 1419 383 1419 q 211 1415 278 1419 l 211 1518 q 364 1536 304 1536 q 491 1510 447 1536 q 535 1415 535 1485 q 521 1344 535 1368 q 465 1300 507 1319 l 443 1290 q 399 1267 407 1275 q 392 1239 392 1260 l 279 1239 l 279 1267 z "},"Ẵ":{"ha":696,"x_min":11,"x_max":685,"o":"m 490 0 l 453 196 l 239 196 l 201 0 l 11 0 l 208 956 l 488 956 l 685 0 l 490 0 m 350 775 l 342 775 l 267 361 l 424 361 l 350 775 m 526 1233 q 513 1131 526 1171 q 460 1067 500 1090 q 343 1044 421 1044 q 228 1067 267 1044 q 176 1131 189 1090 q 164 1233 164 1171 l 274 1233 q 277 1185 274 1201 q 295 1159 281 1169 q 343 1149 310 1149 q 404 1169 392 1149 q 417 1233 417 1189 l 526 1233 m 564 1481 q 558 1376 564 1411 q 531 1320 553 1340 q 461 1300 510 1300 q 338 1322 413 1300 q 303 1332 329 1325 q 263 1339 278 1339 q 240 1328 244 1339 q 236 1283 236 1317 l 133 1283 q 139 1389 133 1353 q 167 1445 144 1425 q 238 1465 189 1465 q 360 1442 283 1465 q 436 1426 415 1426 q 458 1437 454 1426 q 461 1481 461 1447 l 564 1481 z "},"Ǎ":{"ha":696,"x_min":11,"x_max":685,"o":"m 490 0 l 453 196 l 239 196 l 201 0 l 11 0 l 208 956 l 488 956 l 685 0 l 490 0 m 350 775 l 342 775 l 267 361 l 424 361 l 350 775 m 260 1050 l 156 1222 l 156 1233 l 278 1233 l 349 1135 l 421 1233 l 543 1233 l 543 1222 l 438 1050 l 260 1050 z "},"Â":{"ha":696,"x_min":11,"x_max":685,"o":"m 490 0 l 453 196 l 239 196 l 201 0 l 11 0 l 208 956 l 488 956 l 685 0 l 490 0 m 350 775 l 342 775 l 267 361 l 424 361 l 350 775 m 154 1042 l 154 1053 l 258 1224 l 438 1224 l 543 1053 l 543 1042 l 419 1042 l 347 1140 l 276 1042 l 154 1042 z "},"Ấ":{"ha":696,"x_min":11,"x_max":685,"o":"m 490 0 l 453 196 l 239 196 l 201 0 l 11 0 l 208 956 l 488 956 l 685 0 l 490 0 m 350 775 l 342 775 l 267 361 l 424 361 l 350 775 m 156 1019 l 156 1031 l 260 1201 l 439 1201 l 544 1031 l 544 1019 l 421 1019 l 349 1118 l 278 1019 l 156 1019 m 379 1239 l 379 1246 l 453 1442 l 631 1442 l 631 1435 l 521 1239 l 379 1239 z "},"Ậ":{"ha":696,"x_min":11,"x_max":685,"o":"m 490 0 l 453 196 l 239 196 l 201 0 l 11 0 l 208 956 l 488 956 l 685 0 l 490 0 m 350 775 l 342 775 l 267 361 l 424 361 l 350 775 m 250 -268 l 250 -86 l 446 -86 l 446 -268 l 250 -268 m 154 1051 l 154 1063 l 258 1233 l 438 1233 l 543 1063 l 543 1051 l 419 1051 l 347 1150 l 276 1051 l 154 1051 z "},"Ầ":{"ha":696,"x_min":11,"x_max":685,"o":"m 490 0 l 453 196 l 239 196 l 201 0 l 11 0 l 208 956 l 488 956 l 685 0 l 490 0 m 350 775 l 342 775 l 267 361 l 424 361 l 350 775 m 144 1008 l 144 1019 l 249 1190 l 428 1190 l 533 1019 l 533 1008 l 410 1008 l 338 1107 l 267 1008 l 144 1008 m 410 1228 l 301 1424 l 301 1431 l 479 1431 l 553 1235 l 553 1228 l 410 1228 z "},"Ẩ":{"ha":696,"x_min":11,"x_max":685,"o":"m 490 0 l 453 196 l 239 196 l 201 0 l 11 0 l 208 956 l 488 956 l 685 0 l 490 0 m 350 775 l 342 775 l 267 361 l 424 361 l 350 775 m 154 1010 l 154 1021 l 258 1192 l 438 1192 l 543 1021 l 543 1010 l 419 1010 l 347 1108 l 276 1010 l 154 1010 m 406 1247 q 417 1299 406 1283 q 461 1326 429 1314 l 479 1333 q 522 1354 511 1346 q 533 1376 533 1363 q 522 1396 533 1392 q 476 1400 510 1400 q 338 1396 404 1400 l 338 1499 q 490 1517 431 1517 q 617 1491 574 1517 q 661 1396 661 1465 q 647 1324 661 1349 q 592 1281 633 1300 l 569 1271 q 526 1248 533 1256 q 518 1219 518 1240 l 406 1219 l 406 1247 z "},"Ẫ":{"ha":696,"x_min":11,"x_max":685,"o":"m 490 0 l 453 196 l 239 196 l 201 0 l 11 0 l 208 956 l 488 956 l 685 0 l 490 0 m 350 775 l 342 775 l 267 361 l 424 361 l 350 775 m 151 1010 l 151 1021 l 256 1192 l 435 1192 l 540 1021 l 540 1010 l 417 1010 l 344 1108 l 274 1010 l 151 1010 m 564 1432 q 558 1327 564 1363 q 531 1272 553 1292 q 461 1251 510 1251 q 338 1274 413 1251 q 303 1283 329 1276 q 263 1290 278 1290 q 240 1279 244 1290 q 236 1235 236 1268 l 133 1235 q 139 1340 133 1304 q 167 1397 144 1376 q 238 1417 189 1417 q 360 1393 283 1417 q 436 1378 415 1378 q 458 1388 454 1378 q 461 1432 461 1399 l 564 1432 z "},"Ȁ":{"ha":696,"x_min":11,"x_max":685,"o":"m 490 0 l 453 196 l 239 196 l 201 0 l 11 0 l 208 956 l 488 956 l 685 0 l 490 0 m 350 775 l 342 775 l 267 361 l 424 361 l 350 775 m 311 1049 l 193 1049 l 103 1211 l 103 1217 l 249 1217 l 311 1054 l 311 1049 m 514 1049 l 396 1049 l 307 1211 l 307 1217 l 453 1217 l 514 1054 l 514 1049 z "},"Ä":{"ha":696,"x_min":11,"x_max":685,"o":"m 490 0 l 453 196 l 239 196 l 201 0 l 11 0 l 208 956 l 488 956 l 685 0 l 490 0 m 350 775 l 342 775 l 267 361 l 424 361 l 350 775 m 150 1082 l 150 1225 l 304 1225 l 304 1082 l 150 1082 m 393 1082 l 393 1225 l 547 1225 l 547 1082 l 393 1082 z "},"Ạ":{"ha":696,"x_min":11,"x_max":685,"o":"m 490 0 l 453 196 l 239 196 l 201 0 l 11 0 l 208 956 l 488 956 l 685 0 l 490 0 m 350 775 l 342 775 l 267 361 l 424 361 l 350 775 m 250 -268 l 250 -86 l 446 -86 l 446 -268 l 250 -268 z "},"À":{"ha":696,"x_min":11,"x_max":685,"o":"m 490 0 l 453 196 l 239 196 l 201 0 l 11 0 l 208 956 l 488 956 l 685 0 l 490 0 m 350 775 l 342 775 l 267 361 l 424 361 l 350 775 m 292 1040 l 183 1236 l 183 1243 l 361 1243 l 435 1047 l 435 1040 l 292 1040 z "},"Ả":{"ha":696,"x_min":11,"x_max":685,"o":"m 490 0 l 453 196 l 239 196 l 201 0 l 11 0 l 208 956 l 488 956 l 685 0 l 490 0 m 350 775 l 342 775 l 267 361 l 424 361 l 350 775 m 254 1036 q 266 1088 254 1072 q 310 1115 278 1103 l 328 1122 q 372 1144 361 1136 q 382 1165 382 1151 q 370 1185 382 1181 q 325 1189 358 1189 q 186 1183 246 1189 l 186 1288 q 339 1304 272 1304 q 466 1279 422 1304 q 510 1185 510 1254 q 496 1113 510 1138 q 440 1069 482 1089 l 418 1060 q 374 1037 382 1044 q 367 1007 367 1029 l 254 1007 l 254 1036 z "},"Ȃ":{"ha":696,"x_min":11,"x_max":685,"o":"m 490 0 l 453 196 l 239 196 l 201 0 l 11 0 l 208 956 l 488 956 l 685 0 l 490 0 m 350 775 l 342 775 l 267 361 l 424 361 l 350 775 m 167 1053 q 180 1156 167 1115 q 233 1219 193 1196 q 350 1242 272 1242 q 465 1219 426 1242 q 517 1156 504 1196 q 529 1053 529 1115 l 419 1053 q 416 1101 419 1085 q 398 1127 413 1117 q 350 1138 383 1138 q 289 1117 301 1138 q 276 1053 276 1097 l 167 1053 z "},"Ā":{"ha":696,"x_min":11,"x_max":685,"o":"m 490 0 l 453 196 l 239 196 l 201 0 l 11 0 l 208 956 l 488 956 l 685 0 l 490 0 m 350 775 l 342 775 l 267 361 l 424 361 l 350 775 m 208 1072 l 208 1233 l 489 1233 l 489 1072 l 208 1072 z "},"Ą":{"ha":696,"x_min":11,"x_max":685,"o":"m 557 -119 q 569 -158 557 -144 q 611 -172 581 -172 l 629 -171 l 629 -267 q 556 -272 597 -272 q 449 -240 481 -272 q 417 -153 417 -207 q 437 -73 417 -114 q 490 3 457 -32 l 453 196 l 239 196 l 201 0 l 11 0 l 208 956 l 488 956 l 685 0 l 621 0 q 577 -57 597 -24 q 557 -119 557 -90 m 267 361 l 424 361 l 350 775 l 342 775 l 267 361 z "},"Å":{"ha":696,"x_min":11,"x_max":685,"o":"m 685 0 l 490 0 l 453 196 l 239 196 l 201 0 l 11 0 l 208 953 q 177 997 183 969 q 171 1076 171 1024 q 181 1168 171 1138 q 228 1215 190 1199 q 347 1231 265 1231 q 468 1215 431 1231 q 515 1168 506 1199 q 525 1076 525 1138 q 518 997 525 1025 q 488 954 511 969 l 685 0 m 347 1140 q 303 1135 317 1140 q 288 1117 290 1129 q 285 1076 285 1106 q 288 1035 285 1047 q 303 1018 290 1024 q 347 1013 317 1013 q 392 1018 379 1013 q 409 1035 406 1024 q 413 1076 413 1047 q 409 1117 413 1106 q 392 1135 406 1129 q 347 1140 379 1140 m 267 361 l 424 361 l 350 775 l 342 775 l 267 361 z "},"Ǻ":{"ha":696,"x_min":11,"x_max":685,"o":"m 685 0 l 490 0 l 453 196 l 239 196 l 201 0 l 11 0 l 208 953 q 177 997 183 969 q 171 1076 171 1024 q 181 1168 171 1138 q 228 1215 190 1199 q 347 1231 265 1231 q 468 1215 431 1231 q 515 1168 506 1199 q 525 1076 525 1138 q 518 997 525 1025 q 488 954 511 969 l 685 0 m 347 1140 q 303 1135 317 1140 q 288 1117 290 1129 q 285 1076 285 1106 q 288 1035 285 1047 q 303 1018 290 1024 q 347 1013 317 1013 q 392 1018 379 1013 q 409 1035 406 1024 q 413 1076 413 1047 q 409 1117 413 1106 q 392 1135 406 1129 q 347 1140 379 1140 m 267 361 l 424 361 l 350 775 l 342 775 l 267 361 m 269 1306 l 269 1313 l 343 1508 l 521 1508 l 521 1501 l 411 1306 l 269 1306 z "},"Ã":{"ha":696,"x_min":11,"x_max":685,"o":"m 490 0 l 453 196 l 239 196 l 201 0 l 11 0 l 208 956 l 488 956 l 685 0 l 490 0 m 350 775 l 342 775 l 267 361 l 424 361 l 350 775 m 563 1239 q 557 1134 563 1169 q 530 1078 551 1099 q 460 1058 508 1058 q 336 1081 411 1058 q 302 1090 328 1083 q 261 1097 276 1097 q 239 1086 243 1097 q 235 1042 235 1075 l 132 1042 q 138 1147 132 1111 q 165 1203 143 1183 q 236 1224 188 1224 q 358 1200 282 1224 q 435 1185 414 1185 q 456 1195 453 1185 q 460 1239 460 1206 l 563 1239 z "},"Æ":{"ha":940,"x_min":-18,"x_max":892,"o":"m 463 0 l 439 196 l 222 196 l 171 0 l -18 0 l 246 956 l 892 956 l 892 788 l 553 788 l 582 567 l 854 567 l 854 397 l 603 397 l 635 168 l 892 168 l 892 0 l 463 0 m 372 776 l 364 776 l 261 361 l 421 361 l 372 776 z "},"Ǽ":{"ha":940,"x_min":-18,"x_max":892,"o":"m 463 0 l 439 196 l 222 196 l 171 0 l -18 0 l 246 956 l 892 956 l 892 788 l 553 788 l 582 567 l 854 567 l 854 397 l 603 397 l 635 168 l 892 168 l 892 0 l 463 0 m 372 776 l 364 776 l 261 361 l 421 361 l 372 776 m 393 1031 l 393 1038 l 467 1233 l 644 1233 l 644 1226 l 535 1031 l 393 1031 z "},"B":{"ha":678,"x_min":72,"x_max":633,"o":"m 72 956 l 400 956 q 569 896 513 956 q 625 715 625 836 q 594 560 625 614 q 499 490 564 507 l 499 485 q 602 415 571 467 q 633 256 633 364 q 579 65 633 129 q 400 0 525 0 l 72 0 l 72 956 m 349 565 q 403 574 385 565 q 430 606 422 582 q 438 676 438 629 q 431 749 438 726 q 406 780 424 772 q 349 788 388 788 l 261 788 l 261 565 l 349 565 m 353 168 q 410 176 392 168 q 435 208 428 185 q 442 283 442 232 q 435 359 442 335 q 409 392 428 383 q 353 400 390 400 l 261 400 l 261 168 l 353 168 z "},"C":{"ha":550,"x_min":54,"x_max":511,"o":"m 511 13 q 435 -4 482 3 q 347 -11 389 -11 q 156 32 217 -11 q 74 175 94 75 q 54 478 54 275 q 75 780 54 679 q 158 924 96 881 q 347 967 219 967 q 438 960 393 967 q 508 944 483 954 l 508 789 q 386 799 428 799 q 288 780 315 799 q 253 700 261 761 q 246 478 246 639 q 253 256 246 317 q 288 176 261 194 q 386 157 315 157 q 511 167 450 157 l 511 13 z "},"Ć":{"ha":550,"x_min":54,"x_max":511,"o":"m 511 13 q 435 -4 482 3 q 347 -11 389 -11 q 156 32 217 -11 q 74 175 94 75 q 54 478 54 275 q 75 780 54 679 q 158 924 96 881 q 347 967 219 967 q 438 960 393 967 q 508 944 483 954 l 508 789 q 386 799 428 799 q 288 780 315 799 q 253 700 261 761 q 246 478 246 639 q 253 256 246 317 q 288 176 261 194 q 386 157 315 157 q 511 167 450 157 l 511 13 m 197 1031 l 197 1038 l 271 1233 l 449 1233 l 449 1226 l 339 1031 l 197 1031 z "},"Č":{"ha":550,"x_min":54,"x_max":511,"o":"m 511 13 q 435 -4 482 3 q 347 -11 389 -11 q 156 32 217 -11 q 74 175 94 75 q 54 478 54 275 q 75 780 54 679 q 158 924 96 881 q 347 967 219 967 q 438 960 393 967 q 508 944 483 954 l 508 789 q 386 799 428 799 q 288 780 315 799 q 253 700 261 761 q 246 478 246 639 q 253 256 246 317 q 288 176 261 194 q 386 157 315 157 q 511 167 450 157 l 511 13 m 186 1050 l 82 1222 l 82 1233 l 204 1233 l 275 1135 l 347 1233 l 469 1233 l 469 1222 l 364 1050 l 186 1050 z "},"Ç":{"ha":550,"x_min":54,"x_max":511,"o":"m 386 157 q 511 167 450 157 l 511 13 q 435 -4 482 3 q 347 -11 389 -11 l 333 -11 l 288 -262 l 131 -262 l 131 -256 l 217 4 q 113 76 147 24 q 66 222 78 129 q 54 478 54 314 q 75 780 54 679 q 158 924 96 881 q 347 967 219 967 q 438 960 393 967 q 508 944 483 954 l 508 789 q 386 799 428 799 q 288 780 315 799 q 253 700 261 761 q 246 478 246 639 q 253 256 246 317 q 288 176 261 194 q 386 157 315 157 z "},"Ĉ":{"ha":550,"x_min":54,"x_max":511,"o":"m 511 13 q 435 -4 482 3 q 347 -11 389 -11 q 156 32 217 -11 q 74 175 94 75 q 54 478 54 275 q 75 780 54 679 q 158 924 96 881 q 347 967 219 967 q 438 960 393 967 q 508 944 483 954 l 508 789 q 386 799 428 799 q 288 780 315 799 q 253 700 261 761 q 246 478 246 639 q 253 256 246 317 q 288 176 261 194 q 386 157 315 157 q 511 167 450 157 l 511 13 m 81 1051 l 81 1063 l 185 1233 l 364 1233 l 469 1063 l 469 1051 l 346 1051 l 274 1150 l 203 1051 l 81 1051 z "},"Ċ":{"ha":550,"x_min":54,"x_max":511,"o":"m 511 13 q 435 -4 482 3 q 347 -11 389 -11 q 156 32 217 -11 q 74 175 94 75 q 54 478 54 275 q 75 780 54 679 q 158 924 96 881 q 347 967 219 967 q 438 960 393 967 q 508 944 483 954 l 508 789 q 386 799 428 799 q 288 780 315 799 q 253 700 261 761 q 246 478 246 639 q 253 256 246 317 q 288 176 261 194 q 386 157 315 157 q 511 167 450 157 l 511 13 m 199 1072 l 199 1215 l 353 1215 l 353 1072 l 199 1072 z "},"D":{"ha":689,"x_min":72,"x_max":635,"o":"m 72 956 l 331 956 q 541 915 478 956 q 619 783 604 874 q 635 478 635 692 q 619 173 635 264 q 541 41 604 82 q 331 0 478 0 l 72 0 l 72 956 m 328 168 q 410 183 389 168 q 438 256 432 197 q 444 478 444 314 q 438 699 444 640 q 410 773 431 758 q 328 788 389 788 l 263 788 l 263 168 l 328 168 z "},"Ǳ":{"ha":1299,"x_min":72,"x_max":1256,"o":"m 72 956 l 331 956 q 541 915 478 956 q 619 783 604 874 q 635 478 635 692 q 619 173 635 264 q 541 41 604 82 q 331 0 478 0 l 72 0 l 72 956 m 328 168 q 410 183 389 168 q 438 256 432 197 q 444 478 444 314 q 438 699 444 640 q 410 773 431 758 q 328 788 389 788 l 263 788 l 263 168 l 328 168 m 732 0 l 732 158 l 1039 788 l 742 788 l 742 956 l 1253 956 l 1253 799 l 944 168 l 1256 168 l 1256 0 l 732 0 z "},"Ǆ":{"ha":1299,"x_min":72,"x_max":1256,"o":"m 72 956 l 331 956 q 541 915 478 956 q 619 783 604 874 q 635 478 635 692 q 619 173 635 264 q 541 41 604 82 q 331 0 478 0 l 72 0 l 72 956 m 328 168 q 410 183 389 168 q 438 256 432 197 q 444 478 444 314 q 438 699 444 640 q 410 773 431 758 q 328 788 389 788 l 263 788 l 263 168 l 328 168 m 732 0 l 732 158 l 1039 788 l 742 788 l 742 956 l 1253 956 l 1253 799 l 944 168 l 1256 168 l 1256 0 l 732 0 m 903 1050 l 799 1222 l 799 1233 l 921 1233 l 992 1135 l 1064 1233 l 1186 1233 l 1186 1222 l 1081 1050 l 903 1050 z "},"Ð":{"ha":689,"x_min":7,"x_max":635,"o":"m 72 401 l 7 401 l 7 564 l 72 564 l 72 956 l 331 956 q 541 915 478 956 q 619 783 604 874 q 635 478 635 692 q 619 173 635 264 q 541 41 604 82 q 331 0 478 0 l 72 0 l 72 401 m 328 168 q 410 183 389 168 q 438 256 432 197 q 444 478 444 314 q 438 699 444 640 q 410 773 431 758 q 328 788 389 788 l 263 788 l 263 564 l 346 564 l 346 401 l 263 401 l 263 168 l 328 168 z "},"Ď":{"ha":689,"x_min":72,"x_max":635,"o":"m 72 956 l 331 956 q 541 915 478 956 q 619 783 604 874 q 635 478 635 692 q 619 173 635 264 q 541 41 604 82 q 331 0 478 0 l 72 0 l 72 956 m 328 168 q 410 183 389 168 q 438 256 432 197 q 444 478 444 314 q 438 699 444 640 q 410 773 431 758 q 328 788 389 788 l 263 788 l 263 168 l 328 168 m 256 1050 l 151 1222 l 151 1233 l 274 1233 l 344 1135 l 417 1233 l 539 1233 l 539 1222 l 433 1050 l 256 1050 z "},"Đ":{"ha":689,"x_min":7,"x_max":635,"o":"m 72 401 l 7 401 l 7 564 l 72 564 l 72 956 l 331 956 q 541 915 478 956 q 619 783 604 874 q 635 478 635 692 q 619 173 635 264 q 541 41 604 82 q 331 0 478 0 l 72 0 l 72 401 m 328 168 q 410 183 389 168 q 438 256 432 197 q 444 478 444 314 q 438 699 444 640 q 410 773 431 758 q 328 788 389 788 l 263 788 l 263 564 l 346 564 l 346 401 l 263 401 l 263 168 l 328 168 z "},"Ḍ":{"ha":689,"x_min":72,"x_max":635,"o":"m 72 956 l 331 956 q 541 915 478 956 q 619 783 604 874 q 635 478 635 692 q 619 173 635 264 q 541 41 604 82 q 331 0 478 0 l 72 0 l 72 956 m 328 168 q 410 183 389 168 q 438 256 432 197 q 444 478 444 314 q 438 699 444 640 q 410 773 431 758 q 328 788 389 788 l 263 788 l 263 168 l 328 168 m 246 -268 l 246 -86 l 442 -86 l 442 -268 l 246 -268 z "},"ǲ":{"ha":1236,"x_min":72,"x_max":1192,"o":"m 72 956 l 331 956 q 541 915 478 956 q 619 783 604 874 q 635 478 635 692 q 619 173 635 264 q 541 41 604 82 q 331 0 478 0 l 72 0 l 72 956 m 328 168 q 410 183 389 168 q 438 256 432 197 q 444 478 444 314 q 438 699 444 640 q 410 773 431 758 q 328 788 389 788 l 263 788 l 263 168 l 328 168 m 733 0 l 733 140 l 981 558 l 743 558 l 743 708 l 1189 708 l 1189 568 l 943 150 l 1192 150 l 1192 0 l 733 0 z "},"ǅ":{"ha":1236,"x_min":72,"x_max":1192,"o":"m 72 956 l 331 956 q 541 915 478 956 q 619 783 604 874 q 635 478 635 692 q 619 173 635 264 q 541 41 604 82 q 331 0 478 0 l 72 0 l 72 956 m 328 168 q 410 183 389 168 q 438 256 432 197 q 444 478 444 314 q 438 699 444 640 q 410 773 431 758 q 328 788 389 788 l 263 788 l 263 168 l 328 168 m 733 0 l 733 140 l 981 558 l 743 558 l 743 708 l 1189 708 l 1189 568 l 943 150 l 1192 150 l 1192 0 l 733 0 m 878 849 l 774 1021 l 774 1032 l 896 1032 l 967 933 l 1039 1032 l 1161 1032 l 1161 1021 l 1056 849 l 878 849 z "},"E":{"ha":585,"x_min":72,"x_max":536,"o":"m 72 0 l 72 956 l 536 956 l 536 788 l 264 788 l 264 567 l 499 567 l 499 399 l 264 399 l 264 168 l 536 168 l 536 0 l 72 0 z "},"É":{"ha":585,"x_min":72,"x_max":536,"o":"m 72 0 l 72 956 l 536 956 l 536 788 l 264 788 l 264 567 l 499 567 l 499 399 l 264 399 l 264 168 l 536 168 l 536 0 l 72 0 m 235 1042 l 235 1049 l 308 1244 l 486 1244 l 486 1238 l 376 1042 l 235 1042 z "},"Ĕ":{"ha":585,"x_min":72,"x_max":536,"o":"m 72 0 l 72 956 l 536 956 l 536 788 l 264 788 l 264 567 l 499 567 l 499 399 l 264 399 l 264 168 l 536 168 l 536 0 l 72 0 m 485 1233 q 472 1131 485 1171 q 419 1067 458 1090 q 301 1044 379 1044 q 186 1067 225 1044 q 135 1131 147 1090 q 122 1233 122 1171 l 232 1233 q 235 1185 232 1201 q 253 1159 239 1169 q 301 1149 268 1149 q 363 1169 350 1149 q 375 1233 375 1189 l 485 1233 z "},"Ě":{"ha":585,"x_min":72,"x_max":536,"o":"m 72 0 l 72 956 l 536 956 l 536 788 l 264 788 l 264 567 l 499 567 l 499 399 l 264 399 l 264 168 l 536 168 l 536 0 l 72 0 m 215 1050 l 111 1222 l 111 1233 l 233 1233 l 304 1135 l 376 1233 l 499 1233 l 499 1222 l 393 1050 l 215 1050 z "},"Ê":{"ha":585,"x_min":72,"x_max":536,"o":"m 72 0 l 72 956 l 536 956 l 536 788 l 264 788 l 264 567 l 499 567 l 499 399 l 264 399 l 264 168 l 536 168 l 536 0 l 72 0 m 108 1042 l 108 1053 l 213 1224 l 392 1224 l 497 1053 l 497 1042 l 374 1042 l 301 1140 l 231 1042 l 108 1042 z "},"Ế":{"ha":585,"x_min":72,"x_max":586,"o":"m 72 0 l 72 956 l 536 956 l 536 788 l 264 788 l 264 567 l 499 567 l 499 399 l 264 399 l 264 168 l 536 168 l 536 0 l 72 0 m 111 1019 l 111 1031 l 215 1201 l 394 1201 l 500 1031 l 500 1019 l 376 1019 l 304 1118 l 233 1019 l 111 1019 m 335 1239 l 335 1246 l 408 1442 l 586 1442 l 586 1435 l 476 1239 l 335 1239 z "},"Ệ":{"ha":585,"x_min":72,"x_max":536,"o":"m 72 0 l 72 956 l 536 956 l 536 788 l 264 788 l 264 567 l 499 567 l 499 399 l 264 399 l 264 168 l 536 168 l 536 0 l 72 0 m 206 -268 l 206 -86 l 401 -86 l 401 -268 l 206 -268 m 110 1051 l 110 1063 l 214 1233 l 393 1233 l 499 1063 l 499 1051 l 375 1051 l 303 1150 l 232 1051 l 110 1051 z "},"Ề":{"ha":585,"x_min":72,"x_max":536,"o":"m 72 0 l 72 956 l 536 956 l 536 788 l 264 788 l 264 567 l 499 567 l 499 399 l 264 399 l 264 168 l 536 168 l 536 0 l 72 0 m 100 1008 l 100 1019 l 204 1190 l 383 1190 l 489 1019 l 489 1008 l 365 1008 l 293 1107 l 222 1008 l 100 1008 m 365 1228 l 257 1424 l 257 1431 l 435 1431 l 508 1235 l 508 1228 l 365 1228 z "},"Ể":{"ha":585,"x_min":72,"x_max":617,"o":"m 72 0 l 72 956 l 536 956 l 536 788 l 264 788 l 264 567 l 499 567 l 499 399 l 264 399 l 264 168 l 536 168 l 536 0 l 72 0 m 110 1010 l 110 1021 l 214 1192 l 393 1192 l 499 1021 l 499 1010 l 375 1010 l 303 1108 l 232 1010 l 110 1010 m 361 1247 q 373 1299 361 1283 q 417 1326 385 1314 l 435 1333 q 478 1354 467 1346 q 489 1376 489 1363 q 477 1396 489 1392 q 432 1400 465 1400 q 293 1396 360 1400 l 293 1499 q 446 1517 386 1517 q 573 1491 529 1517 q 617 1396 617 1465 q 603 1324 617 1349 q 547 1281 589 1300 l 525 1271 q 481 1248 489 1256 q 474 1219 474 1240 l 361 1219 l 361 1247 z "},"Ễ":{"ha":585,"x_min":72,"x_max":536,"o":"m 72 0 l 72 956 l 536 956 l 536 788 l 264 788 l 264 567 l 499 567 l 499 399 l 264 399 l 264 168 l 536 168 l 536 0 l 72 0 m 107 1010 l 107 1021 l 211 1192 l 390 1192 l 496 1021 l 496 1010 l 372 1010 l 300 1108 l 229 1010 l 107 1010 m 519 1432 q 514 1327 519 1363 q 487 1272 508 1292 q 417 1251 465 1251 q 293 1274 368 1251 q 259 1283 285 1276 q 218 1290 233 1290 q 196 1279 200 1290 q 192 1235 192 1268 l 89 1235 q 94 1340 89 1304 q 122 1397 100 1376 q 193 1417 144 1417 q 315 1393 239 1417 q 392 1378 371 1378 q 413 1388 410 1378 q 417 1432 417 1399 l 519 1432 z "},"Ȅ":{"ha":585,"x_min":58,"x_max":536,"o":"m 72 0 l 72 956 l 536 956 l 536 788 l 264 788 l 264 567 l 499 567 l 499 399 l 264 399 l 264 168 l 536 168 l 536 0 l 72 0 m 267 1049 l 149 1049 l 58 1211 l 58 1217 l 204 1217 l 267 1054 l 267 1049 m 469 1049 l 351 1049 l 263 1211 l 263 1217 l 408 1217 l 469 1054 l 469 1049 z "},"Ë":{"ha":585,"x_min":72,"x_max":536,"o":"m 72 0 l 72 956 l 536 956 l 536 788 l 264 788 l 264 567 l 499 567 l 499 399 l 264 399 l 264 168 l 536 168 l 536 0 l 72 0 m 107 1079 l 107 1222 l 261 1222 l 261 1079 l 107 1079 m 350 1079 l 350 1222 l 504 1222 l 504 1079 l 350 1079 z "},"Ė":{"ha":585,"x_min":72,"x_max":536,"o":"m 72 0 l 72 956 l 536 956 l 536 788 l 264 788 l 264 567 l 499 567 l 499 399 l 264 399 l 264 168 l 536 168 l 536 0 l 72 0 m 228 1072 l 228 1215 l 382 1215 l 382 1072 l 228 1072 z "},"Ẹ":{"ha":585,"x_min":72,"x_max":536,"o":"m 72 0 l 72 956 l 536 956 l 536 788 l 264 788 l 264 567 l 499 567 l 499 399 l 264 399 l 264 168 l 536 168 l 536 0 l 72 0 m 206 -268 l 206 -86 l 401 -86 l 401 -268 l 206 -268 z "},"È":{"ha":585,"x_min":72,"x_max":536,"o":"m 72 0 l 72 956 l 536 956 l 536 788 l 264 788 l 264 567 l 499 567 l 499 399 l 264 399 l 264 168 l 536 168 l 536 0 l 72 0 m 251 1042 l 143 1238 l 143 1244 l 321 1244 l 394 1049 l 394 1042 l 251 1042 z "},"Ẻ":{"ha":585,"x_min":72,"x_max":536,"o":"m 72 0 l 72 956 l 536 956 l 536 788 l 264 788 l 264 567 l 499 567 l 499 399 l 264 399 l 264 168 l 536 168 l 536 0 l 72 0 m 210 1036 q 222 1088 210 1072 q 265 1115 233 1103 l 283 1122 q 327 1144 317 1136 q 338 1165 338 1151 q 326 1185 338 1181 q 281 1189 314 1189 q 142 1183 201 1189 l 142 1288 q 294 1304 228 1304 q 422 1279 378 1304 q 465 1185 465 1254 q 451 1113 465 1138 q 396 1069 438 1089 l 374 1060 q 330 1037 338 1044 q 322 1007 322 1029 l 210 1007 l 210 1036 z "},"Ȇ":{"ha":585,"x_min":72,"x_max":536,"o":"m 72 0 l 72 956 l 536 956 l 536 788 l 264 788 l 264 567 l 499 567 l 499 399 l 264 399 l 264 168 l 536 168 l 536 0 l 72 0 m 122 1053 q 135 1156 122 1115 q 188 1219 149 1196 q 306 1242 228 1242 q 421 1219 382 1242 q 472 1156 460 1196 q 485 1053 485 1115 l 375 1053 q 372 1101 375 1085 q 353 1127 368 1117 q 306 1138 339 1138 q 244 1117 257 1138 q 232 1053 232 1097 l 122 1053 z "},"Ē":{"ha":585,"x_min":72,"x_max":536,"o":"m 72 0 l 72 956 l 536 956 l 536 788 l 264 788 l 264 567 l 499 567 l 499 399 l 264 399 l 264 168 l 536 168 l 536 0 l 72 0 m 164 1072 l 164 1233 l 444 1233 l 444 1072 l 164 1072 z "},"Ę":{"ha":585,"x_min":72,"x_max":535,"o":"m 456 -272 q 347 -240 379 -272 q 314 -158 314 -207 q 401 0 314 -78 l 72 0 l 72 956 l 535 956 l 535 788 l 263 788 l 263 567 l 499 567 l 499 399 l 263 399 l 263 168 l 535 168 l 535 0 q 479 -55 504 -21 q 454 -124 454 -89 q 467 -158 454 -144 q 507 -172 479 -172 l 526 -171 l 526 -267 q 456 -272 485 -272 z "},"Ẽ":{"ha":585,"x_min":72,"x_max":536,"o":"m 72 0 l 72 956 l 536 956 l 536 788 l 264 788 l 264 567 l 499 567 l 499 399 l 264 399 l 264 168 l 536 168 l 536 0 l 72 0 m 519 1233 q 514 1128 519 1164 q 487 1073 508 1093 q 417 1053 465 1053 q 293 1075 368 1053 q 259 1085 285 1078 q 218 1092 233 1092 q 196 1081 200 1092 q 192 1036 192 1069 l 89 1036 q 94 1142 89 1106 q 122 1198 100 1178 q 193 1218 144 1218 q 315 1194 239 1218 q 392 1179 371 1179 q 413 1190 410 1179 q 417 1233 417 1200 l 519 1233 z "},"F":{"ha":544,"x_min":72,"x_max":515,"o":"m 72 0 l 72 956 l 515 956 l 515 788 l 264 788 l 264 544 l 485 544 l 485 376 l 264 376 l 264 0 l 72 0 z "},"G":{"ha":676,"x_min":54,"x_max":611,"o":"m 349 392 l 349 556 l 611 556 l 611 18 q 493 -3 563 6 q 364 -11 424 -11 q 167 28 232 -11 q 78 170 103 68 q 54 478 54 272 q 80 784 54 682 q 174 926 106 886 q 378 967 242 967 q 499 958 433 967 q 610 939 564 950 l 610 782 q 436 799 490 799 q 306 783 342 799 q 258 705 271 768 q 244 478 244 642 q 253 260 244 325 q 285 174 261 196 q 368 151 310 151 q 435 156 381 151 l 435 392 l 349 392 z "},"Ǵ":{"ha":676,"x_min":54,"x_max":611,"o":"m 349 392 l 349 556 l 611 556 l 611 18 q 493 -3 563 6 q 364 -11 424 -11 q 167 28 232 -11 q 78 170 103 68 q 54 478 54 272 q 80 784 54 682 q 174 926 106 886 q 378 967 242 967 q 499 958 433 967 q 610 939 564 950 l 610 782 q 436 799 490 799 q 306 783 342 799 q 258 705 271 768 q 244 478 244 642 q 253 260 244 325 q 285 174 261 196 q 368 151 310 151 q 435 156 381 151 l 435 392 l 349 392 m 260 1031 l 260 1038 l 333 1233 l 511 1233 l 511 1226 l 401 1031 l 260 1031 z "},"Ğ":{"ha":676,"x_min":54,"x_max":611,"o":"m 349 392 l 349 556 l 611 556 l 611 18 q 493 -3 563 6 q 364 -11 424 -11 q 167 28 232 -11 q 78 170 103 68 q 54 478 54 272 q 80 784 54 682 q 174 926 106 886 q 378 967 242 967 q 499 958 433 967 q 610 939 564 950 l 610 782 q 436 799 490 799 q 306 783 342 799 q 258 705 271 768 q 244 478 244 642 q 253 260 244 325 q 285 174 261 196 q 368 151 310 151 q 435 156 381 151 l 435 392 l 349 392 m 518 1233 q 505 1131 518 1171 q 452 1067 492 1090 q 335 1044 413 1044 q 219 1067 258 1044 q 168 1131 181 1090 q 156 1233 156 1171 l 265 1233 q 269 1185 265 1201 q 287 1159 272 1169 q 335 1149 301 1149 q 396 1169 383 1149 q 408 1233 408 1189 l 518 1233 z "},"Ǧ":{"ha":676,"x_min":54,"x_max":611,"o":"m 349 392 l 349 556 l 611 556 l 611 18 q 493 -3 563 6 q 364 -11 424 -11 q 167 28 232 -11 q 78 170 103 68 q 54 478 54 272 q 80 784 54 682 q 174 926 106 886 q 378 967 242 967 q 499 958 433 967 q 610 939 564 950 l 610 782 q 436 799 490 799 q 306 783 342 799 q 258 705 271 768 q 244 478 244 642 q 253 260 244 325 q 285 174 261 196 q 368 151 310 151 q 435 156 381 151 l 435 392 l 349 392 m 249 1050 l 144 1222 l 144 1233 l 267 1233 l 338 1135 l 410 1233 l 532 1233 l 532 1222 l 426 1050 l 249 1050 z "},"Ĝ":{"ha":676,"x_min":54,"x_max":611,"o":"m 349 392 l 349 556 l 611 556 l 611 18 q 493 -3 563 6 q 364 -11 424 -11 q 167 28 232 -11 q 78 170 103 68 q 54 478 54 272 q 80 784 54 682 q 174 926 106 886 q 378 967 242 967 q 499 958 433 967 q 610 939 564 950 l 610 782 q 436 799 490 799 q 306 783 342 799 q 258 705 271 768 q 244 478 244 642 q 253 260 244 325 q 285 174 261 196 q 368 151 310 151 q 435 156 381 151 l 435 392 l 349 392 m 143 1051 l 143 1063 l 247 1233 l 426 1233 l 532 1063 l 532 1051 l 408 1051 l 336 1150 l 265 1051 l 143 1051 z "},"Ģ":{"ha":676,"x_min":54,"x_max":611,"o":"m 349 392 l 349 556 l 611 556 l 611 18 q 493 -3 563 6 q 364 -11 424 -11 q 167 28 232 -11 q 78 170 103 68 q 54 478 54 272 q 80 784 54 682 q 174 926 106 886 q 378 967 242 967 q 499 958 433 967 q 610 939 564 950 l 610 782 q 436 799 490 799 q 306 783 342 799 q 258 705 271 768 q 244 478 244 642 q 253 260 244 325 q 285 174 261 196 q 368 151 310 151 q 435 156 381 151 l 435 392 l 349 392 m 243 -322 q 303 -309 289 -322 q 318 -257 318 -296 l 318 -237 l 249 -237 l 249 -86 l 433 -86 l 433 -186 q 421 -322 433 -278 q 369 -383 408 -365 q 243 -401 329 -401 l 243 -322 z "},"Ġ":{"ha":676,"x_min":54,"x_max":611,"o":"m 349 392 l 349 556 l 611 556 l 611 18 q 493 -3 563 6 q 364 -11 424 -11 q 167 28 232 -11 q 78 170 103 68 q 54 478 54 272 q 80 784 54 682 q 174 926 106 886 q 378 967 242 967 q 499 958 433 967 q 610 939 564 950 l 610 782 q 436 799 490 799 q 306 783 342 799 q 258 705 271 768 q 244 478 244 642 q 253 260 244 325 q 285 174 261 196 q 368 151 310 151 q 435 156 381 151 l 435 392 l 349 392 m 261 1072 l 261 1215 l 415 1215 l 415 1072 l 261 1072 z "},"H":{"ha":721,"x_min":72,"x_max":649,"o":"m 458 0 l 458 393 l 263 393 l 263 0 l 72 0 l 72 956 l 263 956 l 263 569 l 458 569 l 458 956 l 649 956 l 649 0 l 458 0 z "},"Ħ":{"ha":721,"x_min":72,"x_max":649,"o":"m 458 956 l 649 956 l 649 0 l 458 0 l 458 338 l 263 338 l 263 0 l 72 0 l 72 956 l 263 956 l 263 819 l 458 819 l 458 956 m 263 514 l 458 514 l 458 657 l 263 657 l 263 514 z "},"Ĥ":{"ha":721,"x_min":72,"x_max":649,"o":"m 458 0 l 458 393 l 263 393 l 263 0 l 72 0 l 72 956 l 263 956 l 263 569 l 458 569 l 458 956 l 649 956 l 649 0 l 458 0 m 167 1051 l 167 1063 l 271 1233 l 450 1233 l 556 1063 l 556 1051 l 432 1051 l 360 1150 l 289 1051 l 167 1051 z "},"Ḥ":{"ha":721,"x_min":72,"x_max":649,"o":"m 458 0 l 458 393 l 263 393 l 263 0 l 72 0 l 72 956 l 263 956 l 263 569 l 458 569 l 458 956 l 649 956 l 649 0 l 458 0 m 263 -268 l 263 -86 l 458 -86 l 458 -268 l 263 -268 z "},"I":{"ha":338,"x_min":74,"x_max":264,"o":"m 74 0 l 74 956 l 264 956 l 264 0 l 74 0 z "},"Ĳ":{"ha":749,"x_min":74,"x_max":682,"o":"m 74 0 l 74 956 l 264 956 l 264 0 l 74 0 m 353 158 q 450 169 424 160 q 483 213 476 179 q 490 339 490 246 l 490 956 l 682 956 l 682 428 q 665 127 682 207 q 585 24 647 47 q 353 0 524 1 l 353 158 z "},"Í":{"ha":338,"x_min":74,"x_max":329,"o":"m 74 0 l 74 956 l 264 956 l 264 0 l 74 0 m 78 1042 l 78 1049 l 151 1244 l 329 1244 l 329 1238 l 219 1042 l 78 1042 z "},"Ĭ":{"ha":338,"x_min":-12,"x_max":350,"o":"m 74 0 l 74 956 l 264 956 l 264 0 l 74 0 m 350 1233 q 337 1131 350 1171 q 284 1067 324 1090 q 167 1044 244 1044 q 51 1067 90 1044 q 0 1131 13 1090 q -12 1233 -12 1171 l 97 1233 q 101 1185 97 1201 q 119 1159 104 1169 q 167 1149 133 1149 q 228 1169 215 1149 q 240 1233 240 1189 l 350 1233 z "},"Ǐ":{"ha":338,"x_min":-24,"x_max":364,"o":"m 74 0 l 74 956 l 264 956 l 264 0 l 74 0 m 81 1050 l -24 1222 l -24 1233 l 99 1233 l 169 1135 l 242 1233 l 364 1233 l 364 1222 l 258 1050 l 81 1050 z "},"Î":{"ha":338,"x_min":-25,"x_max":364,"o":"m 74 0 l 74 956 l 264 956 l 264 0 l 74 0 m -25 1042 l -25 1053 l 79 1224 l 258 1224 l 364 1053 l 364 1042 l 240 1042 l 168 1140 l 97 1042 l -25 1042 z "},"Ȉ":{"ha":338,"x_min":-76,"x_max":335,"o":"m 74 0 l 74 956 l 264 956 l 264 0 l 74 0 m 132 1049 l 14 1049 l -76 1211 l -76 1217 l 69 1217 l 132 1054 l 132 1049 m 335 1049 l 217 1049 l 128 1211 l 128 1217 l 274 1217 l 335 1054 l 335 1049 z "},"Ï":{"ha":338,"x_min":-29,"x_max":368,"o":"m 74 0 l 74 956 l 264 956 l 264 0 l 74 0 m -29 1082 l -29 1225 l 125 1225 l 125 1082 l -29 1082 m 214 1082 l 214 1225 l 368 1225 l 368 1082 l 214 1082 z "},"İ":{"ha":338,"x_min":74,"x_max":264,"o":"m 74 0 l 74 956 l 264 956 l 264 0 l 74 0 m 93 1072 l 93 1215 l 247 1215 l 247 1072 l 93 1072 z "},"Ị":{"ha":338,"x_min":71,"x_max":267,"o":"m 74 0 l 74 956 l 264 956 l 264 0 l 74 0 m 71 -268 l 71 -86 l 267 -86 l 267 -268 l 71 -268 z "},"Ì":{"ha":338,"x_min":14,"x_max":265,"o":"m 74 0 l 74 956 l 264 956 l 264 0 l 74 0 m 122 1042 l 14 1238 l 14 1244 l 192 1244 l 265 1049 l 265 1042 l 122 1042 z "},"Ỉ":{"ha":338,"x_min":7,"x_max":331,"o":"m 74 0 l 74 956 l 264 956 l 264 0 l 74 0 m 75 1036 q 87 1088 75 1072 q 131 1115 99 1103 l 149 1122 q 192 1144 182 1136 q 203 1165 203 1151 q 191 1185 203 1181 q 146 1189 179 1189 q 7 1183 67 1189 l 7 1288 q 160 1304 93 1304 q 287 1279 243 1304 q 331 1185 331 1254 q 317 1113 331 1138 q 261 1069 303 1089 l 239 1060 q 195 1037 203 1044 q 188 1007 188 1029 l 75 1007 l 75 1036 z "},"Ȋ":{"ha":338,"x_min":-12,"x_max":350,"o":"m 74 0 l 74 956 l 264 956 l 264 0 l 74 0 m -12 1053 q 1 1156 -12 1115 q 53 1219 14 1196 q 171 1242 93 1242 q 286 1219 247 1242 q 338 1156 325 1196 q 350 1053 350 1115 l 240 1053 q 237 1101 240 1085 q 219 1127 233 1117 q 171 1138 204 1138 q 110 1117 122 1138 q 97 1053 97 1097 l -12 1053 z "},"Ī":{"ha":338,"x_min":29,"x_max":310,"o":"m 74 0 l 74 956 l 264 956 l 264 0 l 74 0 m 29 1072 l 29 1233 l 310 1233 l 310 1072 l 29 1072 z "},"Į":{"ha":338,"x_min":53,"x_max":265,"o":"m 193 -272 q 85 -239 118 -272 q 53 -153 53 -206 q 74 -74 53 -115 q 131 0 96 -33 l 74 0 l 74 956 l 264 956 l 264 0 q 217 -54 239 -19 q 194 -119 194 -89 q 206 -158 194 -144 q 249 -172 218 -172 l 265 -171 l 265 -267 q 193 -272 226 -272 z "},"Ĩ":{"ha":338,"x_min":-46,"x_max":385,"o":"m 74 0 l 74 956 l 264 956 l 264 0 l 74 0 m 385 1233 q 379 1128 385 1164 q 352 1073 374 1093 q 282 1053 331 1053 q 158 1075 233 1053 q 124 1085 150 1078 q 83 1092 99 1092 q 61 1081 65 1092 q 57 1036 57 1069 l -46 1036 q -40 1142 -46 1106 q -12 1198 -35 1178 q 58 1218 10 1218 q 181 1194 104 1218 q 257 1179 236 1179 q 278 1190 275 1179 q 282 1233 282 1200 l 385 1233 z "},"J":{"ha":411,"x_min":15,"x_max":344,"o":"m 15 158 q 113 169 86 160 q 146 213 139 179 q 153 339 153 246 l 153 956 l 344 956 l 344 428 q 327 127 344 207 q 248 24 310 47 q 15 0 186 1 l 15 158 z "},"Ĵ":{"ha":411,"x_min":15,"x_max":443,"o":"m 15 158 q 113 169 86 160 q 146 213 139 179 q 153 339 153 246 l 153 956 l 344 956 l 344 428 q 327 127 344 207 q 248 24 310 47 q 15 0 186 1 l 15 158 m 54 1051 l 54 1063 l 158 1233 l 338 1233 l 443 1063 l 443 1051 l 319 1051 l 247 1150 l 176 1051 l 54 1051 z "},"K":{"ha":683,"x_min":72,"x_max":672,"o":"m 467 0 l 317 399 l 264 399 l 264 0 l 72 0 l 72 956 l 264 956 l 264 571 l 317 571 l 471 956 l 668 956 l 469 499 l 672 0 l 467 0 z "},"Ķ":{"ha":683,"x_min":72,"x_max":672,"o":"m 467 0 l 317 399 l 264 399 l 264 0 l 72 0 l 72 956 l 264 956 l 264 571 l 317 571 l 471 956 l 668 956 l 469 499 l 672 0 l 467 0 m 247 -322 q 308 -309 293 -322 q 322 -257 322 -296 l 322 -237 l 253 -237 l 253 -86 l 438 -86 l 438 -186 q 425 -322 438 -278 q 373 -383 413 -365 q 247 -401 333 -401 l 247 -322 z "},"L":{"ha":526,"x_min":72,"x_max":506,"o":"m 72 0 l 72 956 l 264 956 l 264 174 l 506 174 l 506 0 l 72 0 z "},"Ǉ":{"ha":938,"x_min":72,"x_max":871,"o":"m 72 0 l 72 956 l 264 956 l 264 174 l 506 174 l 506 0 l 72 0 m 542 158 q 639 169 613 160 q 672 213 665 179 q 679 339 679 246 l 679 956 l 871 956 l 871 428 q 853 127 871 207 q 774 24 836 47 q 542 0 713 1 l 542 158 z "},"Ĺ":{"ha":526,"x_min":72,"x_max":506,"o":"m 72 0 l 72 956 l 264 956 l 264 174 l 506 174 l 506 0 l 72 0 m 99 1031 l 99 1038 l 172 1233 l 350 1233 l 350 1226 l 240 1031 l 99 1031 z "},"Ľ":{"ha":526,"x_min":72,"x_max":567,"o":"m 72 0 l 72 956 l 264 956 l 264 174 l 506 174 l 506 0 l 72 0 m 376 607 l 399 893 l 399 968 l 567 968 l 567 893 l 506 607 l 376 607 z "},"Ļ":{"ha":526,"x_min":72,"x_max":506,"o":"m 72 0 l 72 956 l 264 956 l 264 174 l 506 174 l 506 0 l 72 0 m 181 -322 q 241 -309 226 -322 q 256 -257 256 -296 l 256 -237 l 186 -237 l 186 -86 l 371 -86 l 371 -186 q 358 -322 371 -278 q 306 -383 346 -365 q 181 -401 267 -401 l 181 -322 z "},"Ŀ":{"ha":561,"x_min":72,"x_max":556,"o":"m 72 0 l 72 956 l 264 956 l 264 174 l 506 174 l 506 0 l 72 0 m 360 417 l 360 599 l 556 599 l 556 417 l 360 417 z "},"ǈ":{"ha":833,"x_min":72,"x_max":771,"o":"m 72 0 l 72 956 l 264 956 l 264 174 l 506 174 l 506 0 l 72 0 m 589 863 l 589 1032 l 771 1032 l 771 863 l 589 863 m 507 -136 q 564 -129 546 -136 q 586 -108 582 -122 q 590 -64 590 -94 l 590 708 l 769 708 l 769 10 q 748 -180 769 -122 q 674 -255 726 -237 q 507 -272 622 -272 l 507 -136 z "},"Ł":{"ha":526,"x_min":13,"x_max":506,"o":"m 264 174 l 506 174 l 506 0 l 72 0 l 72 358 l 13 336 l 13 490 l 72 513 l 72 956 l 264 956 l 264 585 l 411 640 l 411 486 l 264 431 l 264 174 z "},"M":{"ha":976,"x_min":72,"x_max":904,"o":"m 719 0 l 719 704 l 711 704 l 574 0 l 397 0 l 263 704 l 251 704 l 251 0 l 72 0 l 72 956 l 361 956 l 486 294 l 496 294 l 619 956 l 904 956 l 904 0 l 719 0 z "},"N":{"ha":726,"x_min":72,"x_max":654,"o":"m 482 0 l 260 524 l 254 524 l 254 0 l 72 0 l 72 956 l 257 956 l 464 472 l 471 472 l 471 956 l 654 956 l 654 0 l 482 0 z "},"Ǌ":{"ha":1138,"x_min":72,"x_max":1071,"o":"m 482 0 l 260 524 l 254 524 l 254 0 l 72 0 l 72 956 l 257 956 l 464 472 l 471 472 l 471 956 l 654 956 l 654 0 l 482 0 m 742 158 q 839 169 813 160 q 872 213 865 179 q 879 339 879 246 l 879 956 l 1071 956 l 1071 428 q 1053 127 1071 207 q 974 24 1036 47 q 742 0 913 1 l 742 158 z "},"Ń":{"ha":726,"x_min":72,"x_max":654,"o":"m 482 0 l 260 524 l 254 524 l 254 0 l 72 0 l 72 956 l 257 956 l 464 472 l 471 472 l 471 956 l 654 956 l 654 0 l 482 0 m 286 1031 l 286 1038 l 360 1233 l 538 1233 l 538 1226 l 428 1031 l 286 1031 z "},"Ň":{"ha":726,"x_min":72,"x_max":654,"o":"m 482 0 l 260 524 l 254 524 l 254 0 l 72 0 l 72 956 l 257 956 l 464 472 l 471 472 l 471 956 l 654 956 l 654 0 l 482 0 m 275 1050 l 171 1222 l 171 1233 l 293 1233 l 364 1135 l 436 1233 l 558 1233 l 558 1222 l 453 1050 l 275 1050 z "},"Ņ":{"ha":726,"x_min":72,"x_max":654,"o":"m 482 0 l 260 524 l 254 524 l 254 0 l 72 0 l 72 956 l 257 956 l 464 472 l 471 472 l 471 956 l 654 956 l 654 0 l 482 0 m 269 -322 q 330 -309 315 -322 q 344 -257 344 -296 l 344 -237 l 275 -237 l 275 -86 l 460 -86 l 460 -186 q 447 -322 460 -278 q 395 -383 435 -365 q 269 -401 356 -401 l 269 -322 z "},"Ṅ":{"ha":726,"x_min":72,"x_max":654,"o":"m 482 0 l 260 524 l 254 524 l 254 0 l 72 0 l 72 956 l 257 956 l 464 472 l 471 472 l 471 956 l 654 956 l 654 0 l 482 0 m 288 1072 l 288 1215 l 442 1215 l 442 1072 l 288 1072 z "},"Ŋ":{"ha":726,"x_min":72,"x_max":654,"o":"m 654 956 l 654 -11 q 630 -186 653 -132 q 554 -256 607 -240 q 388 -272 501 -272 l 388 -136 q 444 -129 426 -136 q 467 -108 463 -122 q 472 -64 472 -93 l 472 32 l 260 524 l 254 524 l 254 0 l 72 0 l 72 956 l 257 956 l 464 472 l 471 472 l 471 956 l 654 956 z "},"Ɲ":{"ha":726,"x_min":-11,"x_max":654,"o":"m 654 956 l 654 0 l 482 0 l 260 524 l 254 524 l 254 10 q 233 -180 254 -122 q 158 -255 211 -237 q -11 -272 106 -272 l -11 -136 q 45 -129 28 -136 q 67 -108 63 -122 q 72 -64 72 -93 l 72 956 l 257 956 l 464 472 l 471 472 l 471 956 l 654 956 z "},"ǋ":{"ha":1033,"x_min":72,"x_max":971,"o":"m 482 0 l 260 524 l 254 524 l 254 0 l 72 0 l 72 956 l 257 956 l 464 472 l 471 472 l 471 956 l 654 956 l 654 0 l 482 0 m 789 863 l 789 1032 l 971 1032 l 971 863 l 789 863 m 707 -136 q 764 -129 746 -136 q 786 -108 782 -122 q 790 -64 790 -94 l 790 708 l 969 708 l 969 10 q 948 -180 969 -122 q 874 -255 926 -237 q 707 -272 822 -272 l 707 -136 z "},"Ñ":{"ha":726,"x_min":72,"x_max":654,"o":"m 482 0 l 260 524 l 254 524 l 254 0 l 72 0 l 72 956 l 257 956 l 464 472 l 471 472 l 471 956 l 654 956 l 654 0 l 482 0 m 578 1240 q 572 1135 578 1171 q 545 1080 567 1100 q 475 1060 524 1060 q 351 1082 426 1060 q 317 1092 343 1085 q 276 1099 292 1099 q 254 1088 258 1099 q 250 1043 250 1076 l 147 1043 q 153 1149 147 1113 q 181 1205 158 1185 q 251 1225 203 1225 q 374 1201 297 1225 q 450 1186 429 1186 q 472 1197 468 1186 q 475 1240 475 1207 l 578 1240 z "},"O":{"ha":703,"x_min":54,"x_max":649,"o":"m 351 -11 q 146 31 207 -11 q 69 167 85 74 q 54 478 54 261 q 69 789 54 696 q 146 924 85 882 q 351 967 207 967 q 557 924 496 967 q 633 789 618 882 q 649 478 649 696 q 633 167 649 261 q 557 31 618 74 q 351 -11 496 -11 m 351 157 q 426 172 407 157 q 451 247 446 188 q 457 478 457 307 q 451 708 457 649 q 426 783 446 768 q 351 799 407 799 q 276 783 296 799 q 251 708 257 768 q 246 478 246 649 q 251 247 246 307 q 276 172 257 188 q 351 157 296 157 z "},"Ó":{"ha":703,"x_min":54,"x_max":649,"o":"m 351 -11 q 146 31 207 -11 q 69 167 85 74 q 54 478 54 261 q 69 789 54 696 q 146 924 85 882 q 351 967 207 967 q 557 924 496 967 q 633 789 618 882 q 649 478 649 696 q 633 167 649 261 q 557 31 618 74 q 351 -11 496 -11 m 351 157 q 426 172 407 157 q 451 247 446 188 q 457 478 457 307 q 451 708 457 649 q 426 783 446 768 q 351 799 407 799 q 276 783 296 799 q 251 708 257 768 q 246 478 246 649 q 251 247 246 307 q 276 172 257 188 q 351 157 296 157 m 268 1042 l 268 1049 l 342 1244 l 519 1244 l 519 1238 l 410 1042 l 268 1042 z "},"Ŏ":{"ha":703,"x_min":54,"x_max":649,"o":"m 351 -11 q 146 31 207 -11 q 69 167 85 74 q 54 478 54 261 q 69 789 54 696 q 146 924 85 882 q 351 967 207 967 q 557 924 496 967 q 633 789 618 882 q 649 478 649 696 q 633 167 649 261 q 557 31 618 74 q 351 -11 496 -11 m 351 157 q 426 172 407 157 q 451 247 446 188 q 457 478 457 307 q 451 708 457 649 q 426 783 446 768 q 351 799 407 799 q 276 783 296 799 q 251 708 257 768 q 246 478 246 649 q 251 247 246 307 q 276 172 257 188 q 351 157 296 157 m 532 1233 q 519 1131 532 1171 q 466 1067 506 1090 q 349 1044 426 1044 q 233 1067 272 1044 q 182 1131 194 1090 q 169 1233 169 1171 l 279 1233 q 283 1185 279 1201 q 301 1159 286 1169 q 349 1149 315 1149 q 410 1169 397 1149 q 422 1233 422 1189 l 532 1233 z "},"Ǒ":{"ha":703,"x_min":54,"x_max":649,"o":"m 351 -11 q 146 31 207 -11 q 69 167 85 74 q 54 478 54 261 q 69 789 54 696 q 146 924 85 882 q 351 967 207 967 q 557 924 496 967 q 633 789 618 882 q 649 478 649 696 q 633 167 649 261 q 557 31 618 74 q 351 -11 496 -11 m 351 157 q 426 172 407 157 q 451 247 446 188 q 457 478 457 307 q 451 708 457 649 q 426 783 446 768 q 351 799 407 799 q 276 783 296 799 q 251 708 257 768 q 246 478 246 649 q 251 247 246 307 q 276 172 257 188 q 351 157 296 157 m 263 1050 l 158 1222 l 158 1233 l 281 1233 l 351 1135 l 424 1233 l 546 1233 l 546 1222 l 440 1050 l 263 1050 z "},"Ô":{"ha":703,"x_min":54,"x_max":649,"o":"m 351 -11 q 146 31 207 -11 q 69 167 85 74 q 54 478 54 261 q 69 789 54 696 q 146 924 85 882 q 351 967 207 967 q 557 924 496 967 q 633 789 618 882 q 649 478 649 696 q 633 167 649 261 q 557 31 618 74 q 351 -11 496 -11 m 351 157 q 426 172 407 157 q 451 247 446 188 q 457 478 457 307 q 451 708 457 649 q 426 783 446 768 q 351 799 407 799 q 276 783 296 799 q 251 708 257 768 q 246 478 246 649 q 251 247 246 307 q 276 172 257 188 q 351 157 296 157 m 157 1042 l 157 1053 l 261 1224 l 440 1224 l 546 1053 l 546 1042 l 422 1042 l 350 1140 l 279 1042 l 157 1042 z "},"Ố":{"ha":703,"x_min":54,"x_max":649,"o":"m 351 -11 q 146 31 207 -11 q 69 167 85 74 q 54 478 54 261 q 69 789 54 696 q 146 924 85 882 q 351 967 207 967 q 557 924 496 967 q 633 789 618 882 q 649 478 649 696 q 633 167 649 261 q 557 31 618 74 q 351 -11 496 -11 m 351 157 q 426 172 407 157 q 451 247 446 188 q 457 478 457 307 q 451 708 457 649 q 426 783 446 768 q 351 799 407 799 q 276 783 296 799 q 251 708 257 768 q 246 478 246 649 q 251 247 246 307 q 276 172 257 188 q 351 157 296 157 m 158 1019 l 158 1031 l 263 1201 l 442 1201 l 547 1031 l 547 1019 l 424 1019 l 351 1118 l 281 1019 l 158 1019 m 382 1239 l 382 1246 l 456 1442 l 633 1442 l 633 1435 l 524 1239 l 382 1239 z "},"Ộ":{"ha":703,"x_min":54,"x_max":649,"o":"m 351 -11 q 146 31 207 -11 q 69 167 85 74 q 54 478 54 261 q 69 789 54 696 q 146 924 85 882 q 351 967 207 967 q 557 924 496 967 q 633 789 618 882 q 649 478 649 696 q 633 167 649 261 q 557 31 618 74 q 351 -11 496 -11 m 351 157 q 426 172 407 157 q 451 247 446 188 q 457 478 457 307 q 451 708 457 649 q 426 783 446 768 q 351 799 407 799 q 276 783 296 799 q 251 708 257 768 q 246 478 246 649 q 251 247 246 307 q 276 172 257 188 q 351 157 296 157 m 253 -268 l 253 -86 l 449 -86 l 449 -268 l 253 -268 m 157 1051 l 157 1063 l 261 1233 l 440 1233 l 546 1063 l 546 1051 l 422 1051 l 350 1150 l 279 1051 l 157 1051 z "},"Ồ":{"ha":703,"x_min":54,"x_max":649,"o":"m 351 -11 q 146 31 207 -11 q 69 167 85 74 q 54 478 54 261 q 69 789 54 696 q 146 924 85 882 q 351 967 207 967 q 557 924 496 967 q 633 789 618 882 q 649 478 649 696 q 633 167 649 261 q 557 31 618 74 q 351 -11 496 -11 m 351 157 q 426 172 407 157 q 451 247 446 188 q 457 478 457 307 q 451 708 457 649 q 426 783 446 768 q 351 799 407 799 q 276 783 296 799 q 251 708 257 768 q 246 478 246 649 q 251 247 246 307 q 276 172 257 188 q 351 157 296 157 m 147 1008 l 147 1019 l 251 1190 l 431 1190 l 536 1019 l 536 1008 l 413 1008 l 340 1107 l 269 1008 l 147 1008 m 413 1228 l 304 1424 l 304 1431 l 482 1431 l 556 1235 l 556 1228 l 413 1228 z "},"Ổ":{"ha":703,"x_min":54,"x_max":664,"o":"m 351 -11 q 146 31 207 -11 q 69 167 85 74 q 54 478 54 261 q 69 789 54 696 q 146 924 85 882 q 351 967 207 967 q 557 924 496 967 q 633 789 618 882 q 649 478 649 696 q 633 167 649 261 q 557 31 618 74 q 351 -11 496 -11 m 351 157 q 426 172 407 157 q 451 247 446 188 q 457 478 457 307 q 451 708 457 649 q 426 783 446 768 q 351 799 407 799 q 276 783 296 799 q 251 708 257 768 q 246 478 246 649 q 251 247 246 307 q 276 172 257 188 q 351 157 296 157 m 157 1010 l 157 1021 l 261 1192 l 440 1192 l 546 1021 l 546 1010 l 422 1010 l 350 1108 l 279 1010 l 157 1010 m 408 1247 q 420 1299 408 1283 q 464 1326 432 1314 l 482 1333 q 525 1354 514 1346 q 536 1376 536 1363 q 524 1396 536 1392 q 479 1400 513 1400 q 340 1396 407 1400 l 340 1499 q 493 1517 433 1517 q 620 1491 576 1517 q 664 1396 664 1465 q 650 1324 664 1349 q 594 1281 636 1300 l 572 1271 q 528 1248 536 1256 q 521 1219 521 1240 l 408 1219 l 408 1247 z "},"Ỗ":{"ha":703,"x_min":54,"x_max":649,"o":"m 351 -11 q 146 31 207 -11 q 69 167 85 74 q 54 478 54 261 q 69 789 54 696 q 146 924 85 882 q 351 967 207 967 q 557 924 496 967 q 633 789 618 882 q 649 478 649 696 q 633 167 649 261 q 557 31 618 74 q 351 -11 496 -11 m 351 157 q 426 172 407 157 q 451 247 446 188 q 457 478 457 307 q 451 708 457 649 q 426 783 446 768 q 351 799 407 799 q 276 783 296 799 q 251 708 257 768 q 246 478 246 649 q 251 247 246 307 q 276 172 257 188 q 351 157 296 157 m 154 1010 l 154 1021 l 258 1192 l 438 1192 l 543 1021 l 543 1010 l 419 1010 l 347 1108 l 276 1010 l 154 1010 m 567 1432 q 561 1327 567 1363 q 534 1272 556 1292 q 464 1251 513 1251 q 340 1274 415 1251 q 306 1283 332 1276 q 265 1290 281 1290 q 243 1279 247 1290 q 239 1235 239 1268 l 136 1235 q 142 1340 136 1304 q 169 1397 147 1376 q 240 1417 192 1417 q 363 1393 286 1417 q 439 1378 418 1378 q 460 1388 457 1378 q 464 1432 464 1399 l 567 1432 z "},"Ȍ":{"ha":703,"x_min":54,"x_max":649,"o":"m 351 -11 q 146 31 207 -11 q 69 167 85 74 q 54 478 54 261 q 69 789 54 696 q 146 924 85 882 q 351 967 207 967 q 557 924 496 967 q 633 789 618 882 q 649 478 649 696 q 633 167 649 261 q 557 31 618 74 q 351 -11 496 -11 m 351 157 q 426 172 407 157 q 451 247 446 188 q 457 478 457 307 q 451 708 457 649 q 426 783 446 768 q 351 799 407 799 q 276 783 296 799 q 251 708 257 768 q 246 478 246 649 q 251 247 246 307 q 276 172 257 188 q 351 157 296 157 m 314 1049 l 196 1049 l 106 1211 l 106 1217 l 251 1217 l 314 1054 l 314 1049 m 517 1049 l 399 1049 l 310 1211 l 310 1217 l 456 1217 l 517 1054 l 517 1049 z "},"Ö":{"ha":703,"x_min":54,"x_max":649,"o":"m 351 -11 q 146 31 207 -11 q 69 167 85 74 q 54 478 54 261 q 69 789 54 696 q 146 924 85 882 q 351 967 207 967 q 557 924 496 967 q 633 789 618 882 q 649 478 649 696 q 633 167 649 261 q 557 31 618 74 q 351 -11 496 -11 m 351 157 q 426 172 407 157 q 451 247 446 188 q 457 478 457 307 q 451 708 457 649 q 426 783 446 768 q 351 799 407 799 q 276 783 296 799 q 251 708 257 768 q 246 478 246 649 q 251 247 246 307 q 276 172 257 188 q 351 157 296 157 m 153 1082 l 153 1225 l 307 1225 l 307 1082 l 153 1082 m 396 1082 l 396 1225 l 550 1225 l 550 1082 l 396 1082 z "},"Ọ":{"ha":703,"x_min":54,"x_max":649,"o":"m 351 -11 q 146 31 207 -11 q 69 167 85 74 q 54 478 54 261 q 69 789 54 696 q 146 924 85 882 q 351 967 207 967 q 557 924 496 967 q 633 789 618 882 q 649 478 649 696 q 633 167 649 261 q 557 31 618 74 q 351 -11 496 -11 m 351 157 q 426 172 407 157 q 451 247 446 188 q 457 478 457 307 q 451 708 457 649 q 426 783 446 768 q 351 799 407 799 q 276 783 296 799 q 251 708 257 768 q 246 478 246 649 q 251 247 246 307 q 276 172 257 188 q 351 157 296 157 m 253 -268 l 253 -86 l 449 -86 l 449 -268 l 253 -268 z "},"Ò":{"ha":703,"x_min":54,"x_max":649,"o":"m 351 -11 q 146 31 207 -11 q 69 167 85 74 q 54 478 54 261 q 69 789 54 696 q 146 924 85 882 q 351 967 207 967 q 557 924 496 967 q 633 789 618 882 q 649 478 649 696 q 633 167 649 261 q 557 31 618 74 q 351 -11 496 -11 m 351 157 q 426 172 407 157 q 451 247 446 188 q 457 478 457 307 q 451 708 457 649 q 426 783 446 768 q 351 799 407 799 q 276 783 296 799 q 251 708 257 768 q 246 478 246 649 q 251 247 246 307 q 276 172 257 188 q 351 157 296 157 m 285 1042 l 176 1238 l 176 1244 l 354 1244 l 428 1049 l 428 1042 l 285 1042 z "},"Ỏ":{"ha":703,"x_min":54,"x_max":649,"o":"m 351 -11 q 146 31 207 -11 q 69 167 85 74 q 54 478 54 261 q 69 789 54 696 q 146 924 85 882 q 351 967 207 967 q 557 924 496 967 q 633 789 618 882 q 649 478 649 696 q 633 167 649 261 q 557 31 618 74 q 351 -11 496 -11 m 351 157 q 426 172 407 157 q 451 247 446 188 q 457 478 457 307 q 451 708 457 649 q 426 783 446 768 q 351 799 407 799 q 276 783 296 799 q 251 708 257 768 q 246 478 246 649 q 251 247 246 307 q 276 172 257 188 q 351 157 296 157 m 257 1036 q 269 1088 257 1072 q 313 1115 281 1103 l 331 1122 q 374 1144 364 1136 q 385 1165 385 1151 q 373 1185 385 1181 q 328 1189 361 1189 q 189 1183 249 1189 l 189 1288 q 342 1304 275 1304 q 469 1279 425 1304 q 513 1185 513 1254 q 499 1113 513 1138 q 443 1069 485 1089 l 421 1060 q 377 1037 385 1044 q 369 1007 369 1029 l 257 1007 l 257 1036 z "},"Ơ":{"ha":703,"x_min":54,"x_max":728,"o":"m 728 1085 l 728 1047 q 719 953 728 986 q 683 903 710 921 q 599 881 656 886 q 640 744 632 831 q 649 478 649 658 q 633 167 649 261 q 557 31 618 74 q 351 -11 496 -11 q 146 31 207 -11 q 69 167 85 74 q 54 478 54 261 q 69 789 54 696 q 146 924 85 882 q 351 967 207 967 q 479 956 433 967 l 525 956 q 594 969 578 956 q 611 1021 611 982 l 611 1085 l 728 1085 m 351 157 q 426 172 407 157 q 451 247 446 188 q 457 478 457 307 q 451 708 457 649 q 426 783 446 768 q 351 799 407 799 q 276 783 296 799 q 251 708 257 768 q 246 478 246 649 q 251 247 246 307 q 276 172 257 188 q 351 157 296 157 z "},"Ớ":{"ha":703,"x_min":54,"x_max":728,"o":"m 728 1085 l 728 1047 q 719 953 728 986 q 683 903 710 921 q 599 881 656 886 q 640 744 632 831 q 649 478 649 658 q 633 167 649 261 q 557 31 618 74 q 351 -11 496 -11 q 146 31 207 -11 q 69 167 85 74 q 54 478 54 261 q 69 789 54 696 q 146 924 85 882 q 351 967 207 967 q 479 956 433 967 l 525 956 q 594 969 578 956 q 611 1021 611 982 l 611 1085 l 728 1085 m 351 157 q 426 172 407 157 q 451 247 446 188 q 457 478 457 307 q 451 708 457 649 q 426 783 446 768 q 351 799 407 799 q 276 783 296 799 q 251 708 257 768 q 246 478 246 649 q 251 247 246 307 q 276 172 257 188 q 351 157 296 157 m 274 1031 l 274 1038 l 347 1233 l 525 1233 l 525 1226 l 415 1031 l 274 1031 z "},"Ợ":{"ha":703,"x_min":54,"x_max":728,"o":"m 728 1085 l 728 1047 q 719 953 728 986 q 683 903 710 921 q 599 881 656 886 q 640 744 632 831 q 649 478 649 658 q 633 167 649 261 q 557 31 618 74 q 351 -11 496 -11 q 146 31 207 -11 q 69 167 85 74 q 54 478 54 261 q 69 789 54 696 q 146 924 85 882 q 351 967 207 967 q 479 956 433 967 l 525 956 q 594 969 578 956 q 611 1021 611 982 l 611 1085 l 728 1085 m 351 157 q 426 172 407 157 q 451 247 446 188 q 457 478 457 307 q 451 708 457 649 q 426 783 446 768 q 351 799 407 799 q 276 783 296 799 q 251 708 257 768 q 246 478 246 649 q 251 247 246 307 q 276 172 257 188 q 351 157 296 157 m 253 -268 l 253 -86 l 449 -86 l 449 -268 l 253 -268 z "},"Ờ":{"ha":703,"x_min":54,"x_max":728,"o":"m 728 1085 l 728 1047 q 719 953 728 986 q 683 903 710 921 q 599 881 656 886 q 640 744 632 831 q 649 478 649 658 q 633 167 649 261 q 557 31 618 74 q 351 -11 496 -11 q 146 31 207 -11 q 69 167 85 74 q 54 478 54 261 q 69 789 54 696 q 146 924 85 882 q 351 967 207 967 q 479 956 433 967 l 525 956 q 594 969 578 956 q 611 1021 611 982 l 611 1085 l 728 1085 m 351 157 q 426 172 407 157 q 451 247 446 188 q 457 478 457 307 q 451 708 457 649 q 426 783 446 768 q 351 799 407 799 q 276 783 296 799 q 251 708 257 768 q 246 478 246 649 q 251 247 246 307 q 276 172 257 188 q 351 157 296 157 m 286 1031 l 178 1226 l 178 1233 l 356 1233 l 429 1038 l 429 1031 l 286 1031 z "},"Ở":{"ha":703,"x_min":54,"x_max":728,"o":"m 728 1085 l 728 1047 q 719 953 728 986 q 683 903 710 921 q 599 881 656 886 q 640 744 632 831 q 649 478 649 658 q 633 167 649 261 q 557 31 618 74 q 351 -11 496 -11 q 146 31 207 -11 q 69 167 85 74 q 54 478 54 261 q 69 789 54 696 q 146 924 85 882 q 351 967 207 967 q 479 956 433 967 l 525 956 q 594 969 578 956 q 611 1021 611 982 l 611 1085 l 728 1085 m 351 157 q 426 172 407 157 q 451 247 446 188 q 457 478 457 307 q 451 708 457 649 q 426 783 446 768 q 351 799 407 799 q 276 783 296 799 q 251 708 257 768 q 246 478 246 649 q 251 247 246 307 q 276 172 257 188 q 351 157 296 157 m 257 1036 q 269 1088 257 1072 q 313 1115 281 1103 l 331 1122 q 374 1144 364 1136 q 385 1165 385 1151 q 373 1185 385 1181 q 328 1189 361 1189 q 189 1183 249 1189 l 189 1288 q 342 1304 275 1304 q 469 1279 425 1304 q 513 1185 513 1254 q 499 1113 513 1138 q 443 1069 485 1089 l 421 1060 q 377 1037 385 1044 q 369 1007 369 1029 l 257 1007 l 257 1036 z "},"Ỡ":{"ha":703,"x_min":54,"x_max":728,"o":"m 728 1085 l 728 1047 q 719 953 728 986 q 683 903 710 921 q 599 881 656 886 q 640 744 632 831 q 649 478 649 658 q 633 167 649 261 q 557 31 618 74 q 351 -11 496 -11 q 146 31 207 -11 q 69 167 85 74 q 54 478 54 261 q 69 789 54 696 q 146 924 85 882 q 351 967 207 967 q 479 956 433 967 l 525 956 q 594 969 578 956 q 611 1021 611 982 l 611 1085 l 728 1085 m 351 157 q 426 172 407 157 q 451 247 446 188 q 457 478 457 307 q 451 708 457 649 q 426 783 446 768 q 351 799 407 799 q 276 783 296 799 q 251 708 257 768 q 246 478 246 649 q 251 247 246 307 q 276 172 257 188 q 351 157 296 157 m 567 1233 q 561 1128 567 1164 q 534 1073 556 1093 q 464 1053 513 1053 q 340 1075 415 1053 q 306 1085 332 1078 q 265 1092 281 1092 q 243 1081 247 1092 q 239 1036 239 1069 l 136 1036 q 142 1142 136 1106 q 169 1198 147 1178 q 240 1218 192 1218 q 363 1194 286 1218 q 439 1179 418 1179 q 460 1190 457 1179 q 464 1233 464 1200 l 567 1233 z "},"Ő":{"ha":703,"x_min":54,"x_max":649,"o":"m 351 -11 q 146 31 207 -11 q 69 167 85 74 q 54 478 54 261 q 69 789 54 696 q 146 924 85 882 q 351 967 207 967 q 557 924 496 967 q 633 789 618 882 q 649 478 649 696 q 633 167 649 261 q 557 31 618 74 q 351 -11 496 -11 m 351 157 q 426 172 407 157 q 451 247 446 188 q 457 478 457 307 q 451 708 457 649 q 426 783 446 768 q 351 799 407 799 q 276 783 296 799 q 251 708 257 768 q 246 478 246 649 q 251 247 246 307 q 276 172 257 188 q 351 157 296 157 m 194 1049 l 194 1054 l 256 1217 l 401 1217 l 401 1211 l 313 1049 l 194 1049 m 397 1049 l 397 1054 l 460 1217 l 606 1217 l 606 1211 l 515 1049 l 397 1049 z "},"Ȏ":{"ha":703,"x_min":54,"x_max":649,"o":"m 351 -11 q 146 31 207 -11 q 69 167 85 74 q 54 478 54 261 q 69 789 54 696 q 146 924 85 882 q 351 967 207 967 q 557 924 496 967 q 633 789 618 882 q 649 478 649 696 q 633 167 649 261 q 557 31 618 74 q 351 -11 496 -11 m 351 157 q 426 172 407 157 q 451 247 446 188 q 457 478 457 307 q 451 708 457 649 q 426 783 446 768 q 351 799 407 799 q 276 783 296 799 q 251 708 257 768 q 246 478 246 649 q 251 247 246 307 q 276 172 257 188 q 351 157 296 157 m 169 1053 q 183 1156 169 1115 q 235 1219 196 1196 q 353 1242 275 1242 q 468 1219 429 1242 q 519 1156 507 1196 q 532 1053 532 1115 l 422 1053 q 419 1101 422 1085 q 401 1127 415 1117 q 353 1138 386 1138 q 292 1117 304 1138 q 279 1053 279 1097 l 169 1053 z "},"Ō":{"ha":703,"x_min":54,"x_max":649,"o":"m 351 -11 q 146 31 207 -11 q 69 167 85 74 q 54 478 54 261 q 69 789 54 696 q 146 924 85 882 q 351 967 207 967 q 557 924 496 967 q 633 789 618 882 q 649 478 649 696 q 633 167 649 261 q 557 31 618 74 q 351 -11 496 -11 m 351 157 q 426 172 407 157 q 451 247 446 188 q 457 478 457 307 q 451 708 457 649 q 426 783 446 768 q 351 799 407 799 q 276 783 296 799 q 251 708 257 768 q 246 478 246 649 q 251 247 246 307 q 276 172 257 188 q 351 157 296 157 m 211 1072 l 211 1233 l 492 1233 l 492 1072 l 211 1072 z "},"Ǫ":{"ha":703,"x_min":54,"x_max":649,"o":"m 471 -272 q 363 -240 396 -272 q 329 -156 329 -207 q 386 -10 329 -85 q 351 -11 375 -11 q 146 31 207 -11 q 69 167 85 74 q 54 478 54 260 q 69 789 54 696 q 146 924 85 882 q 351 967 207 967 q 556 924 494 967 q 633 788 618 882 q 649 478 649 694 q 644 255 649 333 q 620 122 639 176 q 561 36 601 67 q 495 -35 521 7 q 469 -122 469 -76 q 522 -172 469 -172 l 542 -171 l 542 -267 q 471 -272 510 -272 m 351 157 q 426 172 407 157 q 451 248 446 188 q 457 478 457 308 q 451 708 457 647 q 426 783 446 768 q 351 799 407 799 q 276 783 296 799 q 251 708 257 768 q 246 478 246 649 q 251 247 246 307 q 276 172 257 188 q 351 157 296 157 z "},"Ø":{"ha":703,"x_min":54,"x_max":649,"o":"m 592 892 q 639 753 629 842 q 649 478 649 664 q 633 167 649 261 q 557 31 618 74 q 351 -11 496 -11 q 240 -3 288 -11 l 213 -76 l 54 -76 l 110 65 q 64 204 74 115 q 54 478 54 293 q 69 789 54 696 q 146 924 85 882 q 351 967 207 967 q 461 960 408 967 l 489 1032 l 649 1032 l 592 892 m 351 157 q 426 172 407 157 q 451 247 446 188 q 457 478 457 307 q 451 708 457 649 q 426 783 446 768 q 351 799 407 799 q 276 783 296 799 q 251 708 257 768 q 246 478 246 649 q 251 247 246 307 q 276 172 257 188 q 351 157 296 157 z "},"Ǿ":{"ha":703,"x_min":54,"x_max":649,"o":"m 592 892 q 639 753 629 842 q 649 478 649 664 q 633 167 649 261 q 557 31 618 74 q 351 -11 496 -11 q 240 -3 288 -11 l 213 -76 l 54 -76 l 110 65 q 64 204 74 115 q 54 478 54 293 q 69 789 54 696 q 146 924 85 882 q 351 967 207 967 q 461 960 408 967 l 489 1032 l 649 1032 l 592 892 m 351 157 q 426 172 407 157 q 451 247 446 188 q 457 478 457 307 q 451 708 457 649 q 426 783 446 768 q 351 799 407 799 q 276 783 296 799 q 251 708 257 768 q 246 478 246 649 q 251 247 246 307 q 276 172 257 188 q 351 157 296 157 m 250 1031 l 250 1038 l 324 1233 l 501 1233 l 501 1226 l 392 1031 l 250 1031 z "},"Õ":{"ha":703,"x_min":54,"x_max":649,"o":"m 351 -11 q 146 31 207 -11 q 69 167 85 74 q 54 478 54 261 q 69 789 54 696 q 146 924 85 882 q 351 967 207 967 q 557 924 496 967 q 633 789 618 882 q 649 478 649 696 q 633 167 649 261 q 557 31 618 74 q 351 -11 496 -11 m 351 157 q 426 172 407 157 q 451 247 446 188 q 457 478 457 307 q 451 708 457 649 q 426 783 446 768 q 351 799 407 799 q 276 783 296 799 q 251 708 257 768 q 246 478 246 649 q 251 247 246 307 q 276 172 257 188 q 351 157 296 157 m 567 1239 q 561 1134 567 1169 q 534 1078 556 1099 q 464 1058 513 1058 q 340 1081 415 1058 q 306 1090 332 1083 q 265 1097 281 1097 q 243 1086 247 1097 q 239 1042 239 1075 l 136 1042 q 142 1147 136 1111 q 169 1203 147 1183 q 240 1224 192 1224 q 363 1200 286 1224 q 439 1185 418 1185 q 460 1195 457 1185 q 464 1239 464 1206 l 567 1239 z "},"Œ":{"ha":993,"x_min":54,"x_max":943,"o":"m 351 0 q 146 42 207 0 q 69 174 85 83 q 54 478 54 265 q 69 781 54 690 q 146 914 85 872 q 351 956 207 956 l 943 956 l 943 788 l 697 788 q 619 794 651 788 q 649 567 644 722 l 907 567 l 907 397 l 649 397 q 619 160 646 235 q 697 168 658 168 l 943 168 l 943 0 l 351 0 m 351 168 q 426 183 407 168 q 451 255 446 197 q 457 478 457 313 q 451 699 457 642 q 426 772 446 757 q 351 788 407 788 q 276 773 296 788 q 251 701 257 758 q 246 478 246 643 q 251 255 246 313 q 276 183 257 197 q 351 168 296 168 z "},"P":{"ha":660,"x_min":72,"x_max":629,"o":"m 72 956 l 388 956 q 541 919 489 956 q 611 815 593 883 q 629 632 629 746 q 613 453 629 522 q 543 345 596 385 q 386 306 490 306 l 264 306 l 264 0 l 72 0 l 72 956 m 339 474 q 406 485 386 474 q 431 527 425 496 q 438 632 438 558 q 431 736 438 706 q 406 777 425 767 q 340 788 388 788 l 264 788 l 264 474 l 339 474 z "},"Þ":{"ha":660,"x_min":72,"x_max":629,"o":"m 72 956 l 264 956 l 264 813 l 388 813 q 541 776 489 813 q 611 672 593 740 q 629 489 629 604 q 613 311 629 379 q 542 203 596 243 q 386 164 489 164 l 264 164 l 264 0 l 72 0 l 72 956 m 339 332 q 405 343 385 332 q 431 385 425 354 q 438 489 438 415 q 431 593 438 563 q 406 634 425 624 q 340 644 388 644 l 264 644 l 264 332 l 339 332 z "},"Q":{"ha":703,"x_min":54,"x_max":699,"o":"m 411 -8 q 351 -11 375 -11 q 146 31 207 -11 q 69 167 85 74 q 54 478 54 260 q 69 789 54 696 q 146 924 85 882 q 351 967 207 967 q 556 924 494 967 q 633 788 618 882 q 649 478 649 694 q 635 190 649 282 q 574 50 622 99 l 699 -153 l 699 -160 l 497 -160 l 411 -8 m 351 157 q 426 172 407 157 q 451 248 446 188 q 457 478 457 308 q 451 708 457 647 q 426 783 446 768 q 351 799 407 799 q 276 783 296 799 q 251 708 257 768 q 246 478 246 649 q 251 247 246 307 q 276 172 257 188 q 351 157 296 157 z "},"R":{"ha":686,"x_min":72,"x_max":658,"o":"m 460 0 l 367 333 l 264 333 l 264 0 l 72 0 l 72 956 l 394 956 q 549 921 497 956 q 619 821 601 886 q 638 646 638 756 q 619 474 638 542 q 543 371 600 406 l 658 0 l 460 0 m 349 499 q 414 509 394 499 q 440 548 433 519 q 446 644 446 576 q 440 739 446 711 q 414 777 433 767 q 349 788 394 788 l 264 788 l 264 499 l 349 499 z "},"Ŕ":{"ha":686,"x_min":72,"x_max":658,"o":"m 460 0 l 367 333 l 264 333 l 264 0 l 72 0 l 72 956 l 394 956 q 549 921 497 956 q 619 821 601 886 q 638 646 638 756 q 619 474 638 542 q 543 371 600 406 l 658 0 l 460 0 m 349 499 q 414 509 394 499 q 440 548 433 519 q 446 644 446 576 q 440 739 446 711 q 414 777 433 767 q 349 788 394 788 l 264 788 l 264 499 l 349 499 m 265 1031 l 265 1038 l 339 1233 l 517 1233 l 517 1226 l 407 1031 l 265 1031 z "},"Ř":{"ha":686,"x_min":72,"x_max":658,"o":"m 460 0 l 367 333 l 264 333 l 264 0 l 72 0 l 72 956 l 394 956 q 549 921 497 956 q 619 821 601 886 q 638 646 638 756 q 619 474 638 542 q 543 371 600 406 l 658 0 l 460 0 m 349 499 q 414 509 394 499 q 440 548 433 519 q 446 644 446 576 q 440 739 446 711 q 414 777 433 767 q 349 788 394 788 l 264 788 l 264 499 l 349 499 m 254 1050 l 150 1222 l 150 1233 l 272 1233 l 343 1135 l 415 1233 l 538 1233 l 538 1222 l 432 1050 l 254 1050 z "},"Ŗ":{"ha":686,"x_min":72,"x_max":658,"o":"m 460 0 l 367 333 l 264 333 l 264 0 l 72 0 l 72 956 l 394 956 q 549 921 497 956 q 619 821 601 886 q 638 646 638 756 q 619 474 638 542 q 543 371 600 406 l 658 0 l 460 0 m 349 499 q 414 509 394 499 q 440 548 433 519 q 446 644 446 576 q 440 739 446 711 q 414 777 433 767 q 349 788 394 788 l 264 788 l 264 499 l 349 499 m 249 -322 q 309 -309 294 -322 q 324 -257 324 -296 l 324 -237 l 254 -237 l 254 -86 l 439 -86 l 439 -186 q 426 -322 439 -278 q 374 -383 414 -365 q 249 -401 335 -401 l 249 -322 z "},"Ȑ":{"ha":686,"x_min":72,"x_max":658,"o":"m 460 0 l 367 333 l 264 333 l 264 0 l 72 0 l 72 956 l 394 956 q 549 921 497 956 q 619 821 601 886 q 638 646 638 756 q 619 474 638 542 q 543 371 600 406 l 658 0 l 460 0 m 349 499 q 414 509 394 499 q 440 548 433 519 q 446 644 446 576 q 440 739 446 711 q 414 777 433 767 q 349 788 394 788 l 264 788 l 264 499 l 349 499 m 306 1049 l 188 1049 l 97 1211 l 97 1217 l 243 1217 l 306 1054 l 306 1049 m 508 1049 l 390 1049 l 301 1211 l 301 1217 l 447 1217 l 508 1054 l 508 1049 z "},"Ṛ":{"ha":686,"x_min":72,"x_max":658,"o":"m 460 0 l 367 333 l 264 333 l 264 0 l 72 0 l 72 956 l 394 956 q 549 921 497 956 q 619 821 601 886 q 638 646 638 756 q 619 474 638 542 q 543 371 600 406 l 658 0 l 460 0 m 349 499 q 414 509 394 499 q 440 548 433 519 q 446 644 446 576 q 440 739 446 711 q 414 777 433 767 q 349 788 394 788 l 264 788 l 264 499 l 349 499 m 244 -268 l 244 -86 l 440 -86 l 440 -268 l 244 -268 z "},"Ȓ":{"ha":686,"x_min":72,"x_max":658,"o":"m 460 0 l 367 333 l 264 333 l 264 0 l 72 0 l 72 956 l 394 956 q 549 921 497 956 q 619 821 601 886 q 638 646 638 756 q 619 474 638 542 q 543 371 600 406 l 658 0 l 460 0 m 349 499 q 414 509 394 499 q 440 548 433 519 q 446 644 446 576 q 440 739 446 711 q 414 777 433 767 q 349 788 394 788 l 264 788 l 264 499 l 349 499 m 161 1053 q 174 1156 161 1115 q 227 1219 188 1196 q 344 1242 267 1242 q 460 1219 421 1242 q 511 1156 499 1196 q 524 1053 524 1115 l 414 1053 q 410 1101 414 1085 q 392 1127 407 1117 q 344 1138 378 1138 q 283 1117 296 1138 q 271 1053 271 1097 l 161 1053 z "},"S":{"ha":615,"x_min":42,"x_max":575,"o":"m 307 -11 q 180 -5 249 -11 q 58 13 111 1 l 58 168 q 254 157 200 157 q 328 163 303 157 q 365 182 353 168 q 380 213 376 193 q 383 271 383 233 q 378 344 383 322 q 355 376 372 365 q 294 394 338 386 l 164 418 q 68 494 94 431 q 42 679 42 558 q 76 860 42 797 q 169 944 110 922 q 321 967 229 967 q 444 958 385 967 q 540 942 503 950 l 540 786 q 372 799 465 799 q 295 794 322 799 q 256 779 268 790 q 236 747 240 768 q 232 686 232 726 q 237 624 232 643 q 254 596 242 604 q 297 582 267 588 l 419 560 q 502 530 468 553 q 556 454 536 507 q 575 297 575 399 q 543 99 575 165 q 455 10 511 32 q 307 -11 399 -11 z "},"Ś":{"ha":615,"x_min":42,"x_max":575,"o":"m 307 -11 q 180 -5 249 -11 q 58 13 111 1 l 58 168 q 254 157 200 157 q 328 163 303 157 q 365 182 353 168 q 380 213 376 193 q 383 271 383 233 q 378 344 383 322 q 355 376 372 365 q 294 394 338 386 l 164 418 q 68 494 94 431 q 42 679 42 558 q 76 860 42 797 q 169 944 110 922 q 321 967 229 967 q 444 958 385 967 q 540 942 503 950 l 540 786 q 372 799 465 799 q 295 794 322 799 q 256 779 268 790 q 236 747 240 768 q 232 686 232 726 q 237 624 232 643 q 254 596 242 604 q 297 582 267 588 l 419 560 q 502 530 468 553 q 556 454 536 507 q 575 297 575 399 q 543 99 575 165 q 455 10 511 32 q 307 -11 399 -11 m 231 1031 l 231 1038 l 304 1233 l 482 1233 l 482 1226 l 372 1031 l 231 1031 z "},"Ꞌ":{"ha":235,"x_min":33,"x_max":201,"o":"m 33 372 l 33 956 l 201 956 l 201 724 l 163 372 l 33 372 z "},"Š":{"ha":615,"x_min":42,"x_max":575,"o":"m 307 -11 q 180 -5 249 -11 q 58 13 111 1 l 58 168 q 254 157 200 157 q 328 163 303 157 q 365 182 353 168 q 380 213 376 193 q 383 271 383 233 q 378 344 383 322 q 355 376 372 365 q 294 394 338 386 l 164 418 q 68 494 94 431 q 42 679 42 558 q 76 860 42 797 q 169 944 110 922 q 321 967 229 967 q 444 958 385 967 q 540 942 503 950 l 540 786 q 372 799 465 799 q 295 794 322 799 q 256 779 268 790 q 236 747 240 768 q 232 686 232 726 q 237 624 232 643 q 254 596 242 604 q 297 582 267 588 l 419 560 q 502 530 468 553 q 556 454 536 507 q 575 297 575 399 q 543 99 575 165 q 455 10 511 32 q 307 -11 399 -11 m 224 1040 l 119 1213 l 119 1224 l 242 1224 l 313 1125 l 385 1224 l 507 1224 l 507 1213 l 401 1040 l 224 1040 z "},"Ş":{"ha":615,"x_min":42,"x_max":575,"o":"m 575 297 q 551 117 575 182 q 481 24 526 51 q 367 -8 436 -3 l 321 -262 l 164 -262 l 164 -256 l 246 -10 q 58 13 128 -3 l 58 168 q 254 157 200 157 q 328 163 303 157 q 365 182 353 168 q 380 213 376 193 q 383 271 383 233 q 378 344 383 322 q 355 376 372 365 q 294 394 338 386 l 164 418 q 68 494 94 431 q 42 679 42 558 q 76 860 42 797 q 169 944 110 922 q 321 967 229 967 q 444 958 385 967 q 540 942 503 950 l 540 786 q 372 799 465 799 q 295 794 322 799 q 256 779 268 790 q 236 747 240 768 q 232 686 232 726 q 237 624 232 643 q 254 596 242 604 q 297 582 267 588 l 419 560 q 502 530 468 553 q 556 454 536 507 q 575 297 575 399 z "},"Ŝ":{"ha":615,"x_min":42,"x_max":575,"o":"m 307 -11 q 180 -5 249 -11 q 58 13 111 1 l 58 168 q 254 157 200 157 q 328 163 303 157 q 365 182 353 168 q 380 213 376 193 q 383 271 383 233 q 378 344 383 322 q 355 376 372 365 q 294 394 338 386 l 164 418 q 68 494 94 431 q 42 679 42 558 q 76 860 42 797 q 169 944 110 922 q 321 967 229 967 q 444 958 385 967 q 540 942 503 950 l 540 786 q 372 799 465 799 q 295 794 322 799 q 256 779 268 790 q 236 747 240 768 q 232 686 232 726 q 237 624 232 643 q 254 596 242 604 q 297 582 267 588 l 419 560 q 502 530 468 553 q 556 454 536 507 q 575 297 575 399 q 543 99 575 165 q 455 10 511 32 q 307 -11 399 -11 m 114 1051 l 114 1063 l 218 1233 l 397 1233 l 503 1063 l 503 1051 l 379 1051 l 307 1150 l 236 1051 l 114 1051 z "},"Ș":{"ha":615,"x_min":42,"x_max":575,"o":"m 307 -11 q 180 -5 249 -11 q 58 13 111 1 l 58 168 q 254 157 200 157 q 328 163 303 157 q 365 182 353 168 q 380 213 376 193 q 383 271 383 233 q 378 344 383 322 q 355 376 372 365 q 294 394 338 386 l 164 418 q 68 494 94 431 q 42 679 42 558 q 76 860 42 797 q 169 944 110 922 q 321 967 229 967 q 444 958 385 967 q 540 942 503 950 l 540 786 q 372 799 465 799 q 295 794 322 799 q 256 779 268 790 q 236 747 240 768 q 232 686 232 726 q 237 624 232 643 q 254 596 242 604 q 297 582 267 588 l 419 560 q 502 530 468 553 q 556 454 536 507 q 575 297 575 399 q 543 99 575 165 q 455 10 511 32 q 307 -11 399 -11 m 214 -322 q 274 -309 260 -322 q 289 -257 289 -296 l 289 -237 l 219 -237 l 219 -86 l 404 -86 l 404 -186 q 392 -322 404 -278 q 340 -383 379 -365 q 214 -401 300 -401 l 214 -322 z "},"Ṣ":{"ha":615,"x_min":42,"x_max":575,"o":"m 307 -11 q 180 -5 249 -11 q 58 13 111 1 l 58 168 q 254 157 200 157 q 328 163 303 157 q 365 182 353 168 q 380 213 376 193 q 383 271 383 233 q 378 344 383 322 q 355 376 372 365 q 294 394 338 386 l 164 418 q 68 494 94 431 q 42 679 42 558 q 76 860 42 797 q 169 944 110 922 q 321 967 229 967 q 444 958 385 967 q 540 942 503 950 l 540 786 q 372 799 465 799 q 295 794 322 799 q 256 779 268 790 q 236 747 240 768 q 232 686 232 726 q 237 624 232 643 q 254 596 242 604 q 297 582 267 588 l 419 560 q 502 530 468 553 q 556 454 536 507 q 575 297 575 399 q 543 99 575 165 q 455 10 511 32 q 307 -11 399 -11 m 210 -268 l 210 -86 l 406 -86 l 406 -268 l 210 -268 z "},"ẞ":{"ha":794,"x_min":67,"x_max":750,"o":"m 551 535 q 701 459 651 522 q 750 251 750 396 q 724 99 750 156 q 640 15 699 42 q 482 -11 582 -11 q 402 -4 447 -11 q 324 14 357 3 l 324 168 q 432 157 382 157 q 511 164 486 157 q 547 195 536 171 q 558 274 558 219 q 549 355 558 328 q 517 391 539 382 q 450 400 494 400 l 353 400 l 353 539 l 501 793 q 406 799 457 799 q 303 779 332 799 q 265 701 274 760 q 257 489 257 642 l 257 0 l 67 0 l 67 489 q 90 788 67 690 q 181 926 113 885 q 392 967 249 967 q 704 936 533 967 l 704 796 l 551 535 z "},"Ə":{"ha":699,"x_min":54,"x_max":644,"o":"m 325 967 q 534 923 467 967 q 623 779 601 879 q 644 478 644 679 q 629 167 644 260 q 553 31 614 74 q 349 -11 492 -11 q 145 31 206 -11 q 69 167 85 74 q 54 478 54 260 l 54 567 l 453 567 q 439 723 451 676 q 393 784 426 769 q 282 799 360 799 q 129 789 204 799 l 129 943 q 219 960 165 954 q 325 967 272 967 m 349 157 q 423 169 403 157 q 451 228 443 181 q 460 399 458 276 l 239 399 q 247 228 240 276 q 274 169 254 181 q 349 157 294 157 z "},"T":{"ha":581,"x_min":14,"x_max":567,"o":"m 194 0 l 194 782 l 14 782 l 14 956 l 567 956 l 567 782 l 386 782 l 386 0 l 194 0 z "},"Ŧ":{"ha":581,"x_min":14,"x_max":567,"o":"m 567 782 l 386 782 l 386 554 l 538 554 l 538 404 l 386 404 l 386 0 l 194 0 l 194 404 l 43 404 l 43 554 l 194 554 l 194 782 l 14 782 l 14 956 l 567 956 l 567 782 z "},"Ť":{"ha":581,"x_min":14,"x_max":567,"o":"m 194 0 l 194 782 l 14 782 l 14 956 l 567 956 l 567 782 l 386 782 l 386 0 l 194 0 m 201 1050 l 97 1222 l 97 1233 l 219 1233 l 290 1135 l 363 1233 l 485 1233 l 485 1222 l 379 1050 l 201 1050 z "},"Ţ":{"ha":581,"x_min":14,"x_max":567,"o":"m 14 956 l 567 956 l 567 782 l 386 782 l 386 0 l 350 0 l 303 -262 l 146 -262 l 146 -256 l 231 0 l 194 0 l 194 782 l 14 782 l 14 956 z "},"Ț":{"ha":581,"x_min":14,"x_max":567,"o":"m 194 0 l 194 782 l 14 782 l 14 956 l 567 956 l 567 782 l 386 782 l 386 0 l 194 0 m 196 -322 q 256 -309 242 -322 q 271 -257 271 -296 l 271 -237 l 201 -237 l 201 -86 l 386 -86 l 386 -186 q 374 -322 386 -278 q 322 -383 361 -365 q 196 -401 282 -401 l 196 -322 z "},"Ṭ":{"ha":581,"x_min":14,"x_max":567,"o":"m 194 0 l 194 782 l 14 782 l 14 956 l 567 956 l 567 782 l 386 782 l 386 0 l 194 0 m 192 -268 l 192 -86 l 388 -86 l 388 -268 l 192 -268 z "},"U":{"ha":703,"x_min":67,"x_max":636,"o":"m 636 956 l 636 424 q 620 149 636 235 q 545 26 604 64 q 351 -11 486 -11 q 158 26 217 -11 q 83 149 99 64 q 67 424 67 235 l 67 956 l 257 956 l 257 360 q 262 220 257 258 q 285 169 267 182 q 351 157 304 157 q 417 169 399 157 q 440 219 435 182 q 444 360 444 257 l 444 956 l 636 956 z "},"Ú":{"ha":703,"x_min":67,"x_max":636,"o":"m 636 956 l 636 424 q 620 149 636 235 q 545 26 604 64 q 351 -11 486 -11 q 158 26 217 -11 q 83 149 99 64 q 67 424 67 235 l 67 956 l 257 956 l 257 360 q 262 220 257 258 q 285 169 267 182 q 351 157 304 157 q 417 169 399 157 q 440 219 435 182 q 444 360 444 257 l 444 956 l 636 956 m 276 1042 l 276 1049 l 350 1244 l 528 1244 l 528 1238 l 418 1042 l 276 1042 z "},"Ŭ":{"ha":703,"x_min":67,"x_max":636,"o":"m 636 956 l 636 424 q 620 149 636 235 q 545 26 604 64 q 351 -11 486 -11 q 158 26 217 -11 q 83 149 99 64 q 67 424 67 235 l 67 956 l 257 956 l 257 360 q 262 220 257 258 q 285 169 267 182 q 351 157 304 157 q 417 169 399 157 q 440 219 435 182 q 444 360 444 257 l 444 956 l 636 956 m 532 1233 q 519 1131 532 1171 q 466 1067 506 1090 q 349 1044 426 1044 q 233 1067 272 1044 q 182 1131 194 1090 q 169 1233 169 1171 l 279 1233 q 283 1185 279 1201 q 301 1159 286 1169 q 349 1149 315 1149 q 410 1169 397 1149 q 422 1233 422 1189 l 532 1233 z "},"Ǔ":{"ha":703,"x_min":67,"x_max":636,"o":"m 636 956 l 636 424 q 620 149 636 235 q 545 26 604 64 q 351 -11 486 -11 q 158 26 217 -11 q 83 149 99 64 q 67 424 67 235 l 67 956 l 257 956 l 257 360 q 262 220 257 258 q 285 169 267 182 q 351 157 304 157 q 417 169 399 157 q 440 219 435 182 q 444 360 444 257 l 444 956 l 636 956 m 263 1050 l 158 1222 l 158 1233 l 281 1233 l 351 1135 l 424 1233 l 546 1233 l 546 1222 l 440 1050 l 263 1050 z "},"Û":{"ha":703,"x_min":67,"x_max":636,"o":"m 636 956 l 636 424 q 620 149 636 235 q 545 26 604 64 q 351 -11 486 -11 q 158 26 217 -11 q 83 149 99 64 q 67 424 67 235 l 67 956 l 257 956 l 257 360 q 262 220 257 258 q 285 169 267 182 q 351 157 304 157 q 417 169 399 157 q 440 219 435 182 q 444 360 444 257 l 444 956 l 636 956 m 158 1042 l 158 1053 l 263 1224 l 442 1224 l 547 1053 l 547 1042 l 424 1042 l 351 1140 l 281 1042 l 158 1042 z "},"Ȕ":{"ha":703,"x_min":67,"x_max":636,"o":"m 636 956 l 636 424 q 620 149 636 235 q 545 26 604 64 q 351 -11 486 -11 q 158 26 217 -11 q 83 149 99 64 q 67 424 67 235 l 67 956 l 257 956 l 257 360 q 262 220 257 258 q 285 169 267 182 q 351 157 304 157 q 417 169 399 157 q 440 219 435 182 q 444 360 444 257 l 444 956 l 636 956 m 314 1049 l 196 1049 l 106 1211 l 106 1217 l 251 1217 l 314 1054 l 314 1049 m 517 1049 l 399 1049 l 310 1211 l 310 1217 l 456 1217 l 517 1054 l 517 1049 z "},"Ü":{"ha":703,"x_min":67,"x_max":636,"o":"m 636 956 l 636 424 q 620 149 636 235 q 545 26 604 64 q 351 -11 486 -11 q 158 26 217 -11 q 83 149 99 64 q 67 424 67 235 l 67 956 l 257 956 l 257 360 q 262 220 257 258 q 285 169 267 182 q 351 157 304 157 q 417 169 399 157 q 440 219 435 182 q 444 360 444 257 l 444 956 l 636 956 m 153 1082 l 153 1225 l 307 1225 l 307 1082 l 153 1082 m 396 1082 l 396 1225 l 550 1225 l 550 1082 l 396 1082 z "},"Ǘ":{"ha":703,"x_min":67,"x_max":636,"o":"m 307 1207 l 307 1072 l 153 1072 l 153 1215 l 276 1215 l 350 1410 l 528 1410 l 528 1403 l 422 1215 l 550 1215 l 550 1072 l 396 1072 l 396 1207 l 307 1207 m 636 956 l 636 424 q 620 149 636 235 q 545 26 604 64 q 351 -11 486 -11 q 158 26 217 -11 q 83 149 99 64 q 67 424 67 235 l 67 956 l 257 956 l 257 360 q 262 220 257 258 q 285 169 267 182 q 351 157 304 157 q 417 169 399 157 q 440 219 435 182 q 444 360 444 257 l 444 956 l 636 956 z "},"Ǚ":{"ha":703,"x_min":67,"x_max":636,"o":"m 636 956 l 636 424 q 620 149 636 235 q 545 26 604 64 q 351 -11 486 -11 q 158 26 217 -11 q 83 149 99 64 q 67 424 67 235 l 67 956 l 257 956 l 257 360 q 262 220 257 258 q 285 169 267 182 q 351 157 304 157 q 417 169 399 157 q 440 219 435 182 q 444 360 444 257 l 444 956 l 636 956 m 153 1072 l 153 1215 l 307 1215 l 307 1072 l 153 1072 m 396 1072 l 396 1215 l 550 1215 l 550 1072 l 396 1072 m 265 1226 l 161 1399 l 161 1410 l 283 1410 l 354 1311 l 426 1410 l 549 1410 l 549 1399 l 443 1226 l 265 1226 z "},"Ǜ":{"ha":703,"x_min":67,"x_max":636,"o":"m 307 1207 l 307 1072 l 153 1072 l 153 1215 l 285 1215 l 181 1403 l 181 1410 l 358 1410 l 432 1215 l 550 1215 l 550 1072 l 396 1072 l 396 1207 l 307 1207 m 636 956 l 636 424 q 620 149 636 235 q 545 26 604 64 q 351 -11 486 -11 q 158 26 217 -11 q 83 149 99 64 q 67 424 67 235 l 67 956 l 257 956 l 257 360 q 262 220 257 258 q 285 169 267 182 q 351 157 304 157 q 417 169 399 157 q 440 219 435 182 q 444 360 444 257 l 444 956 l 636 956 z "},"Ǖ":{"ha":703,"x_min":67,"x_max":636,"o":"m 214 1236 l 214 1382 l 494 1382 l 494 1236 l 214 1236 m 153 1072 l 153 1215 l 307 1215 l 307 1072 l 153 1072 m 396 1072 l 396 1215 l 550 1215 l 550 1072 l 396 1072 m 636 956 l 636 424 q 620 149 636 235 q 545 26 604 64 q 351 -11 486 -11 q 158 26 217 -11 q 83 149 99 64 q 67 424 67 235 l 67 956 l 257 956 l 257 360 q 262 220 257 258 q 285 169 267 182 q 351 157 304 157 q 417 169 399 157 q 440 219 435 182 q 444 360 444 257 l 444 956 l 636 956 z "},"Ụ":{"ha":703,"x_min":67,"x_max":636,"o":"m 636 956 l 636 424 q 620 149 636 235 q 545 26 604 64 q 351 -11 486 -11 q 158 26 217 -11 q 83 149 99 64 q 67 424 67 235 l 67 956 l 257 956 l 257 360 q 262 220 257 258 q 285 169 267 182 q 351 157 304 157 q 417 169 399 157 q 440 219 435 182 q 444 360 444 257 l 444 956 l 636 956 m 253 -268 l 253 -86 l 449 -86 l 449 -268 l 253 -268 z "},"Ù":{"ha":703,"x_min":67,"x_max":636,"o":"m 636 956 l 636 424 q 620 149 636 235 q 545 26 604 64 q 351 -11 486 -11 q 158 26 217 -11 q 83 149 99 64 q 67 424 67 235 l 67 956 l 257 956 l 257 360 q 262 220 257 258 q 285 169 267 182 q 351 157 304 157 q 417 169 399 157 q 440 219 435 182 q 444 360 444 257 l 444 956 l 636 956 m 290 1042 l 182 1238 l 182 1244 l 360 1244 l 433 1049 l 433 1042 l 290 1042 z "},"Ủ":{"ha":703,"x_min":67,"x_max":636,"o":"m 636 956 l 636 424 q 620 149 636 235 q 545 26 604 64 q 351 -11 486 -11 q 158 26 217 -11 q 83 149 99 64 q 67 424 67 235 l 67 956 l 257 956 l 257 360 q 262 220 257 258 q 285 169 267 182 q 351 157 304 157 q 417 169 399 157 q 440 219 435 182 q 444 360 444 257 l 444 956 l 636 956 m 257 1036 q 269 1088 257 1072 q 313 1115 281 1103 l 331 1122 q 374 1144 364 1136 q 385 1165 385 1151 q 373 1185 385 1181 q 328 1189 361 1189 q 189 1183 249 1189 l 189 1288 q 342 1304 275 1304 q 469 1279 425 1304 q 513 1185 513 1254 q 499 1113 513 1138 q 443 1069 485 1089 l 421 1060 q 377 1037 385 1044 q 369 1007 369 1029 l 257 1007 l 257 1036 z "},"Ư":{"ha":703,"x_min":67,"x_max":739,"o":"m 739 1085 l 739 1047 q 719 930 739 965 q 636 885 700 894 l 636 424 q 620 149 636 235 q 545 26 604 64 q 351 -11 486 -11 q 158 26 217 -11 q 83 149 99 64 q 67 424 67 235 l 67 956 l 257 956 l 257 360 q 262 220 257 258 q 285 169 267 182 q 351 157 304 157 q 417 169 399 157 q 440 219 435 182 q 444 360 444 257 l 444 956 l 536 956 q 606 969 589 956 q 622 1021 622 982 l 622 1085 l 739 1085 z "},"Ứ":{"ha":703,"x_min":67,"x_max":739,"o":"m 739 1085 l 739 1047 q 719 930 739 965 q 636 885 700 894 l 636 424 q 620 149 636 235 q 545 26 604 64 q 351 -11 486 -11 q 158 26 217 -11 q 83 149 99 64 q 67 424 67 235 l 67 956 l 257 956 l 257 360 q 262 220 257 258 q 285 169 267 182 q 351 157 304 157 q 417 169 399 157 q 440 219 435 182 q 444 360 444 257 l 444 956 l 536 956 q 606 969 589 956 q 622 1021 622 982 l 622 1085 l 739 1085 m 274 1031 l 274 1038 l 347 1233 l 525 1233 l 525 1226 l 415 1031 l 274 1031 z "},"Ự":{"ha":703,"x_min":67,"x_max":739,"o":"m 739 1085 l 739 1047 q 719 930 739 965 q 636 885 700 894 l 636 424 q 620 149 636 235 q 545 26 604 64 q 351 -11 486 -11 q 158 26 217 -11 q 83 149 99 64 q 67 424 67 235 l 67 956 l 257 956 l 257 360 q 262 220 257 258 q 285 169 267 182 q 351 157 304 157 q 417 169 399 157 q 440 219 435 182 q 444 360 444 257 l 444 956 l 536 956 q 606 969 589 956 q 622 1021 622 982 l 622 1085 l 739 1085 m 253 -268 l 253 -86 l 449 -86 l 449 -268 l 253 -268 z "},"Ừ":{"ha":703,"x_min":67,"x_max":739,"o":"m 739 1085 l 739 1047 q 719 930 739 965 q 636 885 700 894 l 636 424 q 620 149 636 235 q 545 26 604 64 q 351 -11 486 -11 q 158 26 217 -11 q 83 149 99 64 q 67 424 67 235 l 67 956 l 257 956 l 257 360 q 262 220 257 258 q 285 169 267 182 q 351 157 304 157 q 417 169 399 157 q 440 219 435 182 q 444 360 444 257 l 444 956 l 536 956 q 606 969 589 956 q 622 1021 622 982 l 622 1085 l 739 1085 m 286 1031 l 178 1226 l 178 1233 l 356 1233 l 429 1038 l 429 1031 l 286 1031 z "},"Ử":{"ha":703,"x_min":67,"x_max":739,"o":"m 739 1085 l 739 1047 q 719 930 739 965 q 636 885 700 894 l 636 424 q 620 149 636 235 q 545 26 604 64 q 351 -11 486 -11 q 158 26 217 -11 q 83 149 99 64 q 67 424 67 235 l 67 956 l 257 956 l 257 360 q 262 220 257 258 q 285 169 267 182 q 351 157 304 157 q 417 169 399 157 q 440 219 435 182 q 444 360 444 257 l 444 956 l 536 956 q 606 969 589 956 q 622 1021 622 982 l 622 1085 l 739 1085 m 257 1036 q 269 1088 257 1072 q 313 1115 281 1103 l 331 1122 q 374 1144 364 1136 q 385 1165 385 1151 q 373 1185 385 1181 q 328 1189 361 1189 q 189 1183 249 1189 l 189 1288 q 342 1304 275 1304 q 469 1279 425 1304 q 513 1185 513 1254 q 499 1113 513 1138 q 443 1069 485 1089 l 421 1060 q 377 1037 385 1044 q 369 1007 369 1029 l 257 1007 l 257 1036 z "},"Ữ":{"ha":703,"x_min":67,"x_max":739,"o":"m 739 1085 l 739 1047 q 719 930 739 965 q 636 885 700 894 l 636 424 q 620 149 636 235 q 545 26 604 64 q 351 -11 486 -11 q 158 26 217 -11 q 83 149 99 64 q 67 424 67 235 l 67 956 l 257 956 l 257 360 q 262 220 257 258 q 285 169 267 182 q 351 157 304 157 q 417 169 399 157 q 440 219 435 182 q 444 360 444 257 l 444 956 l 536 956 q 606 969 589 956 q 622 1021 622 982 l 622 1085 l 739 1085 m 567 1233 q 561 1128 567 1164 q 534 1073 556 1093 q 464 1053 513 1053 q 340 1075 415 1053 q 306 1085 332 1078 q 265 1092 281 1092 q 243 1081 247 1092 q 239 1036 239 1069 l 136 1036 q 142 1142 136 1106 q 169 1198 147 1178 q 240 1218 192 1218 q 363 1194 286 1218 q 439 1179 418 1179 q 460 1190 457 1179 q 464 1233 464 1200 l 567 1233 z "},"Ű":{"ha":703,"x_min":67,"x_max":636,"o":"m 636 956 l 636 424 q 620 149 636 235 q 545 26 604 64 q 351 -11 486 -11 q 158 26 217 -11 q 83 149 99 64 q 67 424 67 235 l 67 956 l 257 956 l 257 360 q 262 220 257 258 q 285 169 267 182 q 351 157 304 157 q 417 169 399 157 q 440 219 435 182 q 444 360 444 257 l 444 956 l 636 956 m 194 1049 l 194 1054 l 256 1217 l 401 1217 l 401 1211 l 313 1049 l 194 1049 m 397 1049 l 397 1054 l 460 1217 l 606 1217 l 606 1211 l 515 1049 l 397 1049 z "},"Ȗ":{"ha":703,"x_min":67,"x_max":636,"o":"m 636 956 l 636 424 q 620 149 636 235 q 545 26 604 64 q 351 -11 486 -11 q 158 26 217 -11 q 83 149 99 64 q 67 424 67 235 l 67 956 l 257 956 l 257 360 q 262 220 257 258 q 285 169 267 182 q 351 157 304 157 q 417 169 399 157 q 440 219 435 182 q 444 360 444 257 l 444 956 l 636 956 m 169 1053 q 183 1156 169 1115 q 235 1219 196 1196 q 353 1242 275 1242 q 468 1219 429 1242 q 519 1156 507 1196 q 532 1053 532 1115 l 422 1053 q 419 1101 422 1085 q 401 1127 415 1117 q 353 1138 386 1138 q 292 1117 304 1138 q 279 1053 279 1097 l 169 1053 z "},"Ū":{"ha":703,"x_min":67,"x_max":636,"o":"m 636 956 l 636 424 q 620 149 636 235 q 545 26 604 64 q 351 -11 486 -11 q 158 26 217 -11 q 83 149 99 64 q 67 424 67 235 l 67 956 l 257 956 l 257 360 q 262 220 257 258 q 285 169 267 182 q 351 157 304 157 q 417 169 399 157 q 440 219 435 182 q 444 360 444 257 l 444 956 l 636 956 m 211 1072 l 211 1233 l 492 1233 l 492 1072 l 211 1072 z "},"Ų":{"ha":703,"x_min":67,"x_max":636,"o":"m 636 956 l 636 424 q 631 226 636 297 q 608 106 626 156 q 550 31 589 57 q 479 -37 504 -1 q 454 -119 454 -74 q 466 -158 454 -144 q 508 -172 478 -172 l 525 -171 l 525 -267 q 453 -272 496 -272 q 345 -239 378 -272 q 313 -153 313 -206 q 376 -11 313 -85 l 351 -11 q 158 26 217 -11 q 83 149 99 64 q 67 424 67 235 l 67 956 l 257 956 l 257 360 q 262 220 257 258 q 285 169 267 182 q 351 157 304 157 q 417 169 399 157 q 440 219 435 182 q 444 360 444 257 l 444 956 l 636 956 z "},"Ů":{"ha":703,"x_min":67,"x_max":636,"o":"m 636 956 l 636 424 q 620 149 636 235 q 545 26 604 64 q 351 -11 486 -11 q 158 26 217 -11 q 83 149 99 64 q 67 424 67 235 l 67 956 l 257 956 l 257 360 q 262 220 257 258 q 285 169 267 182 q 351 157 304 157 q 417 169 399 157 q 440 219 435 182 q 444 360 444 257 l 444 956 l 636 956 m 350 1003 q 231 1019 268 1003 q 185 1065 194 1035 q 175 1154 175 1094 q 185 1245 175 1215 q 231 1291 194 1275 q 350 1307 268 1307 q 470 1291 433 1307 q 517 1245 507 1275 q 526 1154 526 1215 q 517 1064 526 1093 q 470 1019 507 1035 q 350 1003 433 1003 m 350 1092 q 395 1097 382 1092 q 412 1113 408 1101 q 415 1154 415 1125 q 412 1196 415 1183 q 395 1214 408 1208 q 350 1219 382 1219 q 307 1214 319 1219 q 291 1196 294 1208 q 288 1154 288 1183 q 291 1113 288 1125 q 307 1097 294 1101 q 350 1092 319 1092 z "},"Ũ":{"ha":703,"x_min":67,"x_max":636,"o":"m 636 956 l 636 424 q 620 149 636 235 q 545 26 604 64 q 351 -11 486 -11 q 158 26 217 -11 q 83 149 99 64 q 67 424 67 235 l 67 956 l 257 956 l 257 360 q 262 220 257 258 q 285 169 267 182 q 351 157 304 157 q 417 169 399 157 q 440 219 435 182 q 444 360 444 257 l 444 956 l 636 956 m 567 1233 q 561 1128 567 1164 q 534 1073 556 1093 q 464 1053 513 1053 q 340 1075 415 1053 q 306 1085 332 1078 q 265 1092 281 1092 q 243 1081 247 1092 q 239 1036 239 1069 l 136 1036 q 142 1142 136 1106 q 169 1198 147 1178 q 240 1218 192 1218 q 363 1194 286 1218 q 439 1179 418 1179 q 460 1190 457 1179 q 464 1233 464 1200 l 567 1233 z "},"V":{"ha":674,"x_min":14,"x_max":658,"o":"m 197 0 l 14 956 l 208 956 l 333 200 l 346 200 l 467 956 l 658 956 l 475 0 l 197 0 z "},"W":{"ha":1050,"x_min":24,"x_max":1028,"o":"m 628 0 l 529 665 l 521 665 l 424 0 l 161 0 l 24 956 l 217 956 l 299 207 l 308 207 l 417 956 l 642 956 l 751 207 l 761 207 l 839 956 l 1028 956 l 889 0 l 628 0 z "},"Ẃ":{"ha":1050,"x_min":24,"x_max":1028,"o":"m 628 0 l 529 665 l 521 665 l 424 0 l 161 0 l 24 956 l 217 956 l 299 207 l 308 207 l 417 956 l 642 956 l 751 207 l 761 207 l 839 956 l 1028 956 l 889 0 l 628 0 m 447 1031 l 447 1038 l 521 1233 l 699 1233 l 699 1226 l 589 1031 l 447 1031 z "},"Ŵ":{"ha":1050,"x_min":24,"x_max":1028,"o":"m 628 0 l 529 665 l 521 665 l 424 0 l 161 0 l 24 956 l 217 956 l 299 207 l 308 207 l 417 956 l 642 956 l 751 207 l 761 207 l 839 956 l 1028 956 l 889 0 l 628 0 m 331 1051 l 331 1063 l 435 1233 l 614 1233 l 719 1063 l 719 1051 l 596 1051 l 524 1150 l 453 1051 l 331 1051 z "},"Ẅ":{"ha":1050,"x_min":24,"x_max":1028,"o":"m 628 0 l 529 665 l 521 665 l 424 0 l 161 0 l 24 956 l 217 956 l 299 207 l 308 207 l 417 956 l 642 956 l 751 207 l 761 207 l 839 956 l 1028 956 l 889 0 l 628 0 m 326 1072 l 326 1215 l 481 1215 l 481 1072 l 326 1072 m 569 1072 l 569 1215 l 724 1215 l 724 1072 l 569 1072 z "},"Ẁ":{"ha":1050,"x_min":24,"x_max":1028,"o":"m 628 0 l 529 665 l 521 665 l 424 0 l 161 0 l 24 956 l 217 956 l 299 207 l 308 207 l 417 956 l 642 956 l 751 207 l 761 207 l 839 956 l 1028 956 l 889 0 l 628 0 m 460 1031 l 351 1226 l 351 1233 l 529 1233 l 603 1038 l 603 1031 l 460 1031 z "},"X":{"ha":696,"x_min":17,"x_max":681,"o":"m 474 0 l 350 343 l 339 343 l 217 0 l 17 0 l 217 481 l 19 956 l 225 956 l 346 626 l 356 626 l 476 956 l 676 956 l 482 486 l 681 0 l 474 0 z "},"Y":{"ha":643,"x_min":0,"x_max":643,"o":"m 226 0 l 226 331 l 0 956 l 196 956 l 321 543 l 333 543 l 454 956 l 643 956 l 417 331 l 417 0 l 226 0 z "},"Ý":{"ha":643,"x_min":0,"x_max":643,"o":"m 226 0 l 226 331 l 0 956 l 196 956 l 321 543 l 333 543 l 454 956 l 643 956 l 417 331 l 417 0 l 226 0 m 251 1042 l 251 1049 l 325 1244 l 503 1244 l 503 1238 l 393 1042 l 251 1042 z "},"Ŷ":{"ha":643,"x_min":0,"x_max":643,"o":"m 226 0 l 226 331 l 0 956 l 196 956 l 321 543 l 333 543 l 454 956 l 643 956 l 417 331 l 417 0 l 226 0 m 128 1051 l 128 1063 l 232 1233 l 411 1233 l 517 1063 l 517 1051 l 393 1051 l 321 1150 l 250 1051 l 128 1051 z "},"Ÿ":{"ha":643,"x_min":0,"x_max":643,"o":"m 226 0 l 226 331 l 0 956 l 196 956 l 321 543 l 333 543 l 454 956 l 643 956 l 417 331 l 417 0 l 226 0 m 129 1082 l 129 1225 l 283 1225 l 283 1082 l 129 1082 m 372 1082 l 372 1225 l 526 1225 l 526 1082 l 372 1082 z "},"Ỵ":{"ha":643,"x_min":0,"x_max":643,"o":"m 226 0 l 226 331 l 0 956 l 196 956 l 321 543 l 333 543 l 454 956 l 643 956 l 417 331 l 417 0 l 226 0 m 224 -268 l 224 -86 l 419 -86 l 419 -268 l 224 -268 z "},"Ỳ":{"ha":643,"x_min":0,"x_max":643,"o":"m 226 0 l 226 331 l 0 956 l 196 956 l 321 543 l 333 543 l 454 956 l 643 956 l 417 331 l 417 0 l 226 0 m 257 1031 l 149 1226 l 149 1233 l 326 1233 l 400 1038 l 400 1031 l 257 1031 z "},"Ỷ":{"ha":643,"x_min":0,"x_max":643,"o":"m 226 0 l 226 331 l 0 956 l 196 956 l 321 543 l 333 543 l 454 956 l 643 956 l 417 331 l 417 0 l 226 0 m 228 1036 q 240 1088 228 1072 q 283 1115 251 1103 l 301 1122 q 345 1144 335 1136 q 356 1165 356 1151 q 344 1185 356 1181 q 299 1189 332 1189 q 160 1183 219 1189 l 160 1288 q 313 1304 246 1304 q 440 1279 396 1304 q 483 1185 483 1254 q 469 1113 483 1138 q 414 1069 456 1089 l 392 1060 q 348 1037 356 1044 q 340 1007 340 1029 l 228 1007 l 228 1036 z "},"Ȳ":{"ha":643,"x_min":0,"x_max":643,"o":"m 226 0 l 226 331 l 0 956 l 196 956 l 321 543 l 333 543 l 454 956 l 643 956 l 417 331 l 417 0 l 226 0 m 182 1072 l 182 1233 l 463 1233 l 463 1072 l 182 1072 z "},"Ỹ":{"ha":643,"x_min":0,"x_max":643,"o":"m 226 0 l 226 331 l 0 956 l 196 956 l 321 543 l 333 543 l 454 956 l 643 956 l 417 331 l 417 0 l 226 0 m 538 1233 q 532 1128 538 1164 q 505 1073 526 1093 q 435 1053 483 1053 q 311 1075 386 1053 q 277 1085 303 1078 q 236 1092 251 1092 q 214 1081 218 1092 q 210 1036 210 1069 l 107 1036 q 113 1142 107 1106 q 140 1198 118 1178 q 211 1218 163 1218 q 333 1194 257 1218 q 410 1179 389 1179 q 431 1190 428 1179 q 435 1233 435 1200 l 538 1233 z "},"Z":{"ha":610,"x_min":43,"x_max":567,"o":"m 43 0 l 43 158 l 350 788 l 53 788 l 53 956 l 564 956 l 564 799 l 256 168 l 567 168 l 567 0 l 43 0 z "},"Ź":{"ha":610,"x_min":43,"x_max":567,"o":"m 43 0 l 43 158 l 350 788 l 53 788 l 53 956 l 564 956 l 564 799 l 256 168 l 567 168 l 567 0 l 43 0 m 228 1031 l 228 1038 l 301 1233 l 479 1233 l 479 1226 l 369 1031 l 228 1031 z "},"Ž":{"ha":608,"x_min":43,"x_max":567,"o":"m 43 0 l 43 158 l 350 788 l 53 788 l 53 956 l 564 956 l 564 799 l 256 168 l 567 168 l 567 0 l 43 0 m 226 1042 l 122 1214 l 122 1225 l 244 1225 l 315 1126 l 388 1225 l 510 1225 l 510 1214 l 404 1042 l 226 1042 z "},"Ż":{"ha":610,"x_min":43,"x_max":567,"o":"m 43 0 l 43 158 l 350 788 l 53 788 l 53 956 l 564 956 l 564 799 l 256 168 l 567 168 l 567 0 l 43 0 m 229 1072 l 229 1215 l 383 1215 l 383 1072 l 229 1072 z "},"Ẓ":{"ha":610,"x_min":43,"x_max":567,"o":"m 43 0 l 43 158 l 350 788 l 53 788 l 53 956 l 564 956 l 564 799 l 256 168 l 567 168 l 567 0 l 43 0 m 207 -268 l 207 -86 l 403 -86 l 403 -268 l 207 -268 z "},"a":{"ha":592,"x_min":35,"x_max":531,"o":"m 196 -11 q 72 41 110 -11 q 35 204 35 93 q 51 333 35 286 q 108 401 68 379 q 218 422 147 422 q 351 417 268 422 l 351 449 q 342 531 351 507 q 309 563 333 556 q 225 569 285 569 q 69 560 167 569 l 69 699 q 279 719 174 719 q 438 692 383 719 q 511 604 492 664 q 531 433 531 544 l 531 0 l 360 0 l 354 83 l 344 83 q 286 10 326 32 q 196 -11 246 -11 m 274 144 q 312 150 297 144 q 336 171 326 156 q 351 267 351 194 l 351 301 l 268 301 q 220 286 232 301 q 208 219 208 271 q 220 160 208 175 q 274 144 232 144 z "},"á":{"ha":592,"x_min":35,"x_max":531,"o":"m 196 -11 q 72 41 110 -11 q 35 204 35 93 q 51 333 35 286 q 108 401 68 379 q 218 422 147 422 q 351 417 268 422 l 351 449 q 342 531 351 507 q 309 563 333 556 q 225 569 285 569 q 69 560 167 569 l 69 699 q 279 719 174 719 q 438 692 383 719 q 511 604 492 664 q 531 433 531 544 l 531 0 l 360 0 l 354 83 l 344 83 q 286 10 326 32 q 196 -11 246 -11 m 274 144 q 312 150 297 144 q 336 171 326 156 q 351 267 351 194 l 351 301 l 268 301 q 220 286 232 301 q 208 219 208 271 q 220 160 208 175 q 274 144 232 144 m 218 829 l 218 836 l 292 1032 l 469 1032 l 469 1025 l 360 829 l 218 829 z "},"ă":{"ha":592,"x_min":35,"x_max":531,"o":"m 196 -11 q 72 41 110 -11 q 35 204 35 93 q 51 333 35 286 q 108 401 68 379 q 218 422 147 422 q 351 417 268 422 l 351 449 q 342 531 351 507 q 309 563 333 556 q 225 569 285 569 q 69 560 167 569 l 69 699 q 279 719 174 719 q 438 692 383 719 q 511 604 492 664 q 531 433 531 544 l 531 0 l 360 0 l 354 83 l 344 83 q 286 10 326 32 q 196 -11 246 -11 m 274 144 q 312 150 297 144 q 336 171 326 156 q 351 267 351 194 l 351 301 l 268 301 q 220 286 232 301 q 208 219 208 271 q 220 160 208 175 q 274 144 232 144 m 476 1032 q 463 929 476 969 q 410 866 450 889 q 293 843 371 843 q 178 866 217 843 q 126 929 139 889 q 114 1032 114 969 l 224 1032 q 227 984 224 1000 q 245 958 231 968 q 293 947 260 947 q 354 967 342 947 q 367 1032 367 988 l 476 1032 z "},"ắ":{"ha":592,"x_min":35,"x_max":531,"o":"m 196 -11 q 72 41 110 -11 q 35 204 35 93 q 51 333 35 286 q 108 401 68 379 q 218 422 147 422 q 351 417 268 422 l 351 449 q 342 531 351 507 q 309 563 333 556 q 225 569 285 569 q 69 560 167 569 l 69 699 q 279 719 174 719 q 438 692 383 719 q 511 604 492 664 q 531 433 531 544 l 531 0 l 360 0 l 354 83 l 344 83 q 286 10 326 32 q 196 -11 246 -11 m 274 144 q 312 150 297 144 q 336 171 326 156 q 351 267 351 194 l 351 301 l 268 301 q 220 286 232 301 q 208 219 208 271 q 220 160 208 175 q 274 144 232 144 m 474 1032 q 460 929 474 969 q 408 866 447 889 q 290 843 368 843 q 175 866 214 843 q 124 929 136 889 q 111 1032 111 969 l 221 1032 q 224 984 221 1000 q 242 958 228 968 q 290 947 257 947 q 351 967 339 947 q 364 1032 364 988 l 474 1032 m 214 1069 l 214 1076 l 288 1272 l 465 1272 l 465 1265 l 356 1069 l 214 1069 z "},"ặ":{"ha":592,"x_min":35,"x_max":531,"o":"m 196 -11 q 72 41 110 -11 q 35 204 35 93 q 51 333 35 286 q 108 401 68 379 q 218 422 147 422 q 351 417 268 422 l 351 449 q 342 531 351 507 q 309 563 333 556 q 225 569 285 569 q 69 560 167 569 l 69 699 q 279 719 174 719 q 438 692 383 719 q 511 604 492 664 q 531 433 531 544 l 531 0 l 360 0 l 354 83 l 344 83 q 286 10 326 32 q 196 -11 246 -11 m 274 144 q 312 150 297 144 q 336 171 326 156 q 351 267 351 194 l 351 301 l 268 301 q 220 286 232 301 q 208 219 208 271 q 220 160 208 175 q 274 144 232 144 m 197 -268 l 197 -86 l 393 -86 l 393 -268 l 197 -268 m 476 1032 q 463 929 476 969 q 410 866 450 889 q 293 843 371 843 q 178 866 217 843 q 126 929 139 889 q 114 1032 114 969 l 224 1032 q 227 984 224 1000 q 245 958 231 968 q 293 947 260 947 q 354 967 342 947 q 367 1032 367 988 l 476 1032 z "},"ằ":{"ha":592,"x_min":35,"x_max":531,"o":"m 196 -11 q 72 41 110 -11 q 35 204 35 93 q 51 333 35 286 q 108 401 68 379 q 218 422 147 422 q 351 417 268 422 l 351 449 q 342 531 351 507 q 309 563 333 556 q 225 569 285 569 q 69 560 167 569 l 69 699 q 279 719 174 719 q 438 692 383 719 q 511 604 492 664 q 531 433 531 544 l 531 0 l 360 0 l 354 83 l 344 83 q 286 10 326 32 q 196 -11 246 -11 m 274 144 q 312 150 297 144 q 336 171 326 156 q 351 267 351 194 l 351 301 l 268 301 q 220 286 232 301 q 208 219 208 271 q 220 160 208 175 q 274 144 232 144 m 479 1032 q 466 929 479 969 q 413 866 453 889 q 296 843 374 843 q 181 866 219 843 q 129 929 142 889 q 117 1032 117 969 l 226 1032 q 230 984 226 1000 q 248 958 233 968 q 296 947 263 947 q 357 967 344 947 q 369 1032 369 988 l 479 1032 m 229 1069 l 121 1265 l 121 1272 l 299 1272 l 372 1076 l 372 1069 l 229 1069 z "},"ẳ":{"ha":592,"x_min":35,"x_max":531,"o":"m 196 -11 q 72 41 110 -11 q 35 204 35 93 q 51 333 35 286 q 108 401 68 379 q 218 422 147 422 q 351 417 268 422 l 351 449 q 342 531 351 507 q 309 563 333 556 q 225 569 285 569 q 69 560 167 569 l 69 699 q 279 719 174 719 q 438 692 383 719 q 511 604 492 664 q 531 433 531 544 l 531 0 l 360 0 l 354 83 l 344 83 q 286 10 326 32 q 196 -11 246 -11 m 274 144 q 312 150 297 144 q 336 171 326 156 q 351 267 351 194 l 351 301 l 268 301 q 220 286 232 301 q 208 219 208 271 q 220 160 208 175 q 274 144 232 144 m 469 1032 q 456 929 469 969 q 403 866 443 889 q 286 843 364 843 q 171 866 210 843 q 119 929 132 889 q 107 1032 107 969 l 217 1032 q 220 984 217 1000 q 238 958 224 968 q 286 947 253 947 q 347 967 335 947 q 360 1032 360 988 l 469 1032 m 226 1065 q 238 1117 226 1101 q 282 1144 250 1132 l 300 1151 q 343 1172 332 1164 q 354 1194 354 1181 q 342 1214 354 1210 q 297 1218 331 1218 q 158 1214 225 1218 l 158 1317 q 311 1335 251 1335 q 438 1309 394 1335 q 482 1214 482 1283 q 468 1142 482 1167 q 413 1099 454 1118 l 390 1089 q 347 1066 354 1074 q 339 1038 339 1058 l 226 1038 l 226 1065 z "},"ẵ":{"ha":592,"x_min":35,"x_max":531,"o":"m 196 -11 q 72 41 110 -11 q 35 204 35 93 q 51 333 35 286 q 108 401 68 379 q 218 422 147 422 q 351 417 268 422 l 351 449 q 342 531 351 507 q 309 563 333 556 q 225 569 285 569 q 69 560 167 569 l 69 699 q 279 719 174 719 q 438 692 383 719 q 511 604 492 664 q 531 433 531 544 l 531 0 l 360 0 l 354 83 l 344 83 q 286 10 326 32 q 196 -11 246 -11 m 274 144 q 312 150 297 144 q 336 171 326 156 q 351 267 351 194 l 351 301 l 268 301 q 220 286 232 301 q 208 219 208 271 q 220 160 208 175 q 274 144 232 144 m 474 1032 q 460 929 474 969 q 408 866 447 889 q 290 843 368 843 q 175 866 214 843 q 124 929 136 889 q 111 1032 111 969 l 221 1032 q 224 984 221 1000 q 242 958 228 968 q 290 947 257 947 q 351 967 339 947 q 364 1032 364 988 l 474 1032 m 511 1279 q 506 1174 511 1210 q 478 1119 500 1139 q 408 1099 457 1099 q 285 1121 360 1099 q 251 1131 276 1124 q 210 1138 225 1138 q 188 1126 192 1138 q 183 1082 183 1115 l 81 1082 q 86 1188 81 1151 q 114 1244 92 1224 q 185 1264 136 1264 q 307 1240 231 1264 q 383 1225 363 1225 q 405 1235 401 1225 q 408 1279 408 1246 l 511 1279 z "},"ǎ":{"ha":592,"x_min":35,"x_max":531,"o":"m 196 -11 q 72 41 110 -11 q 35 204 35 93 q 51 333 35 286 q 108 401 68 379 q 218 422 147 422 q 351 417 268 422 l 351 449 q 342 531 351 507 q 309 563 333 556 q 225 569 285 569 q 69 560 167 569 l 69 699 q 279 719 174 719 q 438 692 383 719 q 511 604 492 664 q 531 433 531 544 l 531 0 l 360 0 l 354 83 l 344 83 q 286 10 326 32 q 196 -11 246 -11 m 274 144 q 312 150 297 144 q 336 171 326 156 q 351 267 351 194 l 351 301 l 268 301 q 220 286 232 301 q 208 219 208 271 q 220 160 208 175 q 274 144 232 144 m 207 849 l 103 1021 l 103 1032 l 225 1032 l 296 933 l 368 1032 l 490 1032 l 490 1021 l 385 849 l 207 849 z "},"â":{"ha":592,"x_min":35,"x_max":531,"o":"m 196 -11 q 72 41 110 -11 q 35 204 35 93 q 51 333 35 286 q 108 401 68 379 q 218 422 147 422 q 351 417 268 422 l 351 449 q 342 531 351 507 q 309 563 333 556 q 225 569 285 569 q 69 560 167 569 l 69 699 q 279 719 174 719 q 438 692 383 719 q 511 604 492 664 q 531 433 531 544 l 531 0 l 360 0 l 354 83 l 344 83 q 286 10 326 32 q 196 -11 246 -11 m 274 144 q 312 150 297 144 q 336 171 326 156 q 351 267 351 194 l 351 301 l 268 301 q 220 286 232 301 q 208 219 208 271 q 220 160 208 175 q 274 144 232 144 m 103 850 l 103 861 l 207 1032 l 386 1032 l 492 861 l 492 850 l 368 850 l 296 949 l 225 850 l 103 850 z "},"ấ":{"ha":592,"x_min":35,"x_max":578,"o":"m 196 -11 q 72 41 110 -11 q 35 204 35 93 q 51 333 35 286 q 108 401 68 379 q 218 422 147 422 q 351 417 268 422 l 351 449 q 342 531 351 507 q 309 563 333 556 q 225 569 285 569 q 69 560 167 569 l 69 699 q 279 719 174 719 q 438 692 383 719 q 511 604 492 664 q 531 433 531 544 l 531 0 l 360 0 l 354 83 l 344 83 q 286 10 326 32 q 196 -11 246 -11 m 274 144 q 312 150 297 144 q 336 171 326 156 q 351 267 351 194 l 351 301 l 268 301 q 220 286 232 301 q 208 219 208 271 q 220 160 208 175 q 274 144 232 144 m 103 850 l 103 861 l 207 1032 l 386 1032 l 492 861 l 492 850 l 368 850 l 296 949 l 225 850 l 103 850 m 326 1069 l 326 1076 l 400 1272 l 578 1272 l 578 1265 l 468 1069 l 326 1069 z "},"ậ":{"ha":592,"x_min":35,"x_max":531,"o":"m 196 -11 q 72 41 110 -11 q 35 204 35 93 q 51 333 35 286 q 108 401 68 379 q 218 422 147 422 q 351 417 268 422 l 351 449 q 342 531 351 507 q 309 563 333 556 q 225 569 285 569 q 69 560 167 569 l 69 699 q 279 719 174 719 q 438 692 383 719 q 511 604 492 664 q 531 433 531 544 l 531 0 l 360 0 l 354 83 l 344 83 q 286 10 326 32 q 196 -11 246 -11 m 274 144 q 312 150 297 144 q 336 171 326 156 q 351 267 351 194 l 351 301 l 268 301 q 220 286 232 301 q 208 219 208 271 q 220 160 208 175 q 274 144 232 144 m 197 -268 l 197 -86 l 393 -86 l 393 -268 l 197 -268 m 101 850 l 101 861 l 206 1032 l 385 1032 l 490 861 l 490 850 l 367 850 l 294 949 l 224 850 l 101 850 z "},"ầ":{"ha":592,"x_min":35,"x_max":531,"o":"m 196 -11 q 72 41 110 -11 q 35 204 35 93 q 51 333 35 286 q 108 401 68 379 q 218 422 147 422 q 351 417 268 422 l 351 449 q 342 531 351 507 q 309 563 333 556 q 225 569 285 569 q 69 560 167 569 l 69 699 q 279 719 174 719 q 438 692 383 719 q 511 604 492 664 q 531 433 531 544 l 531 0 l 360 0 l 354 83 l 344 83 q 286 10 326 32 q 196 -11 246 -11 m 274 144 q 312 150 297 144 q 336 171 326 156 q 351 267 351 194 l 351 301 l 268 301 q 220 286 232 301 q 208 219 208 271 q 220 160 208 175 q 274 144 232 144 m 92 850 l 92 861 l 196 1032 l 375 1032 l 481 861 l 481 850 l 357 850 l 285 949 l 214 850 l 92 850 m 357 1069 l 249 1265 l 249 1272 l 426 1272 l 500 1076 l 500 1069 l 357 1069 z "},"ẩ":{"ha":592,"x_min":35,"x_max":608,"o":"m 196 -11 q 72 41 110 -11 q 35 204 35 93 q 51 333 35 286 q 108 401 68 379 q 218 422 147 422 q 351 417 268 422 l 351 449 q 342 531 351 507 q 309 563 333 556 q 225 569 285 569 q 69 560 167 569 l 69 699 q 279 719 174 719 q 438 692 383 719 q 511 604 492 664 q 531 433 531 544 l 531 0 l 360 0 l 354 83 l 344 83 q 286 10 326 32 q 196 -11 246 -11 m 274 144 q 312 150 297 144 q 336 171 326 156 q 351 267 351 194 l 351 301 l 268 301 q 220 286 232 301 q 208 219 208 271 q 220 160 208 175 q 274 144 232 144 m 101 850 l 101 861 l 206 1032 l 385 1032 l 490 861 l 490 850 l 367 850 l 294 949 l 224 850 l 101 850 m 353 1088 q 365 1139 353 1124 q 408 1167 376 1154 l 426 1174 q 469 1194 458 1186 q 481 1217 481 1203 q 469 1236 481 1232 q 424 1240 457 1240 q 285 1236 351 1240 l 285 1339 q 438 1357 378 1357 q 565 1331 521 1357 q 608 1236 608 1306 q 594 1165 608 1189 q 539 1121 581 1140 l 517 1111 q 473 1088 481 1096 q 465 1060 465 1081 l 353 1060 l 353 1088 z "},"ẫ":{"ha":592,"x_min":35,"x_max":531,"o":"m 196 -11 q 72 41 110 -11 q 35 204 35 93 q 51 333 35 286 q 108 401 68 379 q 218 422 147 422 q 351 417 268 422 l 351 449 q 342 531 351 507 q 309 563 333 556 q 225 569 285 569 q 69 560 167 569 l 69 699 q 279 719 174 719 q 438 692 383 719 q 511 604 492 664 q 531 433 531 544 l 531 0 l 360 0 l 354 83 l 344 83 q 286 10 326 32 q 196 -11 246 -11 m 274 144 q 312 150 297 144 q 336 171 326 156 q 351 267 351 194 l 351 301 l 268 301 q 220 286 232 301 q 208 219 208 271 q 220 160 208 175 q 274 144 232 144 m 99 850 l 99 861 l 203 1032 l 382 1032 l 488 861 l 488 850 l 364 850 l 292 949 l 221 850 l 99 850 m 511 1272 q 506 1167 511 1203 q 478 1112 500 1132 q 408 1092 457 1092 q 285 1114 360 1092 q 251 1124 276 1117 q 210 1131 225 1131 q 188 1119 192 1131 q 183 1075 183 1108 l 81 1075 q 86 1181 81 1144 q 114 1237 92 1217 q 185 1257 136 1257 q 307 1233 231 1257 q 383 1218 363 1218 q 405 1228 401 1218 q 408 1272 408 1239 l 511 1272 z "},"ȁ":{"ha":592,"x_min":35,"x_max":531,"o":"m 196 -11 q 72 41 110 -11 q 35 204 35 93 q 51 333 35 286 q 108 401 68 379 q 218 422 147 422 q 351 417 268 422 l 351 449 q 342 531 351 507 q 309 563 333 556 q 225 569 285 569 q 69 560 167 569 l 69 699 q 279 719 174 719 q 438 692 383 719 q 511 604 492 664 q 531 433 531 544 l 531 0 l 360 0 l 354 83 l 344 83 q 286 10 326 32 q 196 -11 246 -11 m 274 144 q 312 150 297 144 q 336 171 326 156 q 351 267 351 194 l 351 301 l 268 301 q 220 286 232 301 q 208 219 208 271 q 220 160 208 175 q 274 144 232 144 m 258 847 l 140 847 l 50 1010 l 50 1015 l 196 1015 l 258 853 l 258 847 m 461 847 l 343 847 l 254 1010 l 254 1015 l 400 1015 l 461 853 l 461 847 z "},"ä":{"ha":592,"x_min":35,"x_max":531,"o":"m 196 -11 q 72 41 110 -11 q 35 204 35 93 q 51 333 35 286 q 108 401 68 379 q 218 422 147 422 q 351 417 268 422 l 351 449 q 342 531 351 507 q 309 563 333 556 q 225 569 285 569 q 69 560 167 569 l 69 699 q 279 719 174 719 q 438 692 383 719 q 511 604 492 664 q 531 433 531 544 l 531 0 l 360 0 l 354 83 l 344 83 q 286 10 326 32 q 196 -11 246 -11 m 274 144 q 312 150 297 144 q 336 171 326 156 q 351 267 351 194 l 351 301 l 268 301 q 220 286 232 301 q 208 219 208 271 q 220 160 208 175 q 274 144 232 144 m 99 865 l 99 1008 l 253 1008 l 253 865 l 99 865 m 342 865 l 342 1008 l 496 1008 l 496 865 l 342 865 z "},"ạ":{"ha":592,"x_min":35,"x_max":531,"o":"m 196 -11 q 72 41 110 -11 q 35 204 35 93 q 51 333 35 286 q 108 401 68 379 q 218 422 147 422 q 351 417 268 422 l 351 449 q 342 531 351 507 q 309 563 333 556 q 225 569 285 569 q 69 560 167 569 l 69 699 q 279 719 174 719 q 438 692 383 719 q 511 604 492 664 q 531 433 531 544 l 531 0 l 360 0 l 354 83 l 344 83 q 286 10 326 32 q 196 -11 246 -11 m 274 144 q 312 150 297 144 q 336 171 326 156 q 351 267 351 194 l 351 301 l 268 301 q 220 286 232 301 q 208 219 208 271 q 220 160 208 175 q 274 144 232 144 m 197 -268 l 197 -86 l 393 -86 l 393 -268 l 197 -268 z "},"à":{"ha":592,"x_min":35,"x_max":531,"o":"m 196 -11 q 72 41 110 -11 q 35 204 35 93 q 51 333 35 286 q 108 401 68 379 q 218 422 147 422 q 351 417 268 422 l 351 449 q 342 531 351 507 q 309 563 333 556 q 225 569 285 569 q 69 560 167 569 l 69 699 q 279 719 174 719 q 438 692 383 719 q 511 604 492 664 q 531 433 531 544 l 531 0 l 360 0 l 354 83 l 344 83 q 286 10 326 32 q 196 -11 246 -11 m 274 144 q 312 150 297 144 q 336 171 326 156 q 351 267 351 194 l 351 301 l 268 301 q 220 286 232 301 q 208 219 208 271 q 220 160 208 175 q 274 144 232 144 m 238 829 l 129 1025 l 129 1032 l 307 1032 l 381 836 l 381 829 l 238 829 z "},"ả":{"ha":592,"x_min":35,"x_max":531,"o":"m 196 -11 q 72 41 110 -11 q 35 204 35 93 q 51 333 35 286 q 108 401 68 379 q 218 422 147 422 q 351 417 268 422 l 351 449 q 342 531 351 507 q 309 563 333 556 q 225 569 285 569 q 69 560 167 569 l 69 699 q 279 719 174 719 q 438 692 383 719 q 511 604 492 664 q 531 433 531 544 l 531 0 l 360 0 l 354 83 l 344 83 q 286 10 326 32 q 196 -11 246 -11 m 274 144 q 312 150 297 144 q 336 171 326 156 q 351 267 351 194 l 351 301 l 268 301 q 220 286 232 301 q 208 219 208 271 q 220 160 208 175 q 274 144 232 144 m 201 878 q 213 929 201 914 q 257 957 225 944 l 275 964 q 318 985 307 976 q 329 1007 329 993 q 317 1026 329 1022 q 272 1031 306 1031 q 133 1026 200 1031 l 133 1129 q 286 1147 226 1147 q 413 1122 369 1147 q 457 1026 457 1096 q 443 955 457 979 q 388 911 429 931 l 365 901 q 322 878 329 886 q 314 850 314 871 l 201 850 l 201 878 z "},"ȃ":{"ha":592,"x_min":35,"x_max":531,"o":"m 196 -11 q 72 41 110 -11 q 35 204 35 93 q 51 333 35 286 q 108 401 68 379 q 218 422 147 422 q 351 417 268 422 l 351 449 q 342 531 351 507 q 309 563 333 556 q 225 569 285 569 q 69 560 167 569 l 69 699 q 279 719 174 719 q 438 692 383 719 q 511 604 492 664 q 531 433 531 544 l 531 0 l 360 0 l 354 83 l 344 83 q 286 10 326 32 q 196 -11 246 -11 m 274 144 q 312 150 297 144 q 336 171 326 156 q 351 267 351 194 l 351 301 l 268 301 q 220 286 232 301 q 208 219 208 271 q 220 160 208 175 q 274 144 232 144 m 114 851 q 127 954 114 914 q 180 1017 140 994 q 297 1040 219 1040 q 413 1017 374 1040 q 464 954 451 994 q 476 851 476 914 l 367 851 q 363 899 367 883 q 345 926 360 915 q 297 936 331 936 q 236 916 249 936 q 224 851 224 896 l 114 851 z "},"ā":{"ha":592,"x_min":35,"x_max":531,"o":"m 196 -11 q 72 41 110 -11 q 35 204 35 93 q 51 333 35 286 q 108 401 68 379 q 218 422 147 422 q 351 417 268 422 l 351 449 q 342 531 351 507 q 309 563 333 556 q 225 569 285 569 q 69 560 167 569 l 69 699 q 279 719 174 719 q 438 692 383 719 q 511 604 492 664 q 531 433 531 544 l 531 0 l 360 0 l 354 83 l 344 83 q 286 10 326 32 q 196 -11 246 -11 m 274 144 q 312 150 297 144 q 336 171 326 156 q 351 267 351 194 l 351 301 l 268 301 q 220 286 232 301 q 208 219 208 271 q 220 160 208 175 q 274 144 232 144 m 156 871 l 156 1032 l 436 1032 l 436 871 l 156 871 z "},"ą":{"ha":592,"x_min":35,"x_max":531,"o":"m 531 0 q 482 -54 504 -19 q 460 -124 460 -89 q 513 -172 460 -172 l 531 -171 l 531 -267 q 460 -272 501 -272 q 352 -240 385 -272 q 319 -157 319 -207 q 396 0 319 -76 l 360 0 l 354 83 l 344 83 q 286 10 326 32 q 196 -11 246 -11 q 72 41 110 -11 q 35 204 35 93 q 51 333 35 286 q 108 401 68 379 q 218 422 147 422 q 351 417 268 422 l 351 449 q 342 531 351 507 q 309 563 333 556 q 225 569 285 569 q 69 560 167 569 l 69 699 q 279 719 174 719 q 438 692 383 719 q 511 604 492 664 q 531 433 531 544 l 531 0 m 351 301 l 268 301 q 220 286 232 301 q 208 219 208 271 q 220 160 208 175 q 274 144 232 144 q 312 150 297 144 q 336 171 326 156 q 351 267 351 194 l 351 301 z "},"å":{"ha":592,"x_min":35,"x_max":531,"o":"m 196 -11 q 72 41 110 -11 q 35 204 35 93 q 51 333 35 286 q 108 401 68 379 q 218 422 147 422 q 351 417 268 422 l 351 449 q 342 531 351 507 q 309 563 333 556 q 225 569 285 569 q 69 560 167 569 l 69 699 q 279 719 174 719 q 438 692 383 719 q 511 604 492 664 q 531 433 531 544 l 531 0 l 360 0 l 354 83 l 344 83 q 286 10 326 32 q 196 -11 246 -11 m 274 144 q 312 150 297 144 q 336 171 326 156 q 351 267 351 194 l 351 301 l 268 301 q 220 286 232 301 q 208 219 208 271 q 220 160 208 175 q 274 144 232 144 m 296 811 q 177 827 214 811 q 131 873 140 843 q 121 963 121 903 q 131 1053 121 1024 q 177 1099 140 1083 q 296 1115 214 1115 q 416 1099 379 1115 q 463 1053 453 1083 q 472 963 472 1024 q 463 872 472 901 q 416 827 453 843 q 296 811 379 811 m 296 900 q 341 905 328 900 q 358 922 354 910 q 361 963 361 933 q 358 1004 361 992 q 341 1022 354 1017 q 296 1028 328 1028 q 253 1022 265 1028 q 237 1004 240 1017 q 233 963 233 992 q 237 922 233 933 q 253 905 240 910 q 296 900 265 900 z "},"ǻ":{"ha":592,"x_min":35,"x_max":531,"o":"m 196 -11 q 72 41 110 -11 q 35 204 35 93 q 51 333 35 286 q 108 401 68 379 q 218 422 147 422 q 351 417 268 422 l 351 449 q 342 531 351 507 q 309 563 333 556 q 225 569 285 569 q 69 560 167 569 l 69 699 q 279 719 174 719 q 438 692 383 719 q 511 604 492 664 q 531 433 531 544 l 531 0 l 360 0 l 354 83 l 344 83 q 286 10 326 32 q 196 -11 246 -11 m 274 144 q 312 150 297 144 q 336 171 326 156 q 351 267 351 194 l 351 301 l 268 301 q 220 286 232 301 q 208 219 208 271 q 220 160 208 175 q 274 144 232 144 m 294 843 q 176 859 213 843 q 129 905 139 875 q 119 994 119 935 q 129 1085 119 1056 q 176 1131 139 1115 q 294 1147 213 1147 q 415 1131 378 1147 q 461 1085 451 1115 q 471 994 471 1056 q 461 904 471 933 q 415 859 451 875 q 294 843 378 843 m 294 932 q 340 937 326 932 q 356 953 353 942 q 360 994 360 965 q 356 1036 360 1024 q 340 1054 353 1049 q 294 1060 326 1060 q 251 1054 264 1060 q 235 1036 239 1049 q 232 994 232 1024 q 235 953 232 965 q 251 937 239 942 q 294 932 264 932 m 219 1185 l 219 1192 l 293 1388 l 471 1388 l 471 1381 l 361 1185 l 219 1185 z "},"ã":{"ha":592,"x_min":35,"x_max":531,"o":"m 196 -11 q 72 41 110 -11 q 35 204 35 93 q 51 333 35 286 q 108 401 68 379 q 218 422 147 422 q 351 417 268 422 l 351 449 q 342 531 351 507 q 309 563 333 556 q 225 569 285 569 q 69 560 167 569 l 69 699 q 279 719 174 719 q 438 692 383 719 q 511 604 492 664 q 531 433 531 544 l 531 0 l 360 0 l 354 83 l 344 83 q 286 10 326 32 q 196 -11 246 -11 m 274 144 q 312 150 297 144 q 336 171 326 156 q 351 267 351 194 l 351 301 l 268 301 q 220 286 232 301 q 208 219 208 271 q 220 160 208 175 q 274 144 232 144 m 511 1032 q 506 927 511 963 q 478 872 500 892 q 408 851 457 851 q 285 874 360 851 q 251 883 276 876 q 210 890 225 890 q 188 879 192 890 q 183 835 183 868 l 81 835 q 86 940 81 904 q 114 997 92 976 q 185 1017 136 1017 q 307 993 231 1017 q 383 978 363 978 q 405 988 401 978 q 408 1032 408 999 l 511 1032 z "},"æ":{"ha":893,"x_min":35,"x_max":844,"o":"m 844 299 l 529 299 q 536 189 529 219 q 568 149 543 158 q 658 139 593 139 q 828 147 717 139 l 828 10 q 731 -6 790 0 q 618 -11 672 -11 q 501 3 546 -11 q 428 49 456 17 q 233 -11 363 -11 q 79 40 124 -11 q 35 203 35 92 q 51 332 35 285 q 108 401 68 379 q 218 422 147 422 q 350 417 289 422 l 350 447 q 342 531 350 507 q 308 563 333 556 q 224 569 283 569 q 68 560 160 569 l 68 699 q 278 719 188 719 q 443 672 390 719 q 608 719 499 719 q 772 683 722 719 q 833 578 821 647 q 844 353 844 508 l 844 299 m 604 571 q 555 561 569 571 q 535 521 540 551 q 529 419 531 490 l 676 419 q 671 522 676 490 q 651 562 665 553 q 604 571 638 571 m 350 300 l 267 300 q 218 285 229 300 q 207 219 207 269 q 219 154 207 171 q 272 138 231 138 q 317 147 301 138 q 342 179 333 156 q 350 263 350 208 l 350 300 z "},"ǽ":{"ha":893,"x_min":35,"x_max":844,"o":"m 844 299 l 529 299 q 536 189 529 219 q 568 149 543 158 q 658 139 593 139 q 828 147 717 139 l 828 10 q 731 -6 790 0 q 618 -11 672 -11 q 501 3 546 -11 q 428 49 456 17 q 233 -11 363 -11 q 79 40 124 -11 q 35 203 35 92 q 51 332 35 285 q 108 401 68 379 q 218 422 147 422 q 350 417 289 422 l 350 447 q 342 531 350 507 q 308 563 333 556 q 224 569 283 569 q 68 560 160 569 l 68 699 q 278 719 188 719 q 443 672 390 719 q 608 719 499 719 q 772 683 722 719 q 833 578 821 647 q 844 353 844 508 l 844 299 m 604 571 q 555 561 569 571 q 535 521 540 551 q 529 419 531 490 l 676 419 q 671 522 676 490 q 651 562 665 553 q 604 571 638 571 m 350 300 l 267 300 q 218 285 229 300 q 207 219 207 269 q 219 154 207 171 q 272 138 231 138 q 317 147 301 138 q 342 179 333 156 q 350 263 350 208 l 350 300 m 368 829 l 368 836 l 442 1032 l 619 1032 l 619 1025 l 510 829 l 368 829 z "},"b":{"ha":619,"x_min":64,"x_max":572,"o":"m 394 -11 q 250 83 279 -11 l 239 83 l 233 0 l 64 0 l 64 1032 l 243 1032 l 243 633 l 253 633 q 397 719 286 719 q 504 685 467 719 q 557 574 542 651 q 572 353 572 496 q 556 130 572 208 q 501 20 539 51 q 394 -11 463 -11 m 317 150 q 369 161 354 150 q 388 212 383 172 q 393 354 393 251 q 388 497 393 457 q 369 547 383 536 q 317 558 354 558 q 276 550 290 558 q 254 519 261 542 q 243 354 243 482 q 253 196 243 231 q 273 160 258 169 q 317 150 288 150 z "},"c":{"ha":474,"x_min":47,"x_max":438,"o":"m 438 10 q 282 -11 367 -11 q 129 28 179 -11 q 63 142 79 67 q 47 354 47 217 q 65 568 47 492 q 132 682 82 644 q 281 719 182 719 q 433 700 375 719 l 433 561 q 332 569 369 569 q 261 556 282 569 q 233 499 240 542 q 226 354 226 456 q 234 208 226 251 q 263 152 242 165 q 333 139 283 139 q 438 147 368 139 l 438 10 z "},"ć":{"ha":474,"x_min":47,"x_max":438,"o":"m 438 10 q 282 -11 367 -11 q 129 28 179 -11 q 63 142 79 67 q 47 354 47 217 q 65 568 47 492 q 132 682 82 644 q 281 719 182 719 q 433 700 375 719 l 433 561 q 332 569 369 569 q 261 556 282 569 q 233 499 240 542 q 226 354 226 456 q 234 208 226 251 q 263 152 242 165 q 333 139 283 139 q 438 147 368 139 l 438 10 m 158 829 l 158 836 l 232 1032 l 410 1032 l 410 1025 l 300 829 l 158 829 z "},"č":{"ha":474,"x_min":44,"x_max":438,"o":"m 438 10 q 282 -11 367 -11 q 129 28 179 -11 q 63 142 79 67 q 47 354 47 217 q 65 568 47 492 q 132 682 82 644 q 281 719 182 719 q 433 700 375 719 l 433 561 q 332 569 369 569 q 261 556 282 569 q 233 499 240 542 q 226 354 226 456 q 234 208 226 251 q 263 152 242 165 q 333 139 283 139 q 438 147 368 139 l 438 10 m 149 849 l 44 1021 l 44 1032 l 167 1032 l 238 933 l 310 1032 l 432 1032 l 432 1021 l 326 849 l 149 849 z "},"ç":{"ha":474,"x_min":47,"x_max":438,"o":"m 438 10 q 296 -11 374 -8 l 250 -262 l 93 -262 l 93 -256 l 179 3 q 94 65 122 21 q 56 176 65 108 q 47 354 47 243 q 65 568 47 492 q 132 682 82 644 q 281 719 182 719 q 433 700 375 719 l 433 561 q 332 569 369 569 q 261 556 282 569 q 233 499 240 542 q 226 354 226 456 q 234 208 226 251 q 263 152 242 165 q 333 139 283 139 q 438 147 368 139 l 438 10 z "},"ĉ":{"ha":474,"x_min":43,"x_max":438,"o":"m 438 10 q 282 -11 367 -11 q 129 28 179 -11 q 63 142 79 67 q 47 354 47 217 q 65 568 47 492 q 132 682 82 644 q 281 719 182 719 q 433 700 375 719 l 433 561 q 332 569 369 569 q 261 556 282 569 q 233 499 240 542 q 226 354 226 456 q 234 208 226 251 q 263 152 242 165 q 333 139 283 139 q 438 147 368 139 l 438 10 m 43 850 l 43 861 l 147 1032 l 326 1032 l 432 861 l 432 850 l 308 850 l 236 949 l 165 850 l 43 850 z "},"ċ":{"ha":474,"x_min":47,"x_max":438,"o":"m 438 10 q 282 -11 367 -11 q 129 28 179 -11 q 63 142 79 67 q 47 354 47 217 q 65 568 47 492 q 132 682 82 644 q 281 719 182 719 q 433 700 375 719 l 433 561 q 332 569 369 569 q 261 556 282 569 q 233 499 240 542 q 226 354 226 456 q 234 208 226 251 q 263 152 242 165 q 333 139 283 139 q 438 147 368 139 l 438 10 m 161 871 l 161 1014 l 315 1014 l 315 871 l 161 871 z "},"d":{"ha":619,"x_min":47,"x_max":556,"o":"m 225 -11 q 118 20 156 -11 q 64 129 81 51 q 47 353 47 207 q 63 574 47 496 q 115 685 78 651 q 222 719 153 719 q 313 699 276 719 q 367 633 349 678 l 376 633 l 376 1032 l 556 1032 l 556 0 l 386 0 l 381 83 l 369 83 q 225 -11 340 -11 m 303 150 q 347 160 332 150 q 368 197 361 169 q 376 354 376 238 q 371 497 376 467 q 350 546 365 533 q 303 558 335 558 q 251 547 265 558 q 231 497 236 536 q 226 354 226 457 q 231 212 226 251 q 251 161 236 172 q 303 150 265 150 z "},"ð":{"ha":610,"x_min":47,"x_max":558,"o":"m 304 -11 q 131 21 185 -11 q 63 124 78 53 q 47 353 47 196 q 60 565 47 490 q 115 679 72 640 q 243 718 157 718 q 342 701 301 718 l 346 707 q 301 835 325 785 l 178 817 l 178 922 l 251 932 q 185 1026 215 988 l 185 1032 l 367 1032 q 422 958 379 1017 l 544 976 l 544 871 l 474 860 q 538 640 511 776 q 558 357 558 536 q 544 125 558 197 q 476 21 529 53 q 304 -11 424 -11 m 303 139 q 358 151 343 139 q 376 202 372 164 q 379 353 379 240 q 376 501 379 463 q 357 555 372 540 q 303 569 342 569 q 248 557 263 569 q 230 506 233 544 q 226 353 226 467 q 230 202 226 240 q 248 151 233 164 q 303 139 263 139 z "},"ď":{"ha":711,"x_min":47,"x_max":788,"o":"m 225 -11 q 118 20 156 -11 q 64 129 81 51 q 47 353 47 207 q 63 574 47 496 q 115 685 78 651 q 222 719 153 719 q 313 699 276 719 q 367 633 349 678 l 376 633 l 376 1032 l 556 1032 l 556 0 l 386 0 l 381 83 l 369 83 q 225 -11 340 -11 m 303 150 q 347 160 332 150 q 368 197 361 169 q 376 354 376 238 q 371 497 376 467 q 350 546 365 533 q 303 558 335 558 q 251 547 265 558 q 231 497 236 536 q 226 354 226 457 q 231 212 226 251 q 251 161 236 172 q 303 150 265 150 m 597 594 l 619 881 l 619 956 l 788 956 l 788 881 l 726 594 l 597 594 z "},"đ":{"ha":619,"x_min":47,"x_max":614,"o":"m 614 807 l 556 807 l 556 0 l 386 0 l 381 83 l 369 83 q 225 -11 340 -11 q 118 20 156 -11 q 64 129 81 51 q 47 353 47 207 q 63 574 47 496 q 115 685 78 651 q 222 719 153 719 q 313 699 276 719 q 367 633 349 678 l 376 633 l 376 807 l 249 807 l 249 956 l 376 956 l 376 1032 l 556 1032 l 556 956 l 614 956 l 614 807 m 368 197 q 376 354 376 238 q 371 497 376 467 q 350 546 365 533 q 303 558 335 558 q 251 547 265 558 q 231 497 236 536 q 226 354 226 457 q 231 212 226 251 q 251 161 236 172 q 303 150 265 150 q 347 160 332 150 q 368 197 361 169 z "},"ḍ":{"ha":619,"x_min":47,"x_max":556,"o":"m 225 -11 q 118 20 156 -11 q 64 129 81 51 q 47 353 47 207 q 63 574 47 496 q 115 685 78 651 q 222 719 153 719 q 313 699 276 719 q 367 633 349 678 l 376 633 l 376 1032 l 556 1032 l 556 0 l 386 0 l 381 83 l 369 83 q 225 -11 340 -11 m 303 150 q 347 160 332 150 q 368 197 361 169 q 376 354 376 238 q 371 497 376 467 q 350 546 365 533 q 303 558 335 558 q 251 547 265 558 q 231 497 236 536 q 226 354 226 457 q 231 212 226 251 q 251 161 236 172 q 303 150 265 150 m 211 -268 l 211 -86 l 407 -86 l 407 -268 l 211 -268 z "},"ǳ":{"ha":1167,"x_min":47,"x_max":1122,"o":"m 225 -11 q 118 20 156 -11 q 64 129 81 51 q 47 353 47 207 q 63 574 47 496 q 115 685 78 651 q 222 719 153 719 q 313 699 276 719 q 367 633 349 678 l 376 633 l 376 1032 l 556 1032 l 556 0 l 386 0 l 381 83 l 369 83 q 225 -11 340 -11 m 303 150 q 347 160 332 150 q 368 197 361 169 q 376 354 376 238 q 371 497 376 467 q 350 546 365 533 q 303 558 335 558 q 251 547 265 558 q 231 497 236 536 q 226 354 226 457 q 231 212 226 251 q 251 161 236 172 q 303 150 265 150 m 664 0 l 664 140 l 911 558 l 674 558 l 674 708 l 1119 708 l 1119 568 l 874 150 l 1122 150 l 1122 0 l 664 0 z "},"ǆ":{"ha":1167,"x_min":47,"x_max":1122,"o":"m 225 -11 q 118 20 156 -11 q 64 129 81 51 q 47 353 47 207 q 63 574 47 496 q 115 685 78 651 q 222 719 153 719 q 313 699 276 719 q 367 633 349 678 l 376 633 l 376 1032 l 556 1032 l 556 0 l 386 0 l 381 83 l 369 83 q 225 -11 340 -11 m 303 150 q 347 160 332 150 q 368 197 361 169 q 376 354 376 238 q 371 497 376 467 q 350 546 365 533 q 303 558 335 558 q 251 547 265 558 q 231 497 236 536 q 226 354 226 457 q 231 212 226 251 q 251 161 236 172 q 303 150 265 150 m 664 0 l 664 140 l 911 558 l 674 558 l 674 708 l 1119 708 l 1119 568 l 874 150 l 1122 150 l 1122 0 l 664 0 m 799 849 l 694 1021 l 694 1032 l 817 1032 l 888 933 l 960 1032 l 1082 1032 l 1082 1021 l 976 849 l 799 849 z "},"e":{"ha":590,"x_min":47,"x_max":542,"o":"m 542 299 l 226 299 q 233 189 226 219 q 265 149 240 158 q 356 139 290 139 q 525 147 408 139 l 525 10 q 428 -5 488 1 q 314 -11 368 -11 q 134 26 190 -11 q 63 135 78 63 q 47 353 47 207 q 63 569 47 496 q 132 681 78 643 q 303 719 186 719 q 467 684 417 719 q 530 578 518 649 q 542 353 542 507 l 542 299 m 301 571 q 252 561 267 571 q 232 521 238 551 q 226 419 226 490 l 374 419 q 368 522 374 490 q 349 562 363 553 q 301 571 335 571 z "},"é":{"ha":590,"x_min":47,"x_max":542,"o":"m 542 299 l 226 299 q 233 189 226 219 q 265 149 240 158 q 356 139 290 139 q 525 147 408 139 l 525 10 q 428 -5 488 1 q 314 -11 368 -11 q 134 26 190 -11 q 63 135 78 63 q 47 353 47 207 q 63 569 47 496 q 132 681 78 643 q 303 719 186 719 q 467 684 417 719 q 530 578 518 649 q 542 353 542 507 l 542 299 m 301 571 q 252 561 267 571 q 232 521 238 551 q 226 419 226 490 l 374 419 q 368 522 374 490 q 349 562 363 553 q 301 571 335 571 m 228 829 l 228 836 l 301 1032 l 479 1032 l 479 1025 l 369 829 l 228 829 z "},"ĕ":{"ha":590,"x_min":47,"x_max":542,"o":"m 542 299 l 226 299 q 233 189 226 219 q 265 149 240 158 q 356 139 290 139 q 525 147 408 139 l 525 10 q 428 -5 488 1 q 314 -11 368 -11 q 134 26 190 -11 q 63 135 78 63 q 47 353 47 207 q 63 569 47 496 q 132 681 78 643 q 303 719 186 719 q 467 684 417 719 q 530 578 518 649 q 542 353 542 507 l 542 299 m 301 571 q 252 561 267 571 q 232 521 238 551 q 226 419 226 490 l 374 419 q 368 522 374 490 q 349 562 363 553 q 301 571 335 571 m 475 1032 q 462 929 475 969 q 409 866 449 889 q 292 843 369 843 q 176 866 215 843 q 125 929 138 889 q 113 1032 113 969 l 222 1032 q 226 984 222 1000 q 244 958 229 968 q 292 947 258 947 q 353 967 340 947 q 365 1032 365 988 l 475 1032 z "},"ě":{"ha":590,"x_min":47,"x_max":542,"o":"m 542 299 l 226 299 q 233 189 226 219 q 265 149 240 158 q 356 139 290 139 q 525 147 408 139 l 525 10 q 428 -5 488 1 q 314 -11 368 -11 q 134 26 190 -11 q 63 135 78 63 q 47 353 47 207 q 63 569 47 496 q 132 681 78 643 q 303 719 186 719 q 467 684 417 719 q 530 578 518 649 q 542 353 542 507 l 542 299 m 301 571 q 252 561 267 571 q 232 521 238 551 q 226 419 226 490 l 374 419 q 368 522 374 490 q 349 562 363 553 q 301 571 335 571 m 206 849 l 101 1021 l 101 1032 l 224 1032 l 294 933 l 367 1032 l 489 1032 l 489 1021 l 383 849 l 206 849 z "},"ê":{"ha":590,"x_min":47,"x_max":542,"o":"m 542 299 l 226 299 q 233 189 226 219 q 265 149 240 158 q 356 139 290 139 q 525 147 408 139 l 525 10 q 428 -5 488 1 q 314 -11 368 -11 q 134 26 190 -11 q 63 135 78 63 q 47 353 47 207 q 63 569 47 496 q 132 681 78 643 q 303 719 186 719 q 467 684 417 719 q 530 578 518 649 q 542 353 542 507 l 542 299 m 301 571 q 252 561 267 571 q 232 521 238 551 q 226 419 226 490 l 374 419 q 368 522 374 490 q 349 562 363 553 q 301 571 335 571 m 111 850 l 111 861 l 215 1032 l 394 1032 l 500 861 l 500 850 l 376 850 l 304 949 l 233 850 l 111 850 z "},"ế":{"ha":590,"x_min":47,"x_max":576,"o":"m 542 299 l 226 299 q 233 189 226 219 q 265 149 240 158 q 356 139 290 139 q 525 147 408 139 l 525 10 q 428 -5 488 1 q 314 -11 368 -11 q 134 26 190 -11 q 63 135 78 63 q 47 353 47 207 q 63 569 47 496 q 132 681 78 643 q 303 719 186 719 q 467 684 417 719 q 530 578 518 649 q 542 353 542 507 l 542 299 m 301 571 q 252 561 267 571 q 232 521 238 551 q 226 419 226 490 l 374 419 q 368 522 374 490 q 349 562 363 553 q 301 571 335 571 m 101 850 l 101 861 l 206 1032 l 385 1032 l 490 861 l 490 850 l 367 850 l 294 949 l 224 850 l 101 850 m 325 1069 l 325 1076 l 399 1272 l 576 1272 l 576 1265 l 467 1069 l 325 1069 z "},"ệ":{"ha":590,"x_min":47,"x_max":542,"o":"m 542 299 l 226 299 q 233 189 226 219 q 265 149 240 158 q 356 139 290 139 q 525 147 408 139 l 525 10 q 428 -5 488 1 q 314 -11 368 -11 q 134 26 190 -11 q 63 135 78 63 q 47 353 47 207 q 63 569 47 496 q 132 681 78 643 q 303 719 186 719 q 467 684 417 719 q 530 578 518 649 q 542 353 542 507 l 542 299 m 301 571 q 252 561 267 571 q 232 521 238 551 q 226 419 226 490 l 374 419 q 368 522 374 490 q 349 562 363 553 q 301 571 335 571 m 196 -268 l 196 -86 l 392 -86 l 392 -268 l 196 -268 m 100 850 l 100 861 l 204 1032 l 383 1032 l 489 861 l 489 850 l 365 850 l 293 949 l 222 850 l 100 850 z "},"ề":{"ha":590,"x_min":47,"x_max":542,"o":"m 542 299 l 226 299 q 233 189 226 219 q 265 149 240 158 q 356 139 290 139 q 525 147 408 139 l 525 10 q 428 -5 488 1 q 314 -11 368 -11 q 134 26 190 -11 q 63 135 78 63 q 47 353 47 207 q 63 569 47 496 q 132 681 78 643 q 303 719 186 719 q 467 684 417 719 q 530 578 518 649 q 542 353 542 507 l 542 299 m 301 571 q 252 561 267 571 q 232 521 238 551 q 226 419 226 490 l 374 419 q 368 522 374 490 q 349 562 363 553 q 301 571 335 571 m 90 850 l 90 861 l 194 1032 l 374 1032 l 479 861 l 479 850 l 356 850 l 283 949 l 213 850 l 90 850 m 356 1069 l 247 1265 l 247 1272 l 425 1272 l 499 1076 l 499 1069 l 356 1069 z "},"ể":{"ha":590,"x_min":47,"x_max":607,"o":"m 542 299 l 226 299 q 233 189 226 219 q 265 149 240 158 q 356 139 290 139 q 525 147 408 139 l 525 10 q 428 -5 488 1 q 314 -11 368 -11 q 134 26 190 -11 q 63 135 78 63 q 47 353 47 207 q 63 569 47 496 q 132 681 78 643 q 303 719 186 719 q 467 684 417 719 q 530 578 518 649 q 542 353 542 507 l 542 299 m 301 571 q 252 561 267 571 q 232 521 238 551 q 226 419 226 490 l 374 419 q 368 522 374 490 q 349 562 363 553 q 301 571 335 571 m 100 850 l 100 861 l 204 1032 l 383 1032 l 489 861 l 489 850 l 365 850 l 293 949 l 222 850 l 100 850 m 351 1088 q 363 1139 351 1124 q 407 1167 375 1154 l 425 1174 q 468 1194 457 1186 q 479 1217 479 1203 q 467 1236 479 1232 q 422 1240 456 1240 q 283 1236 350 1240 l 283 1339 q 436 1357 376 1357 q 563 1331 519 1357 q 607 1236 607 1306 q 593 1165 607 1189 q 538 1121 579 1140 l 515 1111 q 472 1088 479 1096 q 464 1060 464 1081 l 351 1060 l 351 1088 z "},"ễ":{"ha":590,"x_min":47,"x_max":542,"o":"m 542 299 l 226 299 q 233 189 226 219 q 265 149 240 158 q 356 139 290 139 q 525 147 408 139 l 525 10 q 428 -5 488 1 q 314 -11 368 -11 q 134 26 190 -11 q 63 135 78 63 q 47 353 47 207 q 63 569 47 496 q 132 681 78 643 q 303 719 186 719 q 467 684 417 719 q 530 578 518 649 q 542 353 542 507 l 542 299 m 301 571 q 252 561 267 571 q 232 521 238 551 q 226 419 226 490 l 374 419 q 368 522 374 490 q 349 562 363 553 q 301 571 335 571 m 97 850 l 97 861 l 201 1032 l 381 1032 l 486 861 l 486 850 l 363 850 l 290 949 l 219 850 l 97 850 m 510 1272 q 504 1167 510 1203 q 477 1112 499 1132 q 407 1092 456 1092 q 283 1114 358 1092 q 249 1124 275 1117 q 208 1131 224 1131 q 186 1119 190 1131 q 182 1075 182 1108 l 79 1075 q 85 1181 79 1144 q 113 1237 90 1217 q 183 1257 135 1257 q 306 1233 229 1257 q 382 1218 361 1218 q 403 1228 400 1218 q 407 1272 407 1239 l 510 1272 z "},"ȅ":{"ha":590,"x_min":47,"x_max":542,"o":"m 542 299 l 226 299 q 233 189 226 219 q 265 149 240 158 q 356 139 290 139 q 525 147 408 139 l 525 10 q 428 -5 488 1 q 314 -11 368 -11 q 134 26 190 -11 q 63 135 78 63 q 47 353 47 207 q 63 569 47 496 q 132 681 78 643 q 303 719 186 719 q 467 684 417 719 q 530 578 518 649 q 542 353 542 507 l 542 299 m 301 571 q 252 561 267 571 q 232 521 238 551 q 226 419 226 490 l 374 419 q 368 522 374 490 q 349 562 363 553 q 301 571 335 571 m 257 847 l 139 847 l 49 1010 l 49 1015 l 194 1015 l 257 853 l 257 847 m 460 847 l 342 847 l 253 1010 l 253 1015 l 399 1015 l 460 853 l 460 847 z "},"ë":{"ha":590,"x_min":47,"x_max":542,"o":"m 542 299 l 226 299 q 233 189 226 219 q 265 149 240 158 q 356 139 290 139 q 525 147 408 139 l 525 10 q 428 -5 488 1 q 314 -11 368 -11 q 134 26 190 -11 q 63 135 78 63 q 47 353 47 207 q 63 569 47 496 q 132 681 78 643 q 303 719 186 719 q 467 684 417 719 q 530 578 518 649 q 542 353 542 507 l 542 299 m 301 571 q 252 561 267 571 q 232 521 238 551 q 226 419 226 490 l 374 419 q 368 522 374 490 q 349 562 363 553 q 301 571 335 571 m 106 865 l 106 1008 l 260 1008 l 260 865 l 106 865 m 349 865 l 349 1008 l 503 1008 l 503 865 l 349 865 z "},"ė":{"ha":590,"x_min":47,"x_max":542,"o":"m 542 299 l 226 299 q 233 189 226 219 q 265 149 240 158 q 356 139 290 139 q 525 147 408 139 l 525 10 q 428 -5 488 1 q 314 -11 368 -11 q 134 26 190 -11 q 63 135 78 63 q 47 353 47 207 q 63 569 47 496 q 132 681 78 643 q 303 719 186 719 q 467 684 417 719 q 530 578 518 649 q 542 353 542 507 l 542 299 m 301 571 q 252 561 267 571 q 232 521 238 551 q 226 419 226 490 l 374 419 q 368 522 374 490 q 349 562 363 553 q 301 571 335 571 m 218 871 l 218 1014 l 372 1014 l 372 871 l 218 871 z "},"ẹ":{"ha":590,"x_min":47,"x_max":542,"o":"m 542 299 l 226 299 q 233 189 226 219 q 265 149 240 158 q 356 139 290 139 q 525 147 408 139 l 525 10 q 428 -5 488 1 q 314 -11 368 -11 q 134 26 190 -11 q 63 135 78 63 q 47 353 47 207 q 63 569 47 496 q 132 681 78 643 q 303 719 186 719 q 467 684 417 719 q 530 578 518 649 q 542 353 542 507 l 542 299 m 301 571 q 252 561 267 571 q 232 521 238 551 q 226 419 226 490 l 374 419 q 368 522 374 490 q 349 562 363 553 q 301 571 335 571 m 196 -268 l 196 -86 l 392 -86 l 392 -268 l 196 -268 z "},"è":{"ha":590,"x_min":47,"x_max":542,"o":"m 542 299 l 226 299 q 233 189 226 219 q 265 149 240 158 q 356 139 290 139 q 525 147 408 139 l 525 10 q 428 -5 488 1 q 314 -11 368 -11 q 134 26 190 -11 q 63 135 78 63 q 47 353 47 207 q 63 569 47 496 q 132 681 78 643 q 303 719 186 719 q 467 684 417 719 q 530 578 518 649 q 542 353 542 507 l 542 299 m 301 571 q 252 561 267 571 q 232 521 238 551 q 226 419 226 490 l 374 419 q 368 522 374 490 q 349 562 363 553 q 301 571 335 571 m 242 829 l 133 1025 l 133 1032 l 311 1032 l 385 836 l 385 829 l 242 829 z "},"ẻ":{"ha":590,"x_min":47,"x_max":542,"o":"m 542 299 l 226 299 q 233 189 226 219 q 265 149 240 158 q 356 139 290 139 q 525 147 408 139 l 525 10 q 428 -5 488 1 q 314 -11 368 -11 q 134 26 190 -11 q 63 135 78 63 q 47 353 47 207 q 63 569 47 496 q 132 681 78 643 q 303 719 186 719 q 467 684 417 719 q 530 578 518 649 q 542 353 542 507 l 542 299 m 301 571 q 252 561 267 571 q 232 521 238 551 q 226 419 226 490 l 374 419 q 368 522 374 490 q 349 562 363 553 q 301 571 335 571 m 200 878 q 212 929 200 914 q 256 957 224 944 l 274 964 q 317 985 306 976 q 328 1007 328 993 q 316 1026 328 1022 q 271 1031 304 1031 q 132 1026 199 1031 l 132 1129 q 285 1147 225 1147 q 412 1122 368 1147 q 456 1026 456 1096 q 442 955 456 979 q 386 911 428 931 l 364 901 q 320 878 328 886 q 313 850 313 871 l 200 850 l 200 878 z "},"ȇ":{"ha":590,"x_min":47,"x_max":542,"o":"m 542 299 l 226 299 q 233 189 226 219 q 265 149 240 158 q 356 139 290 139 q 525 147 408 139 l 525 10 q 428 -5 488 1 q 314 -11 368 -11 q 134 26 190 -11 q 63 135 78 63 q 47 353 47 207 q 63 569 47 496 q 132 681 78 643 q 303 719 186 719 q 467 684 417 719 q 530 578 518 649 q 542 353 542 507 l 542 299 m 301 571 q 252 561 267 571 q 232 521 238 551 q 226 419 226 490 l 374 419 q 368 522 374 490 q 349 562 363 553 q 301 571 335 571 m 113 851 q 126 954 113 914 q 178 1017 139 994 q 296 1040 218 1040 q 411 1017 372 1040 q 463 954 450 994 q 475 851 475 914 l 365 851 q 362 899 365 883 q 344 926 358 915 q 296 936 329 936 q 235 916 247 936 q 222 851 222 896 l 113 851 z "},"ē":{"ha":590,"x_min":47,"x_max":542,"o":"m 542 299 l 226 299 q 233 189 226 219 q 265 149 240 158 q 356 139 290 139 q 525 147 408 139 l 525 10 q 428 -5 488 1 q 314 -11 368 -11 q 134 26 190 -11 q 63 135 78 63 q 47 353 47 207 q 63 569 47 496 q 132 681 78 643 q 303 719 186 719 q 467 684 417 719 q 530 578 518 649 q 542 353 542 507 l 542 299 m 301 571 q 252 561 267 571 q 232 521 238 551 q 226 419 226 490 l 374 419 q 368 522 374 490 q 349 562 363 553 q 301 571 335 571 m 154 871 l 154 1032 l 435 1032 l 435 871 l 154 871 z "},"ę":{"ha":590,"x_min":47,"x_max":542,"o":"m 542 299 l 226 299 q 233 189 226 219 q 265 149 240 158 q 356 139 290 139 q 525 147 408 139 l 525 10 q 461 -51 490 -14 q 432 -124 432 -87 q 444 -158 432 -144 q 485 -172 456 -172 l 504 -171 l 504 -267 q 433 -272 463 -272 q 324 -240 357 -272 q 292 -158 292 -207 q 369 -10 292 -81 q 314 -11 350 -11 q 134 26 190 -11 q 63 135 78 63 q 47 353 47 207 q 63 569 47 496 q 132 681 78 643 q 303 719 186 719 q 467 684 417 719 q 530 578 518 649 q 542 353 542 507 l 542 299 m 301 571 q 252 561 267 571 q 232 521 238 551 q 226 419 226 490 l 374 419 q 368 522 374 490 q 349 562 363 553 q 301 571 335 571 z "},"ẽ":{"ha":590,"x_min":47,"x_max":542,"o":"m 542 299 l 226 299 q 233 189 226 219 q 265 149 240 158 q 356 139 290 139 q 525 147 408 139 l 525 10 q 428 -5 488 1 q 314 -11 368 -11 q 134 26 190 -11 q 63 135 78 63 q 47 353 47 207 q 63 569 47 496 q 132 681 78 643 q 303 719 186 719 q 467 684 417 719 q 530 578 518 649 q 542 353 542 507 l 542 299 m 301 571 q 252 561 267 571 q 232 521 238 551 q 226 419 226 490 l 374 419 q 368 522 374 490 q 349 562 363 553 q 301 571 335 571 m 510 1032 q 504 927 510 963 q 477 872 499 892 q 407 851 456 851 q 283 874 358 851 q 249 883 275 876 q 208 890 224 890 q 186 879 190 890 q 182 835 182 868 l 79 835 q 85 940 79 904 q 113 997 90 976 q 183 1017 135 1017 q 306 993 229 1017 q 382 978 361 978 q 403 988 400 978 q 407 1032 407 999 l 510 1032 z "},"ə":{"ha":590,"x_min":49,"x_max":543,"o":"m 276 719 q 456 683 400 719 q 528 574 513 646 q 543 356 543 501 q 528 139 543 213 q 458 27 513 65 q 288 -11 404 -11 q 123 24 174 -11 q 60 131 72 60 q 49 356 49 201 l 49 410 l 364 410 q 357 519 364 489 q 325 560 350 550 q 235 569 300 569 q 65 561 182 569 l 65 699 q 163 713 103 707 q 276 719 222 719 m 289 138 q 338 147 324 138 q 358 188 353 157 q 364 289 364 218 l 217 289 q 222 187 217 218 q 242 147 228 156 q 289 138 256 138 z "},"f":{"ha":429,"x_min":21,"x_max":404,"o":"m 108 558 l 21 558 l 21 708 l 108 708 l 108 750 q 131 942 108 885 q 211 1016 154 1000 q 404 1032 268 1032 l 404 899 q 326 892 349 899 q 295 865 303 886 q 288 790 288 843 l 288 708 l 404 708 l 404 558 l 288 558 l 288 0 l 108 0 l 108 558 z "},"g":{"ha":619,"x_min":47,"x_max":556,"o":"m 288 -282 q 182 -278 238 -282 q 92 -267 126 -274 l 92 -129 q 128 -131 117 -129 l 246 -132 q 337 -121 311 -132 q 369 -78 363 -110 q 376 36 376 -46 l 376 89 l 365 89 q 224 3 333 3 q 116 35 154 3 q 63 144 78 68 q 47 360 47 219 q 64 580 47 503 q 118 688 81 657 q 225 719 156 719 q 313 698 274 719 q 369 625 353 676 l 381 625 l 386 708 l 556 708 l 556 85 q 540 -133 556 -60 q 468 -244 525 -206 q 288 -282 411 -282 m 301 163 q 347 172 332 163 q 368 210 361 182 q 376 360 376 243 q 369 499 376 464 q 349 545 364 533 q 301 557 335 557 q 250 547 264 557 q 231 498 236 536 q 226 360 226 460 q 231 222 226 260 q 250 173 236 183 q 301 163 264 163 z "},"ǵ":{"ha":619,"x_min":47,"x_max":556,"o":"m 288 -282 q 182 -278 238 -282 q 92 -267 126 -274 l 92 -129 q 128 -131 117 -129 l 246 -132 q 337 -121 311 -132 q 369 -78 363 -110 q 376 36 376 -46 l 376 89 l 365 89 q 224 3 333 3 q 116 35 154 3 q 63 144 78 68 q 47 360 47 219 q 64 580 47 503 q 118 688 81 657 q 225 719 156 719 q 313 698 274 719 q 369 625 353 676 l 381 625 l 386 708 l 556 708 l 556 85 q 540 -133 556 -60 q 468 -244 525 -206 q 288 -282 411 -282 m 301 163 q 347 172 332 163 q 368 210 361 182 q 376 360 376 243 q 369 499 376 464 q 349 545 364 533 q 301 557 335 557 q 250 547 264 557 q 231 498 236 536 q 226 360 226 460 q 231 222 226 260 q 250 173 236 183 q 301 163 264 163 m 231 829 l 231 836 l 304 1032 l 482 1032 l 482 1025 l 372 829 l 231 829 z "},"ğ":{"ha":619,"x_min":47,"x_max":556,"o":"m 288 -282 q 182 -278 238 -282 q 92 -267 126 -274 l 92 -129 q 128 -131 117 -129 l 246 -132 q 337 -121 311 -132 q 369 -78 363 -110 q 376 36 376 -46 l 376 89 l 365 89 q 224 3 333 3 q 116 35 154 3 q 63 144 78 68 q 47 360 47 219 q 64 580 47 503 q 118 688 81 657 q 225 719 156 719 q 313 698 274 719 q 369 625 353 676 l 381 625 l 386 708 l 556 708 l 556 85 q 540 -133 556 -60 q 468 -244 525 -206 q 288 -282 411 -282 m 301 163 q 347 172 332 163 q 368 210 361 182 q 376 360 376 243 q 369 499 376 464 q 349 545 364 533 q 301 557 335 557 q 250 547 264 557 q 231 498 236 536 q 226 360 226 460 q 231 222 226 260 q 250 173 236 183 q 301 163 264 163 m 490 1032 q 477 929 490 969 q 424 866 464 889 q 307 843 385 843 q 192 866 231 843 q 140 929 153 889 q 128 1032 128 969 l 238 1032 q 241 984 238 1000 q 259 958 244 968 q 307 947 274 947 q 368 967 356 947 q 381 1032 381 988 l 490 1032 z "},"ǧ":{"ha":619,"x_min":47,"x_max":556,"o":"m 288 -282 q 182 -278 238 -282 q 92 -267 126 -274 l 92 -129 q 128 -131 117 -129 l 246 -132 q 337 -121 311 -132 q 369 -78 363 -110 q 376 36 376 -46 l 376 89 l 365 89 q 224 3 333 3 q 116 35 154 3 q 63 144 78 68 q 47 360 47 219 q 64 580 47 503 q 118 688 81 657 q 225 719 156 719 q 313 698 274 719 q 369 625 353 676 l 381 625 l 386 708 l 556 708 l 556 85 q 540 -133 556 -60 q 468 -244 525 -206 q 288 -282 411 -282 m 301 163 q 347 172 332 163 q 368 210 361 182 q 376 360 376 243 q 369 499 376 464 q 349 545 364 533 q 301 557 335 557 q 250 547 264 557 q 231 498 236 536 q 226 360 226 460 q 231 222 226 260 q 250 173 236 183 q 301 163 264 163 m 221 849 l 117 1021 l 117 1032 l 239 1032 l 310 933 l 382 1032 l 504 1032 l 504 1021 l 399 849 l 221 849 z "},"ĝ":{"ha":619,"x_min":47,"x_max":556,"o":"m 288 -282 q 182 -278 238 -282 q 92 -267 126 -274 l 92 -129 q 128 -131 117 -129 l 246 -132 q 337 -121 311 -132 q 369 -78 363 -110 q 376 36 376 -46 l 376 89 l 365 89 q 224 3 333 3 q 116 35 154 3 q 63 144 78 68 q 47 360 47 219 q 64 580 47 503 q 118 688 81 657 q 225 719 156 719 q 313 698 274 719 q 369 625 353 676 l 381 625 l 386 708 l 556 708 l 556 85 q 540 -133 556 -60 q 468 -244 525 -206 q 288 -282 411 -282 m 301 163 q 347 172 332 163 q 368 210 361 182 q 376 360 376 243 q 369 499 376 464 q 349 545 364 533 q 301 557 335 557 q 250 547 264 557 q 231 498 236 536 q 226 360 226 460 q 231 222 226 260 q 250 173 236 183 q 301 163 264 163 m 115 850 l 115 861 l 219 1032 l 399 1032 l 504 861 l 504 850 l 381 850 l 308 949 l 238 850 l 115 850 z "},"ģ":{"ha":619,"x_min":47,"x_max":556,"o":"m 288 -282 q 182 -278 238 -282 q 92 -267 126 -274 l 92 -129 q 128 -131 117 -129 l 246 -132 q 337 -121 311 -132 q 369 -78 363 -110 q 376 36 376 -46 l 376 89 l 365 89 q 224 3 333 3 q 116 35 154 3 q 63 144 78 68 q 47 360 47 219 q 64 580 47 503 q 118 688 81 657 q 225 719 156 719 q 313 698 274 719 q 369 625 353 676 l 381 625 l 386 708 l 556 708 l 556 85 q 540 -133 556 -60 q 468 -244 525 -206 q 288 -282 411 -282 m 301 163 q 347 172 332 163 q 368 210 361 182 q 376 360 376 243 q 369 499 376 464 q 349 545 364 533 q 301 557 335 557 q 250 547 264 557 q 231 498 236 536 q 226 360 226 460 q 231 222 226 260 q 250 173 236 183 q 301 163 264 163 m 407 1068 q 347 1055 361 1068 q 332 1003 332 1042 l 332 982 l 401 982 l 401 831 l 217 831 l 217 932 q 229 1067 217 1024 q 281 1128 242 1110 q 407 1146 321 1146 l 407 1068 z "},"ġ":{"ha":619,"x_min":47,"x_max":556,"o":"m 288 -282 q 182 -278 238 -282 q 92 -267 126 -274 l 92 -129 q 128 -131 117 -129 l 246 -132 q 337 -121 311 -132 q 369 -78 363 -110 q 376 36 376 -46 l 376 89 l 365 89 q 224 3 333 3 q 116 35 154 3 q 63 144 78 68 q 47 360 47 219 q 64 580 47 503 q 118 688 81 657 q 225 719 156 719 q 313 698 274 719 q 369 625 353 676 l 381 625 l 386 708 l 556 708 l 556 85 q 540 -133 556 -60 q 468 -244 525 -206 q 288 -282 411 -282 m 301 163 q 347 172 332 163 q 368 210 361 182 q 376 360 376 243 q 369 499 376 464 q 349 545 364 533 q 301 557 335 557 q 250 547 264 557 q 231 498 236 536 q 226 360 226 460 q 231 222 226 260 q 250 173 236 183 q 301 163 264 163 m 233 871 l 233 1014 l 388 1014 l 388 871 l 233 871 z "},"h":{"ha":625,"x_min":64,"x_max":564,"o":"m 385 383 q 381 506 385 472 q 364 548 376 539 q 317 557 351 557 q 266 543 281 557 q 247 491 251 529 q 243 363 243 453 l 243 0 l 64 0 l 64 1032 l 243 1032 l 243 626 l 253 626 q 310 699 271 678 q 406 719 350 719 q 506 693 472 719 q 552 614 540 667 q 564 468 564 561 l 564 0 l 385 0 l 385 383 z "},"ħ":{"ha":625,"x_min":6,"x_max":564,"o":"m 406 719 q 506 693 472 719 q 552 614 540 667 q 564 468 564 561 l 564 0 l 385 0 l 385 383 q 381 506 385 472 q 364 548 376 539 q 317 557 351 557 q 266 543 281 557 q 247 491 251 529 q 243 363 243 453 l 243 0 l 64 0 l 64 807 l 6 807 l 6 956 l 64 956 l 64 1032 l 243 1032 l 243 956 l 372 956 l 372 807 l 243 807 l 243 626 l 253 626 q 310 699 271 678 q 406 719 350 719 z "},"ĥ":{"ha":625,"x_min":-40,"x_max":564,"o":"m 385 383 q 381 506 385 472 q 364 548 376 539 q 317 557 351 557 q 266 543 281 557 q 247 491 251 529 q 243 363 243 453 l 243 0 l 64 0 l 64 1032 l 243 1032 l 243 626 l 253 626 q 310 699 271 678 q 406 719 350 719 q 506 693 472 719 q 552 614 540 667 q 564 468 564 561 l 564 0 l 385 0 l 385 383 m -40 1097 l -40 1108 l 64 1279 l 243 1279 l 349 1108 l 349 1097 l 225 1097 l 153 1196 l 82 1097 l -40 1097 z "},"ḥ":{"ha":625,"x_min":64,"x_max":564,"o":"m 385 383 q 381 506 385 472 q 364 548 376 539 q 317 557 351 557 q 266 543 281 557 q 247 491 251 529 q 243 363 243 453 l 243 0 l 64 0 l 64 1032 l 243 1032 l 243 626 l 253 626 q 310 699 271 678 q 406 719 350 719 q 506 693 472 719 q 552 614 540 667 q 564 468 564 561 l 564 0 l 385 0 l 385 383 m 214 -268 l 214 -86 l 410 -86 l 410 -268 l 214 -268 z "},"i":{"ha":307,"x_min":63,"x_max":244,"o":"m 63 863 l 63 1032 l 244 1032 l 244 863 l 63 863 m 64 0 l 64 708 l 243 708 l 243 0 l 64 0 z "},"ı":{"ha":307,"x_min":64,"x_max":243,"o":"m 64 0 l 64 708 l 243 708 l 243 0 l 64 0 z "},"í":{"ha":307,"x_min":64,"x_max":317,"o":"m 64 0 l 64 708 l 243 708 l 243 0 l 64 0 m 65 829 l 65 836 l 139 1032 l 317 1032 l 317 1025 l 207 829 l 65 829 z "},"ĭ":{"ha":307,"x_min":-28,"x_max":335,"o":"m 64 0 l 64 708 l 243 708 l 243 0 l 64 0 m 335 1032 q 322 929 335 969 q 269 866 308 889 q 151 843 229 843 q 36 866 75 843 q -15 929 -3 889 q -28 1032 -28 969 l 82 1032 q 85 984 82 1000 q 103 958 89 968 q 151 947 118 947 q 213 967 200 947 q 225 1032 225 988 l 335 1032 z "},"ǐ":{"ha":307,"x_min":-39,"x_max":349,"o":"m 64 0 l 64 708 l 243 708 l 243 0 l 64 0 m 65 849 l -39 1021 l -39 1032 l 83 1032 l 154 933 l 226 1032 l 349 1032 l 349 1021 l 243 849 l 65 849 z "},"î":{"ha":307,"x_min":-40,"x_max":349,"o":"m 64 0 l 64 708 l 243 708 l 243 0 l 64 0 m -40 850 l -40 861 l 64 1032 l 243 1032 l 349 861 l 349 850 l 225 850 l 153 949 l 82 850 l -40 850 z "},"ȉ":{"ha":307,"x_min":-92,"x_max":319,"o":"m 64 0 l 64 708 l 243 708 l 243 0 l 64 0 m 117 847 l -1 847 l -92 1010 l -92 1015 l 54 1015 l 117 853 l 117 847 m 319 847 l 201 847 l 113 1010 l 113 1015 l 258 1015 l 319 853 l 319 847 z "},"ï":{"ha":307,"x_min":-43,"x_max":354,"o":"m 64 0 l 64 708 l 243 708 l 243 0 l 64 0 m -43 865 l -43 1008 l 111 1008 l 111 865 l -43 865 m 200 865 l 200 1008 l 354 1008 l 354 865 l 200 865 z "},"ị":{"ha":307,"x_min":63,"x_max":267,"o":"m 63 863 l 63 1032 l 244 1032 l 244 863 l 63 863 m 64 0 l 64 708 l 243 708 l 243 0 l 64 0 m 71 -268 l 71 -86 l 267 -86 l 267 -268 l 71 -268 z "},"ì":{"ha":307,"x_min":-8,"x_max":243,"o":"m 64 0 l 64 708 l 243 708 l 243 0 l 64 0 m 100 829 l -8 1025 l -8 1032 l 169 1032 l 243 836 l 243 829 l 100 829 z "},"ỉ":{"ha":307,"x_min":-8,"x_max":315,"o":"m 64 0 l 64 708 l 243 708 l 243 0 l 64 0 m 60 878 q 72 929 60 914 q 115 957 83 944 l 133 964 q 176 985 165 976 q 188 1007 188 993 q 176 1026 188 1022 q 131 1031 164 1031 q -8 1026 58 1031 l -8 1129 q 144 1147 85 1147 q 272 1122 228 1147 q 315 1026 315 1096 q 301 955 315 979 q 246 911 288 931 l 224 901 q 180 878 188 886 q 172 850 172 871 l 60 850 l 60 878 z "},"ȋ":{"ha":307,"x_min":-28,"x_max":335,"o":"m 64 0 l 64 708 l 243 708 l 243 0 l 64 0 m -28 851 q -15 954 -28 914 q 38 1017 -1 994 q 156 1040 78 1040 q 271 1017 232 1040 q 322 954 310 994 q 335 851 335 914 l 225 851 q 222 899 225 883 q 203 926 218 915 q 156 936 189 936 q 94 916 107 936 q 82 851 82 896 l -28 851 z "},"ĳ":{"ha":614,"x_min":63,"x_max":551,"o":"m 63 863 l 63 1032 l 244 1032 l 244 863 l 63 863 m 64 0 l 64 708 l 243 708 l 243 0 l 64 0 m 369 863 l 369 1032 l 551 1032 l 551 863 l 369 863 m 288 -136 q 344 -129 326 -136 q 367 -108 363 -122 q 371 -64 371 -94 l 371 708 l 550 708 l 550 10 q 528 -180 550 -122 q 455 -255 507 -237 q 288 -272 403 -272 l 288 -136 z "},"ī":{"ha":307,"x_min":14,"x_max":294,"o":"m 64 0 l 64 708 l 243 708 l 243 0 l 64 0 m 14 871 l 14 1032 l 294 1032 l 294 871 l 14 871 z "},"į":{"ha":307,"x_min":32,"x_max":244,"o":"m 231 1014 l 231 871 l 76 871 l 76 1014 l 231 1014 m 244 -171 l 244 -267 q 174 -272 213 -272 q 65 -240 97 -272 q 32 -157 32 -207 q 53 -75 32 -115 q 110 0 74 -35 l 64 0 l 64 708 l 243 708 l 243 0 q 194 -54 217 -19 q 172 -122 172 -89 q 225 -172 172 -172 l 244 -171 z "},"ĩ":{"ha":307,"x_min":-61,"x_max":369,"o":"m 64 0 l 64 708 l 243 708 l 243 0 l 64 0 m 369 1032 q 364 927 369 963 q 337 872 358 892 q 267 851 315 851 q 143 874 218 851 q 109 883 135 876 q 68 890 83 890 q 46 879 50 890 q 42 835 42 868 l -61 835 q -56 940 -61 904 q -28 997 -50 976 q 43 1017 -6 1017 q 165 993 89 1017 q 242 978 221 978 q 263 988 260 978 q 267 1032 267 999 l 369 1032 z "},"j":{"ha":307,"x_min":-19,"x_max":244,"o":"m 63 863 l 63 1032 l 244 1032 l 244 863 l 63 863 m -19 -136 q 38 -129 19 -136 q 60 -108 56 -122 q 64 -64 64 -94 l 64 708 l 243 708 l 243 10 q 222 -180 243 -122 q 148 -255 200 -237 q -19 -272 96 -272 l -19 -136 z "},"ȷ":{"ha":307,"x_min":-19,"x_max":243,"o":"m -19 -136 q 38 -129 19 -136 q 60 -108 56 -122 q 64 -64 64 -94 l 64 708 l 243 708 l 243 10 q 222 -180 243 -122 q 148 -255 200 -237 q -19 -272 96 -272 l -19 -136 z "},"ĵ":{"ha":307,"x_min":-40,"x_max":349,"o":"m -19 -136 q 38 -129 19 -136 q 60 -108 56 -122 q 64 -64 64 -94 l 64 708 l 243 708 l 243 10 q 222 -180 243 -122 q 148 -255 200 -237 q -19 -272 96 -272 l -19 -136 m -40 850 l -40 861 l 64 1032 l 243 1032 l 349 861 l 349 850 l 225 850 l 153 949 l 82 850 l -40 850 z "},"k":{"ha":597,"x_min":64,"x_max":583,"o":"m 394 0 l 281 276 l 243 276 l 243 0 l 64 0 l 64 1032 l 243 1032 l 243 428 l 281 428 l 399 708 l 582 708 l 429 371 l 583 0 l 394 0 z "},"ķ":{"ha":597,"x_min":64,"x_max":583,"o":"m 394 0 l 281 276 l 243 276 l 243 0 l 64 0 l 64 1032 l 243 1032 l 243 428 l 281 428 l 399 708 l 582 708 l 429 371 l 583 0 l 394 0 m 204 -322 q 265 -309 250 -322 q 279 -257 279 -296 l 279 -237 l 210 -237 l 210 -86 l 394 -86 l 394 -186 q 382 -322 394 -278 q 330 -383 369 -365 q 204 -401 290 -401 l 204 -322 z "},"ĸ":{"ha":597,"x_min":64,"x_max":583,"o":"m 394 0 l 281 276 l 243 276 l 243 0 l 64 0 l 64 708 l 243 708 l 243 428 l 281 428 l 399 708 l 582 708 l 429 371 l 583 0 l 394 0 z "},"l":{"ha":307,"x_min":64,"x_max":243,"o":"m 64 0 l 64 1032 l 243 1032 l 243 0 l 64 0 z "},"ĺ":{"ha":307,"x_min":64,"x_max":326,"o":"m 64 0 l 64 1032 l 243 1032 l 243 0 l 64 0 m 75 1076 l 75 1083 l 149 1279 l 326 1279 l 326 1272 l 217 1076 l 75 1076 z "},"ľ":{"ha":411,"x_min":64,"x_max":475,"o":"m 64 0 l 64 1032 l 243 1032 l 243 0 l 64 0 m 285 594 l 307 881 l 307 956 l 475 956 l 475 881 l 414 594 l 285 594 z "},"ļ":{"ha":307,"x_min":60,"x_max":250,"o":"m 64 0 l 64 1032 l 243 1032 l 243 0 l 64 0 m 60 -322 q 120 -309 106 -322 q 135 -257 135 -296 l 135 -237 l 65 -237 l 65 -86 l 250 -86 l 250 -186 q 238 -322 250 -278 q 185 -383 225 -365 q 60 -401 146 -401 l 60 -322 z "},"ŀ":{"ha":438,"x_min":64,"x_max":464,"o":"m 64 0 l 64 1032 l 243 1032 l 243 0 l 64 0 m 286 324 l 286 506 l 464 506 l 464 324 l 286 324 z "},"ǉ":{"ha":614,"x_min":64,"x_max":551,"o":"m 64 0 l 64 1032 l 243 1032 l 243 0 l 64 0 m 369 863 l 369 1032 l 551 1032 l 551 863 l 369 863 m 288 -136 q 344 -129 326 -136 q 367 -108 363 -122 q 371 -64 371 -94 l 371 708 l 550 708 l 550 10 q 528 -180 550 -122 q 455 -255 507 -237 q 288 -272 403 -272 l 288 -136 z "},"ł":{"ha":318,"x_min":14,"x_max":306,"o":"m 68 0 l 68 396 l 14 378 l 14 531 l 68 550 l 68 1032 l 247 1032 l 247 614 l 306 635 l 306 481 l 247 460 l 247 0 l 68 0 z "},"m":{"ha":929,"x_min":64,"x_max":867,"o":"m 688 383 q 683 505 688 471 q 667 548 679 539 q 624 557 656 557 q 576 543 590 557 q 559 492 563 529 q 556 363 556 456 l 556 0 l 376 0 l 376 383 q 372 505 376 471 q 356 548 368 539 q 311 557 344 557 q 265 543 278 557 q 247 491 251 529 q 243 363 243 453 l 243 0 l 64 0 l 64 708 l 233 708 l 239 624 l 249 624 q 307 697 269 675 q 403 719 344 719 q 499 697 465 719 q 544 624 532 674 l 556 624 q 614 697 575 675 q 711 719 653 719 q 808 694 775 719 q 854 616 842 668 q 867 474 867 564 l 867 0 l 688 0 l 688 383 z "},"n":{"ha":625,"x_min":64,"x_max":564,"o":"m 385 383 q 381 506 385 472 q 364 548 376 539 q 317 557 351 557 q 266 543 281 557 q 247 491 251 529 q 243 363 243 453 l 243 0 l 64 0 l 64 708 l 233 708 l 239 624 l 249 624 q 308 698 268 676 q 406 719 349 719 q 506 693 472 719 q 552 613 540 667 q 564 465 564 560 l 564 0 l 385 0 l 385 383 z "},"ń":{"ha":625,"x_min":64,"x_max":564,"o":"m 385 383 q 381 506 385 472 q 364 548 376 539 q 317 557 351 557 q 266 543 281 557 q 247 491 251 529 q 243 363 243 453 l 243 0 l 64 0 l 64 708 l 233 708 l 239 624 l 249 624 q 308 698 268 676 q 406 719 349 719 q 506 693 472 719 q 552 613 540 667 q 564 465 564 560 l 564 0 l 385 0 l 385 383 m 233 829 l 233 836 l 307 1032 l 485 1032 l 485 1025 l 375 829 l 233 829 z "},"ŉ":{"ha":778,"x_min":22,"x_max":717,"o":"m 22 778 q 81 798 67 778 q 96 876 96 818 l 96 897 l 26 897 l 26 1032 l 211 1032 l 211 947 q 199 792 211 842 q 147 721 186 742 q 22 700 107 700 l 22 778 m 538 383 q 533 506 538 472 q 517 548 529 539 q 469 557 504 557 q 419 543 433 557 q 400 491 404 529 q 396 363 396 453 l 396 0 l 217 0 l 217 708 l 386 708 l 392 624 l 401 624 q 461 698 421 676 q 558 719 501 719 q 659 693 625 719 q 705 613 693 667 q 717 465 717 560 l 717 0 l 538 0 l 538 383 z "},"ň":{"ha":625,"x_min":64,"x_max":564,"o":"m 385 383 q 381 506 385 472 q 364 548 376 539 q 317 557 351 557 q 266 543 281 557 q 247 491 251 529 q 243 363 243 453 l 243 0 l 64 0 l 64 708 l 233 708 l 239 624 l 249 624 q 308 698 268 676 q 406 719 349 719 q 506 693 472 719 q 552 613 540 667 q 564 465 564 560 l 564 0 l 385 0 l 385 383 m 224 849 l 119 1021 l 119 1032 l 242 1032 l 313 933 l 385 1032 l 507 1032 l 507 1021 l 401 849 l 224 849 z "},"ņ":{"ha":625,"x_min":64,"x_max":564,"o":"m 385 383 q 381 506 385 472 q 364 548 376 539 q 317 557 351 557 q 266 543 281 557 q 247 491 251 529 q 243 363 243 453 l 243 0 l 64 0 l 64 708 l 233 708 l 239 624 l 249 624 q 308 698 268 676 q 406 719 349 719 q 506 693 472 719 q 552 613 540 667 q 564 465 564 560 l 564 0 l 385 0 l 385 383 m 218 -322 q 278 -309 264 -322 q 293 -257 293 -296 l 293 -237 l 224 -237 l 224 -86 l 408 -86 l 408 -186 q 396 -322 408 -278 q 344 -383 383 -365 q 218 -401 304 -401 l 218 -322 z "},"ṅ":{"ha":625,"x_min":64,"x_max":564,"o":"m 385 383 q 381 506 385 472 q 364 548 376 539 q 317 557 351 557 q 266 543 281 557 q 247 491 251 529 q 243 363 243 453 l 243 0 l 64 0 l 64 708 l 233 708 l 239 624 l 249 624 q 308 698 268 676 q 406 719 349 719 q 506 693 472 719 q 552 613 540 667 q 564 465 564 560 l 564 0 l 385 0 l 385 383 m 236 871 l 236 1014 l 390 1014 l 390 871 l 236 871 z "},"ŋ":{"ha":625,"x_min":64,"x_max":564,"o":"m 406 719 q 506 693 472 719 q 552 613 540 667 q 564 465 564 560 l 564 10 q 542 -179 564 -121 q 469 -255 521 -237 q 301 -272 417 -272 l 301 -136 q 358 -129 340 -136 q 381 -108 376 -122 q 385 -64 385 -94 l 385 383 q 381 506 385 472 q 364 548 376 539 q 317 557 351 557 q 266 543 281 557 q 247 491 251 529 q 243 363 243 453 l 243 0 l 64 0 l 64 708 l 233 708 l 239 624 l 249 624 q 308 698 268 676 q 406 719 349 719 z "},"ɲ":{"ha":625,"x_min":-19,"x_max":564,"o":"m -19 -136 q 38 -129 19 -136 q 60 -108 56 -122 q 64 -64 64 -94 l 64 708 l 233 708 l 239 624 l 249 624 q 308 698 268 676 q 406 719 349 719 q 506 693 472 719 q 552 613 540 667 q 564 465 564 560 l 564 0 l 385 0 l 385 383 q 381 506 385 472 q 364 548 376 539 q 317 557 351 557 q 266 543 281 557 q 247 492 251 529 q 243 364 243 454 l 243 10 q 222 -179 243 -121 q 148 -255 200 -237 q -19 -272 96 -272 l -19 -136 z "},"ǌ":{"ha":932,"x_min":64,"x_max":869,"o":"m 385 383 q 381 506 385 472 q 364 548 376 539 q 317 557 351 557 q 266 543 281 557 q 247 491 251 529 q 243 363 243 453 l 243 0 l 64 0 l 64 708 l 233 708 l 239 624 l 249 624 q 308 698 268 676 q 406 719 349 719 q 506 693 472 719 q 552 613 540 667 q 564 465 564 560 l 564 0 l 385 0 l 385 383 m 688 863 l 688 1032 l 869 1032 l 869 863 l 688 863 m 606 -136 q 663 -129 644 -136 q 685 -108 681 -122 q 689 -64 689 -94 l 689 708 l 868 708 l 868 10 q 847 -180 868 -122 q 773 -255 825 -237 q 606 -272 721 -272 l 606 -136 z "},"ñ":{"ha":625,"x_min":64,"x_max":564,"o":"m 385 383 q 381 506 385 472 q 364 548 376 539 q 317 557 351 557 q 266 543 281 557 q 247 491 251 529 q 243 363 243 453 l 243 0 l 64 0 l 64 708 l 233 708 l 239 624 l 249 624 q 308 698 268 676 q 406 719 349 719 q 506 693 472 719 q 552 613 540 667 q 564 465 564 560 l 564 0 l 385 0 l 385 383 m 532 1032 q 526 927 532 963 q 499 872 521 892 q 429 851 478 851 q 306 874 381 851 q 272 883 297 876 q 231 890 246 890 q 208 879 213 890 q 204 835 204 868 l 101 835 q 107 940 101 904 q 135 997 113 976 q 206 1017 157 1017 q 328 993 251 1017 q 404 978 383 978 q 426 988 422 978 q 429 1032 429 999 l 532 1032 z "},"o":{"ha":606,"x_min":47,"x_max":558,"o":"m 303 -11 q 131 19 183 -11 q 63 122 78 50 q 47 354 47 194 q 63 586 47 514 q 131 689 78 658 q 303 719 183 719 q 475 689 422 719 q 543 586 528 658 q 558 354 558 514 q 543 122 558 194 q 475 19 528 50 q 303 -11 422 -11 m 303 139 q 358 151 343 139 q 376 203 372 164 q 379 354 379 243 q 376 505 379 465 q 358 557 372 544 q 303 569 343 569 q 248 557 263 569 q 230 505 233 544 q 226 354 226 465 q 230 203 226 243 q 248 151 233 164 q 303 139 263 139 z "},"ó":{"ha":606,"x_min":47,"x_max":558,"o":"m 303 -11 q 131 19 183 -11 q 63 122 78 50 q 47 354 47 194 q 63 586 47 514 q 131 689 78 658 q 303 719 183 719 q 475 689 422 719 q 543 586 528 658 q 558 354 558 514 q 543 122 558 194 q 475 19 528 50 q 303 -11 422 -11 m 303 139 q 358 151 343 139 q 376 203 372 164 q 379 354 379 243 q 376 505 379 465 q 358 557 372 544 q 303 569 343 569 q 248 557 263 569 q 230 505 233 544 q 226 354 226 465 q 230 203 226 243 q 248 151 233 164 q 303 139 263 139 m 224 829 l 224 836 l 297 1032 l 475 1032 l 475 1025 l 365 829 l 224 829 z "},"ŏ":{"ha":606,"x_min":47,"x_max":558,"o":"m 303 -11 q 131 19 183 -11 q 63 122 78 50 q 47 354 47 194 q 63 586 47 514 q 131 689 78 658 q 303 719 183 719 q 475 689 422 719 q 543 586 528 658 q 558 354 558 514 q 543 122 558 194 q 475 19 528 50 q 303 -11 422 -11 m 303 139 q 358 151 343 139 q 376 203 372 164 q 379 354 379 243 q 376 505 379 465 q 358 557 372 544 q 303 569 343 569 q 248 557 263 569 q 230 505 233 544 q 226 354 226 465 q 230 203 226 243 q 248 151 233 164 q 303 139 263 139 m 483 1032 q 470 929 483 969 q 417 866 457 889 q 300 843 378 843 q 185 866 224 843 q 133 929 146 889 q 121 1032 121 969 l 231 1032 q 234 984 231 1000 q 252 958 238 968 q 300 947 267 947 q 361 967 349 947 q 374 1032 374 988 l 483 1032 z "},"ǒ":{"ha":606,"x_min":47,"x_max":558,"o":"m 303 -11 q 131 19 183 -11 q 63 122 78 50 q 47 354 47 194 q 63 586 47 514 q 131 689 78 658 q 303 719 183 719 q 475 689 422 719 q 543 586 528 658 q 558 354 558 514 q 543 122 558 194 q 475 19 528 50 q 303 -11 422 -11 m 303 139 q 358 151 343 139 q 376 203 372 164 q 379 354 379 243 q 376 505 379 465 q 358 557 372 544 q 303 569 343 569 q 248 557 263 569 q 230 505 233 544 q 226 354 226 465 q 230 203 226 243 q 248 151 233 164 q 303 139 263 139 m 214 849 l 110 1021 l 110 1032 l 232 1032 l 303 933 l 375 1032 l 497 1032 l 497 1021 l 392 849 l 214 849 z "},"ô":{"ha":606,"x_min":47,"x_max":558,"o":"m 303 -11 q 131 19 183 -11 q 63 122 78 50 q 47 354 47 194 q 63 586 47 514 q 131 689 78 658 q 303 719 183 719 q 475 689 422 719 q 543 586 528 658 q 558 354 558 514 q 543 122 558 194 q 475 19 528 50 q 303 -11 422 -11 m 303 139 q 358 151 343 139 q 376 203 372 164 q 379 354 379 243 q 376 505 379 465 q 358 557 372 544 q 303 569 343 569 q 248 557 263 569 q 230 505 233 544 q 226 354 226 465 q 230 203 226 243 q 248 151 233 164 q 303 139 263 139 m 110 850 l 110 861 l 214 1032 l 393 1032 l 499 861 l 499 850 l 375 850 l 303 949 l 232 850 l 110 850 z "},"ố":{"ha":606,"x_min":47,"x_max":585,"o":"m 303 -11 q 131 19 183 -11 q 63 122 78 50 q 47 354 47 194 q 63 586 47 514 q 131 689 78 658 q 303 719 183 719 q 475 689 422 719 q 543 586 528 658 q 558 354 558 514 q 543 122 558 194 q 475 19 528 50 q 303 -11 422 -11 m 303 139 q 358 151 343 139 q 376 203 372 164 q 379 354 379 243 q 376 505 379 465 q 358 557 372 544 q 303 569 343 569 q 248 557 263 569 q 230 505 233 544 q 226 354 226 465 q 230 203 226 243 q 248 151 233 164 q 303 139 263 139 m 110 850 l 110 861 l 214 1032 l 393 1032 l 499 861 l 499 850 l 375 850 l 303 949 l 232 850 l 110 850 m 333 1069 l 333 1076 l 407 1272 l 585 1272 l 585 1265 l 475 1069 l 333 1069 z "},"ộ":{"ha":606,"x_min":47,"x_max":558,"o":"m 303 -11 q 131 19 183 -11 q 63 122 78 50 q 47 354 47 194 q 63 586 47 514 q 131 689 78 658 q 303 719 183 719 q 475 689 422 719 q 543 586 528 658 q 558 354 558 514 q 543 122 558 194 q 475 19 528 50 q 303 -11 422 -11 m 303 139 q 358 151 343 139 q 376 203 372 164 q 379 354 379 243 q 376 505 379 465 q 358 557 372 544 q 303 569 343 569 q 248 557 263 569 q 230 505 233 544 q 226 354 226 465 q 230 203 226 243 q 248 151 233 164 q 303 139 263 139 m 204 -268 l 204 -86 l 400 -86 l 400 -268 l 204 -268 m 108 850 l 108 861 l 213 1032 l 392 1032 l 497 861 l 497 850 l 374 850 l 301 949 l 231 850 l 108 850 z "},"ồ":{"ha":606,"x_min":47,"x_max":558,"o":"m 303 -11 q 131 19 183 -11 q 63 122 78 50 q 47 354 47 194 q 63 586 47 514 q 131 689 78 658 q 303 719 183 719 q 475 689 422 719 q 543 586 528 658 q 558 354 558 514 q 543 122 558 194 q 475 19 528 50 q 303 -11 422 -11 m 303 139 q 358 151 343 139 q 376 203 372 164 q 379 354 379 243 q 376 505 379 465 q 358 557 372 544 q 303 569 343 569 q 248 557 263 569 q 230 505 233 544 q 226 354 226 465 q 230 203 226 243 q 248 151 233 164 q 303 139 263 139 m 99 850 l 99 861 l 203 1032 l 382 1032 l 488 861 l 488 850 l 364 850 l 292 949 l 221 850 l 99 850 m 364 1069 l 256 1265 l 256 1272 l 433 1272 l 507 1076 l 507 1069 l 364 1069 z "},"ổ":{"ha":606,"x_min":47,"x_max":615,"o":"m 303 -11 q 131 19 183 -11 q 63 122 78 50 q 47 354 47 194 q 63 586 47 514 q 131 689 78 658 q 303 719 183 719 q 475 689 422 719 q 543 586 528 658 q 558 354 558 514 q 543 122 558 194 q 475 19 528 50 q 303 -11 422 -11 m 303 139 q 358 151 343 139 q 376 203 372 164 q 379 354 379 243 q 376 505 379 465 q 358 557 372 544 q 303 569 343 569 q 248 557 263 569 q 230 505 233 544 q 226 354 226 465 q 230 203 226 243 q 248 151 233 164 q 303 139 263 139 m 108 850 l 108 861 l 213 1032 l 392 1032 l 497 861 l 497 850 l 374 850 l 301 949 l 231 850 l 108 850 m 360 1088 q 372 1139 360 1124 q 415 1167 383 1154 l 433 1174 q 476 1194 465 1186 q 488 1217 488 1203 q 476 1236 488 1232 q 431 1240 464 1240 q 292 1236 358 1240 l 292 1339 q 444 1357 385 1357 q 572 1331 528 1357 q 615 1236 615 1306 q 601 1165 615 1189 q 546 1121 588 1140 l 524 1111 q 480 1088 488 1096 q 472 1060 472 1081 l 360 1060 l 360 1088 z "},"ỗ":{"ha":606,"x_min":47,"x_max":558,"o":"m 303 -11 q 131 19 183 -11 q 63 122 78 50 q 47 354 47 194 q 63 586 47 514 q 131 689 78 658 q 303 719 183 719 q 475 689 422 719 q 543 586 528 658 q 558 354 558 514 q 543 122 558 194 q 475 19 528 50 q 303 -11 422 -11 m 303 139 q 358 151 343 139 q 376 203 372 164 q 379 354 379 243 q 376 505 379 465 q 358 557 372 544 q 303 569 343 569 q 248 557 263 569 q 230 505 233 544 q 226 354 226 465 q 230 203 226 243 q 248 151 233 164 q 303 139 263 139 m 106 850 l 106 861 l 210 1032 l 389 1032 l 494 861 l 494 850 l 371 850 l 299 949 l 228 850 l 106 850 m 518 1272 q 513 1167 518 1203 q 485 1112 507 1132 q 415 1092 464 1092 q 292 1114 367 1092 q 258 1124 283 1117 q 217 1131 232 1131 q 194 1119 199 1131 q 190 1075 190 1108 l 88 1075 q 93 1181 88 1144 q 121 1237 99 1217 q 192 1257 143 1257 q 314 1233 238 1257 q 390 1218 369 1218 q 412 1228 408 1218 q 415 1272 415 1239 l 518 1272 z "},"ȍ":{"ha":606,"x_min":47,"x_max":558,"o":"m 303 -11 q 131 19 183 -11 q 63 122 78 50 q 47 354 47 194 q 63 586 47 514 q 131 689 78 658 q 303 719 183 719 q 475 689 422 719 q 543 586 528 658 q 558 354 558 514 q 543 122 558 194 q 475 19 528 50 q 303 -11 422 -11 m 303 139 q 358 151 343 139 q 376 203 372 164 q 379 354 379 243 q 376 505 379 465 q 358 557 372 544 q 303 569 343 569 q 248 557 263 569 q 230 505 233 544 q 226 354 226 465 q 230 203 226 243 q 248 151 233 164 q 303 139 263 139 m 265 847 l 147 847 l 57 1010 l 57 1015 l 203 1015 l 265 853 l 265 847 m 468 847 l 350 847 l 261 1010 l 261 1015 l 407 1015 l 468 853 l 468 847 z "},"ö":{"ha":606,"x_min":47,"x_max":558,"o":"m 303 -11 q 131 19 183 -11 q 63 122 78 50 q 47 354 47 194 q 63 586 47 514 q 131 689 78 658 q 303 719 183 719 q 475 689 422 719 q 543 586 528 658 q 558 354 558 514 q 543 122 558 194 q 475 19 528 50 q 303 -11 422 -11 m 303 139 q 358 151 343 139 q 376 203 372 164 q 379 354 379 243 q 376 505 379 465 q 358 557 372 544 q 303 569 343 569 q 248 557 263 569 q 230 505 233 544 q 226 354 226 465 q 230 203 226 243 q 248 151 233 164 q 303 139 263 139 m 106 865 l 106 1008 l 260 1008 l 260 865 l 106 865 m 349 865 l 349 1008 l 503 1008 l 503 865 l 349 865 z "},"ọ":{"ha":606,"x_min":47,"x_max":558,"o":"m 303 -11 q 131 19 183 -11 q 63 122 78 50 q 47 354 47 194 q 63 586 47 514 q 131 689 78 658 q 303 719 183 719 q 475 689 422 719 q 543 586 528 658 q 558 354 558 514 q 543 122 558 194 q 475 19 528 50 q 303 -11 422 -11 m 303 139 q 358 151 343 139 q 376 203 372 164 q 379 354 379 243 q 376 505 379 465 q 358 557 372 544 q 303 569 343 569 q 248 557 263 569 q 230 505 233 544 q 226 354 226 465 q 230 203 226 243 q 248 151 233 164 q 303 139 263 139 m 204 -268 l 204 -86 l 400 -86 l 400 -268 l 204 -268 z "},"ò":{"ha":606,"x_min":47,"x_max":558,"o":"m 303 -11 q 131 19 183 -11 q 63 122 78 50 q 47 354 47 194 q 63 586 47 514 q 131 689 78 658 q 303 719 183 719 q 475 689 422 719 q 543 586 528 658 q 558 354 558 514 q 543 122 558 194 q 475 19 528 50 q 303 -11 422 -11 m 303 139 q 358 151 343 139 q 376 203 372 164 q 379 354 379 243 q 376 505 379 465 q 358 557 372 544 q 303 569 343 569 q 248 557 263 569 q 230 505 233 544 q 226 354 226 465 q 230 203 226 243 q 248 151 233 164 q 303 139 263 139 m 239 829 l 131 1025 l 131 1032 l 308 1032 l 382 836 l 382 829 l 239 829 z "},"ỏ":{"ha":606,"x_min":47,"x_max":558,"o":"m 303 -11 q 131 19 183 -11 q 63 122 78 50 q 47 354 47 194 q 63 586 47 514 q 131 689 78 658 q 303 719 183 719 q 475 689 422 719 q 543 586 528 658 q 558 354 558 514 q 543 122 558 194 q 475 19 528 50 q 303 -11 422 -11 m 303 139 q 358 151 343 139 q 376 203 372 164 q 379 354 379 243 q 376 505 379 465 q 358 557 372 544 q 303 569 343 569 q 248 557 263 569 q 230 505 233 544 q 226 354 226 465 q 230 203 226 243 q 248 151 233 164 q 303 139 263 139 m 208 878 q 220 929 208 914 q 264 957 232 944 l 282 964 q 325 985 314 976 q 336 1007 336 993 q 324 1026 336 1022 q 279 1031 313 1031 q 140 1026 207 1031 l 140 1129 q 293 1147 233 1147 q 420 1122 376 1147 q 464 1026 464 1096 q 450 955 464 979 q 394 911 436 931 l 372 901 q 328 878 336 886 q 321 850 321 871 l 208 850 l 208 878 z "},"ơ":{"ha":606,"x_min":47,"x_max":642,"o":"m 642 838 l 642 800 q 633 709 642 742 q 601 658 625 676 q 526 635 576 640 q 552 532 546 596 q 558 354 558 468 q 543 122 558 194 q 475 19 528 50 q 303 -11 422 -11 q 131 19 183 -11 q 63 122 78 50 q 47 354 47 194 q 63 586 47 514 q 131 689 78 658 q 303 719 183 719 q 425 708 382 719 l 439 708 q 508 722 492 708 q 525 774 525 735 l 525 838 l 642 838 m 303 139 q 358 151 343 139 q 376 203 372 164 q 379 354 379 243 q 376 505 379 465 q 358 557 372 544 q 303 569 343 569 q 248 557 263 569 q 230 505 233 544 q 226 354 226 465 q 230 203 226 243 q 248 151 233 164 q 303 139 263 139 z "},"ớ":{"ha":606,"x_min":47,"x_max":642,"o":"m 642 838 l 642 800 q 633 709 642 742 q 601 658 625 676 q 526 635 576 640 q 552 532 546 596 q 558 354 558 468 q 543 122 558 194 q 475 19 528 50 q 303 -11 422 -11 q 131 19 183 -11 q 63 122 78 50 q 47 354 47 194 q 63 586 47 514 q 131 689 78 658 q 303 719 183 719 q 425 708 382 719 l 439 708 q 508 722 492 708 q 525 774 525 735 l 525 838 l 642 838 m 303 139 q 358 151 343 139 q 376 203 372 164 q 379 354 379 243 q 376 505 379 465 q 358 557 372 544 q 303 569 343 569 q 248 557 263 569 q 230 505 233 544 q 226 354 226 465 q 230 203 226 243 q 248 151 233 164 q 303 139 263 139 m 224 829 l 224 836 l 297 1032 l 475 1032 l 475 1025 l 365 829 l 224 829 z "},"ợ":{"ha":606,"x_min":47,"x_max":642,"o":"m 642 838 l 642 800 q 633 709 642 742 q 601 658 625 676 q 526 635 576 640 q 552 532 546 596 q 558 354 558 468 q 543 122 558 194 q 475 19 528 50 q 303 -11 422 -11 q 131 19 183 -11 q 63 122 78 50 q 47 354 47 194 q 63 586 47 514 q 131 689 78 658 q 303 719 183 719 q 425 708 382 719 l 439 708 q 508 722 492 708 q 525 774 525 735 l 525 838 l 642 838 m 303 139 q 358 151 343 139 q 376 203 372 164 q 379 354 379 243 q 376 505 379 465 q 358 557 372 544 q 303 569 343 569 q 248 557 263 569 q 230 505 233 544 q 226 354 226 465 q 230 203 226 243 q 248 151 233 164 q 303 139 263 139 m 204 -268 l 204 -86 l 400 -86 l 400 -268 l 204 -268 z "},"ờ":{"ha":606,"x_min":47,"x_max":642,"o":"m 642 838 l 642 800 q 633 709 642 742 q 601 658 625 676 q 526 635 576 640 q 552 532 546 596 q 558 354 558 468 q 543 122 558 194 q 475 19 528 50 q 303 -11 422 -11 q 131 19 183 -11 q 63 122 78 50 q 47 354 47 194 q 63 586 47 514 q 131 689 78 658 q 303 719 183 719 q 425 708 382 719 l 439 708 q 508 722 492 708 q 525 774 525 735 l 525 838 l 642 838 m 303 139 q 358 151 343 139 q 376 203 372 164 q 379 354 379 243 q 376 505 379 465 q 358 557 372 544 q 303 569 343 569 q 248 557 263 569 q 230 505 233 544 q 226 354 226 465 q 230 203 226 243 q 248 151 233 164 q 303 139 263 139 m 231 829 l 122 1025 l 122 1032 l 300 1032 l 374 836 l 374 829 l 231 829 z "},"ở":{"ha":606,"x_min":47,"x_max":642,"o":"m 642 838 l 642 800 q 633 709 642 742 q 601 658 625 676 q 526 635 576 640 q 552 532 546 596 q 558 354 558 468 q 543 122 558 194 q 475 19 528 50 q 303 -11 422 -11 q 131 19 183 -11 q 63 122 78 50 q 47 354 47 194 q 63 586 47 514 q 131 689 78 658 q 303 719 183 719 q 425 708 382 719 l 439 708 q 508 722 492 708 q 525 774 525 735 l 525 838 l 642 838 m 303 139 q 358 151 343 139 q 376 203 372 164 q 379 354 379 243 q 376 505 379 465 q 358 557 372 544 q 303 569 343 569 q 248 557 263 569 q 230 505 233 544 q 226 354 226 465 q 230 203 226 243 q 248 151 233 164 q 303 139 263 139 m 208 878 q 220 929 208 914 q 264 957 232 944 l 282 964 q 325 985 314 976 q 336 1007 336 993 q 324 1026 336 1022 q 279 1031 313 1031 q 140 1026 207 1031 l 140 1129 q 293 1147 233 1147 q 420 1122 376 1147 q 464 1026 464 1096 q 450 955 464 979 q 394 911 436 931 l 372 901 q 328 878 336 886 q 321 850 321 871 l 208 850 l 208 878 z "},"ỡ":{"ha":606,"x_min":47,"x_max":642,"o":"m 642 838 l 642 800 q 633 709 642 742 q 601 658 625 676 q 526 635 576 640 q 552 532 546 596 q 558 354 558 468 q 543 122 558 194 q 475 19 528 50 q 303 -11 422 -11 q 131 19 183 -11 q 63 122 78 50 q 47 354 47 194 q 63 586 47 514 q 131 689 78 658 q 303 719 183 719 q 425 708 382 719 l 439 708 q 508 722 492 708 q 525 774 525 735 l 525 838 l 642 838 m 303 139 q 358 151 343 139 q 376 203 372 164 q 379 354 379 243 q 376 505 379 465 q 358 557 372 544 q 303 569 343 569 q 248 557 263 569 q 230 505 233 544 q 226 354 226 465 q 230 203 226 243 q 248 151 233 164 q 303 139 263 139 m 518 1032 q 513 927 518 963 q 485 872 507 892 q 415 851 464 851 q 292 874 367 851 q 258 883 283 876 q 217 890 232 890 q 194 879 199 890 q 190 835 190 868 l 88 835 q 93 940 88 904 q 121 997 99 976 q 192 1017 143 1017 q 314 993 238 1017 q 390 978 369 978 q 412 988 408 978 q 415 1032 415 999 l 518 1032 z "},"ő":{"ha":606,"x_min":47,"x_max":561,"o":"m 303 -11 q 131 19 183 -11 q 63 122 78 50 q 47 354 47 194 q 63 586 47 514 q 131 689 78 658 q 303 719 183 719 q 475 689 422 719 q 543 586 528 658 q 558 354 558 514 q 543 122 558 194 q 475 19 528 50 q 303 -11 422 -11 m 303 139 q 358 151 343 139 q 376 203 372 164 q 379 354 379 243 q 376 505 379 465 q 358 557 372 544 q 303 569 343 569 q 248 557 263 569 q 230 505 233 544 q 226 354 226 465 q 230 203 226 243 q 248 151 233 164 q 303 139 263 139 m 150 847 l 150 853 l 211 1015 l 357 1015 l 357 1010 l 268 847 l 150 847 m 353 847 l 353 853 l 415 1015 l 561 1015 l 561 1010 l 471 847 l 353 847 z "},"ȏ":{"ha":606,"x_min":47,"x_max":558,"o":"m 303 -11 q 131 19 183 -11 q 63 122 78 50 q 47 354 47 194 q 63 586 47 514 q 131 689 78 658 q 303 719 183 719 q 475 689 422 719 q 543 586 528 658 q 558 354 558 514 q 543 122 558 194 q 475 19 528 50 q 303 -11 422 -11 m 303 139 q 358 151 343 139 q 376 203 372 164 q 379 354 379 243 q 376 505 379 465 q 358 557 372 544 q 303 569 343 569 q 248 557 263 569 q 230 505 233 544 q 226 354 226 465 q 230 203 226 243 q 248 151 233 164 q 303 139 263 139 m 121 851 q 134 954 121 914 q 187 1017 147 994 q 304 1040 226 1040 q 419 1017 381 1040 q 471 954 458 994 q 483 851 483 914 l 374 851 q 370 899 374 883 q 352 926 367 915 q 304 936 338 936 q 243 916 256 936 q 231 851 231 896 l 121 851 z "},"ō":{"ha":606,"x_min":47,"x_max":558,"o":"m 303 -11 q 131 19 183 -11 q 63 122 78 50 q 47 354 47 194 q 63 586 47 514 q 131 689 78 658 q 303 719 183 719 q 475 689 422 719 q 543 586 528 658 q 558 354 558 514 q 543 122 558 194 q 475 19 528 50 q 303 -11 422 -11 m 303 139 q 358 151 343 139 q 376 203 372 164 q 379 354 379 243 q 376 505 379 465 q 358 557 372 544 q 303 569 343 569 q 248 557 263 569 q 230 505 233 544 q 226 354 226 465 q 230 203 226 243 q 248 151 233 164 q 303 139 263 139 m 163 871 l 163 1032 l 443 1032 l 443 871 l 163 871 z "},"ǫ":{"ha":606,"x_min":47,"x_max":558,"o":"m 303 719 q 475 689 422 719 q 543 586 528 658 q 558 354 558 514 q 546 133 558 204 q 489 29 533 63 q 431 -39 453 1 q 408 -121 408 -79 q 461 -172 408 -172 l 481 -171 l 481 -267 q 410 -272 439 -272 q 301 -240 333 -272 q 268 -156 268 -207 q 321 -11 268 -85 l 303 -11 q 131 19 183 -11 q 63 122 78 50 q 47 354 47 194 q 63 586 47 514 q 131 689 78 658 q 303 719 183 719 m 226 354 q 230 203 226 243 q 248 151 233 164 q 303 139 263 139 q 358 151 343 139 q 376 203 372 164 q 379 354 379 243 q 376 505 379 465 q 358 557 372 544 q 303 569 343 569 q 248 557 263 569 q 230 505 233 544 q 226 354 226 465 z "},"ø":{"ha":606,"x_min":47,"x_max":558,"o":"m 97 47 q 57 153 67 85 q 47 354 47 221 q 63 586 47 514 q 131 689 78 658 q 303 719 183 719 q 374 715 343 719 l 403 785 l 558 785 l 508 661 q 549 556 539 624 q 558 354 558 488 q 543 122 558 194 q 475 19 528 50 q 303 -11 422 -11 q 232 -7 261 -11 l 204 -76 l 47 -76 l 97 47 m 303 139 q 358 151 343 139 q 376 203 372 164 q 379 354 379 243 q 376 505 379 465 q 358 557 372 544 q 303 569 343 569 q 248 557 263 569 q 230 505 233 544 q 226 354 226 465 q 230 203 226 243 q 248 151 233 164 q 303 139 263 139 z "},"ǿ":{"ha":606,"x_min":47,"x_max":558,"o":"m 97 47 q 57 153 67 85 q 47 354 47 221 q 63 586 47 514 q 131 689 78 658 q 303 719 183 719 q 374 715 343 719 l 403 785 l 558 785 l 508 661 q 549 556 539 624 q 558 354 558 488 q 543 122 558 194 q 475 19 528 50 q 303 -11 422 -11 q 232 -7 261 -11 l 204 -76 l 47 -76 l 97 47 m 303 139 q 358 151 343 139 q 376 203 372 164 q 379 354 379 243 q 376 505 379 465 q 358 557 372 544 q 303 569 343 569 q 248 557 263 569 q 230 505 233 544 q 226 354 226 465 q 230 203 226 243 q 248 151 233 164 q 303 139 263 139 m 224 829 l 224 836 l 297 1032 l 475 1032 l 475 1025 l 365 829 l 224 829 z "},"õ":{"ha":606,"x_min":47,"x_max":558,"o":"m 303 -11 q 131 19 183 -11 q 63 122 78 50 q 47 354 47 194 q 63 586 47 514 q 131 689 78 658 q 303 719 183 719 q 475 689 422 719 q 543 586 528 658 q 558 354 558 514 q 543 122 558 194 q 475 19 528 50 q 303 -11 422 -11 m 303 139 q 358 151 343 139 q 376 203 372 164 q 379 354 379 243 q 376 505 379 465 q 358 557 372 544 q 303 569 343 569 q 248 557 263 569 q 230 505 233 544 q 226 354 226 465 q 230 203 226 243 q 248 151 233 164 q 303 139 263 139 m 521 1032 q 515 927 521 963 q 488 872 510 892 q 418 851 467 851 q 294 874 369 851 q 260 883 286 876 q 219 890 235 890 q 197 879 201 890 q 193 835 193 868 l 90 835 q 96 940 90 904 q 124 997 101 976 q 194 1017 146 1017 q 317 993 240 1017 q 393 978 372 978 q 415 988 411 978 q 418 1032 418 999 l 521 1032 z "},"œ":{"ha":924,"x_min":47,"x_max":875,"o":"m 875 299 l 560 299 q 567 189 560 219 q 598 149 574 158 q 688 139 622 139 q 858 147 756 139 l 858 10 q 762 -6 821 0 q 647 -11 703 -11 q 474 33 531 -11 q 405 -1 446 10 q 303 -11 364 -11 q 131 19 183 -11 q 63 122 78 50 q 47 354 47 194 q 63 586 47 514 q 131 689 78 658 q 303 719 183 719 q 474 674 419 719 q 638 719 528 719 q 801 684 751 719 q 863 578 851 649 q 875 353 875 507 l 875 299 m 635 571 q 585 561 600 571 q 565 521 571 551 q 560 419 560 490 l 706 419 q 700 521 706 490 q 681 561 694 551 q 635 571 667 571 m 303 139 q 358 151 343 139 q 376 203 372 164 q 379 354 379 243 q 376 505 379 465 q 358 556 372 544 q 303 568 343 568 q 248 556 263 568 q 230 505 233 544 q 226 354 226 465 q 230 203 226 243 q 248 151 233 164 q 303 139 263 139 z "},"p":{"ha":619,"x_min":64,"x_max":572,"o":"m 64 708 l 233 708 l 239 625 l 250 625 q 394 719 279 719 q 501 688 463 719 q 556 579 539 657 q 572 356 572 501 q 557 135 572 213 q 504 23 542 57 q 397 -11 467 -11 q 254 76 285 -11 l 243 76 l 243 -272 l 64 -272 l 64 708 m 317 150 q 369 161 354 150 q 388 212 383 172 q 393 354 393 251 q 388 497 393 457 q 369 547 383 536 q 317 558 354 558 q 272 548 288 558 q 251 508 257 538 q 243 354 243 474 q 249 211 243 246 q 269 163 254 175 q 317 150 285 150 z "},"þ":{"ha":619,"x_min":64,"x_max":572,"o":"m 64 1032 l 243 1032 l 243 626 l 253 626 q 394 719 282 719 q 501 688 463 719 q 556 578 539 657 q 572 356 572 500 q 557 135 572 213 q 504 23 542 57 q 397 -11 467 -11 q 253 75 286 -11 l 243 75 l 243 -264 l 64 -264 l 64 1032 m 317 150 q 369 161 354 150 q 388 212 383 172 q 393 354 393 251 q 388 497 393 457 q 369 547 383 536 q 317 558 354 558 q 270 547 285 558 q 250 497 256 535 q 243 354 243 461 q 247 224 243 264 q 268 165 253 179 q 317 150 283 150 z "},"q":{"ha":619,"x_min":47,"x_max":556,"o":"m 376 76 l 367 76 q 313 10 349 31 q 222 -11 276 -11 q 115 23 153 -11 q 63 135 78 57 q 47 354 47 213 q 64 578 47 500 q 118 688 81 656 q 225 719 156 719 q 369 625 340 719 l 381 625 l 386 708 l 556 708 l 556 -272 l 376 -272 l 376 76 m 303 150 q 347 160 332 150 q 369 200 363 171 q 376 354 376 233 q 375 461 376 428 q 367 515 374 494 q 347 549 361 540 q 303 558 332 558 q 251 547 265 558 q 231 497 236 536 q 226 354 226 457 q 231 212 226 251 q 251 161 236 172 q 303 150 265 150 z "},"r":{"ha":433,"x_min":64,"x_max":414,"o":"m 64 708 l 233 708 l 239 592 l 250 592 q 310 692 271 664 q 414 719 349 719 l 414 532 q 315 514 351 532 q 260 450 278 496 q 243 322 243 404 l 243 0 l 64 0 l 64 708 z "},"ŕ":{"ha":433,"x_min":64,"x_max":414,"o":"m 64 708 l 233 708 l 239 592 l 250 592 q 310 692 271 664 q 414 719 349 719 l 414 532 q 315 514 351 532 q 260 450 278 496 q 243 322 243 404 l 243 0 l 64 0 l 64 708 m 139 829 l 139 836 l 213 1032 l 390 1032 l 390 1025 l 281 829 l 139 829 z "},"ř":{"ha":433,"x_min":25,"x_max":414,"o":"m 64 708 l 233 708 l 239 592 l 250 592 q 310 692 271 664 q 414 719 349 719 l 414 532 q 315 514 351 532 q 260 450 278 496 q 243 322 243 404 l 243 0 l 64 0 l 64 708 m 129 849 l 25 1021 l 25 1032 l 147 1032 l 218 933 l 290 1032 l 413 1032 l 413 1021 l 307 849 l 129 849 z "},"ŗ":{"ha":433,"x_min":60,"x_max":414,"o":"m 64 708 l 233 708 l 239 592 l 250 592 q 310 692 271 664 q 414 719 349 719 l 414 532 q 315 514 351 532 q 260 450 278 496 q 243 322 243 404 l 243 0 l 64 0 l 64 708 m 60 -322 q 120 -309 106 -322 q 135 -257 135 -296 l 135 -237 l 65 -237 l 65 -86 l 250 -86 l 250 -186 q 238 -322 250 -278 q 185 -383 225 -365 q 60 -401 146 -401 l 60 -322 z "},"ȑ":{"ha":433,"x_min":-28,"x_max":414,"o":"m 64 708 l 233 708 l 239 592 l 250 592 q 310 692 271 664 q 414 719 349 719 l 414 532 q 315 514 351 532 q 260 450 278 496 q 243 322 243 404 l 243 0 l 64 0 l 64 708 m 181 847 l 63 847 l -28 1010 l -28 1015 l 118 1015 l 181 853 l 181 847 m 383 847 l 265 847 l 176 1010 l 176 1015 l 322 1015 l 383 853 l 383 847 z "},"ṛ":{"ha":433,"x_min":56,"x_max":414,"o":"m 64 708 l 233 708 l 239 592 l 250 592 q 310 692 271 664 q 414 719 349 719 l 414 532 q 315 514 351 532 q 260 450 278 496 q 243 322 243 404 l 243 0 l 64 0 l 64 708 m 56 -268 l 56 -86 l 251 -86 l 251 -268 l 56 -268 z "},"ȓ":{"ha":433,"x_min":36,"x_max":414,"o":"m 64 708 l 233 708 l 239 592 l 250 592 q 310 692 271 664 q 414 719 349 719 l 414 532 q 315 514 351 532 q 260 450 278 496 q 243 322 243 404 l 243 0 l 64 0 l 64 708 m 36 851 q 49 954 36 914 q 102 1017 63 994 q 219 1040 142 1040 q 335 1017 296 1040 q 386 954 374 994 q 399 851 399 914 l 289 851 q 285 899 289 883 q 267 926 282 915 q 219 936 253 936 q 158 916 171 936 q 146 851 146 896 l 36 851 z "},"s":{"ha":515,"x_min":35,"x_max":481,"o":"m 260 -11 q 152 -5 211 -11 q 51 11 93 1 l 51 149 q 210 139 143 139 q 272 144 251 139 q 299 163 292 149 q 307 206 307 176 q 303 251 307 238 q 290 269 300 264 q 253 278 279 274 l 136 297 q 58 352 81 306 q 35 504 35 399 q 93 672 35 624 q 267 719 151 719 q 364 713 313 719 q 447 697 415 707 l 447 558 q 300 569 358 569 q 230 558 247 569 q 213 507 213 546 q 215 464 213 476 q 227 447 218 451 q 258 439 236 442 l 360 424 q 424 401 399 417 q 465 342 449 385 q 481 218 481 299 q 426 38 481 88 q 260 -11 372 -11 z "},"ś":{"ha":515,"x_min":35,"x_max":481,"o":"m 260 -11 q 152 -5 211 -11 q 51 11 93 1 l 51 149 q 210 139 143 139 q 272 144 251 139 q 299 163 292 149 q 307 206 307 176 q 303 251 307 238 q 290 269 300 264 q 253 278 279 274 l 136 297 q 58 352 81 306 q 35 504 35 399 q 93 672 35 624 q 267 719 151 719 q 364 713 313 719 q 447 697 415 707 l 447 558 q 300 569 358 569 q 230 558 247 569 q 213 507 213 546 q 215 464 213 476 q 227 447 218 451 q 258 439 236 442 l 360 424 q 424 401 399 417 q 465 342 449 385 q 481 218 481 299 q 426 38 481 88 q 260 -11 372 -11 m 179 829 l 179 836 l 253 1032 l 431 1032 l 431 1025 l 321 829 l 179 829 z "},"ꞌ":{"ha":235,"x_min":33,"x_max":201,"o":"m 33 372 l 33 1032 l 201 1032 l 201 724 l 163 372 l 33 372 z "},"š":{"ha":515,"x_min":35,"x_max":481,"o":"m 260 -11 q 152 -5 211 -11 q 51 11 93 1 l 51 149 q 210 139 143 139 q 272 144 251 139 q 299 163 292 149 q 307 206 307 176 q 303 251 307 238 q 290 269 300 264 q 253 278 279 274 l 136 297 q 58 352 81 306 q 35 504 35 399 q 93 672 35 624 q 267 719 151 719 q 364 713 313 719 q 447 697 415 707 l 447 558 q 300 569 358 569 q 230 558 247 569 q 213 507 213 546 q 215 464 213 476 q 227 447 218 451 q 258 439 236 442 l 360 424 q 424 401 399 417 q 465 342 449 385 q 481 218 481 299 q 426 38 481 88 q 260 -11 372 -11 m 174 849 l 69 1021 l 69 1032 l 192 1032 l 263 933 l 335 1032 l 457 1032 l 457 1021 l 351 849 l 174 849 z "},"ş":{"ha":515,"x_min":35,"x_max":481,"o":"m 481 218 q 440 54 481 106 q 317 -8 399 3 l 271 -262 l 114 -262 l 114 -256 l 196 -8 q 51 11 124 -4 l 51 149 q 210 139 143 139 q 272 144 251 139 q 299 163 292 149 q 307 206 307 176 q 303 251 307 238 q 290 269 300 264 q 253 278 279 274 l 136 297 q 58 352 81 306 q 35 504 35 399 q 93 672 35 624 q 267 719 151 719 q 364 713 313 719 q 447 697 415 707 l 447 558 q 300 569 358 569 q 230 558 247 569 q 213 507 213 546 q 215 464 213 476 q 227 447 218 451 q 258 439 236 442 l 360 424 q 424 401 399 417 q 465 342 449 385 q 481 218 481 299 z "},"ŝ":{"ha":515,"x_min":35,"x_max":481,"o":"m 260 -11 q 152 -5 211 -11 q 51 11 93 1 l 51 149 q 210 139 143 139 q 272 144 251 139 q 299 163 292 149 q 307 206 307 176 q 303 251 307 238 q 290 269 300 264 q 253 278 279 274 l 136 297 q 58 352 81 306 q 35 504 35 399 q 93 672 35 624 q 267 719 151 719 q 364 713 313 719 q 447 697 415 707 l 447 558 q 300 569 358 569 q 230 558 247 569 q 213 507 213 546 q 215 464 213 476 q 227 447 218 451 q 258 439 236 442 l 360 424 q 424 401 399 417 q 465 342 449 385 q 481 218 481 299 q 426 38 481 88 q 260 -11 372 -11 m 64 850 l 64 861 l 168 1032 l 347 1032 l 453 861 l 453 850 l 329 850 l 257 949 l 186 850 l 64 850 z "},"ș":{"ha":515,"x_min":35,"x_max":481,"o":"m 260 -11 q 152 -5 211 -11 q 51 11 93 1 l 51 149 q 210 139 143 139 q 272 144 251 139 q 299 163 292 149 q 307 206 307 176 q 303 251 307 238 q 290 269 300 264 q 253 278 279 274 l 136 297 q 58 352 81 306 q 35 504 35 399 q 93 672 35 624 q 267 719 151 719 q 364 713 313 719 q 447 697 415 707 l 447 558 q 300 569 358 569 q 230 558 247 569 q 213 507 213 546 q 215 464 213 476 q 227 447 218 451 q 258 439 236 442 l 360 424 q 424 401 399 417 q 465 342 449 385 q 481 218 481 299 q 426 38 481 88 q 260 -11 372 -11 m 164 -322 q 224 -309 210 -322 q 239 -257 239 -296 l 239 -237 l 169 -237 l 169 -86 l 354 -86 l 354 -186 q 342 -322 354 -278 q 290 -383 329 -365 q 164 -401 250 -401 l 164 -322 z "},"ṣ":{"ha":515,"x_min":35,"x_max":481,"o":"m 260 -11 q 152 -5 211 -11 q 51 11 93 1 l 51 149 q 210 139 143 139 q 272 144 251 139 q 299 163 292 149 q 307 206 307 176 q 303 251 307 238 q 290 269 300 264 q 253 278 279 274 l 136 297 q 58 352 81 306 q 35 504 35 399 q 93 672 35 624 q 267 719 151 719 q 364 713 313 719 q 447 697 415 707 l 447 558 q 300 569 358 569 q 230 558 247 569 q 213 507 213 546 q 215 464 213 476 q 227 447 218 451 q 258 439 236 442 l 360 424 q 424 401 399 417 q 465 342 449 385 q 481 218 481 299 q 426 38 481 88 q 260 -11 372 -11 m 160 -268 l 160 -86 l 356 -86 l 356 -268 l 160 -268 z "},"ß":{"ha":635,"x_min":64,"x_max":586,"o":"m 307 0 l 307 150 l 326 150 q 382 160 367 150 q 402 210 397 171 q 407 350 407 249 q 401 472 407 435 q 378 519 394 508 q 326 529 363 529 l 314 529 l 314 681 l 326 681 q 374 689 360 681 q 394 719 389 697 q 399 786 399 740 q 391 854 399 832 q 367 884 383 876 q 321 892 351 892 q 273 883 289 892 q 250 844 257 874 q 243 751 243 814 l 243 0 l 64 0 l 64 757 q 88 919 64 858 q 167 1011 111 981 q 322 1042 224 1042 q 521 986 463 1042 q 579 811 579 931 q 548 676 579 722 q 450 614 517 629 l 450 608 q 554 531 522 592 q 586 338 586 471 q 568 142 586 213 q 497 35 550 71 q 342 0 444 0 l 307 0 z "},"ſ":{"ha":411,"x_min":21,"x_max":404,"o":"m 108 558 l 21 558 l 21 708 l 108 708 l 108 750 q 131 942 108 885 q 211 1016 154 1000 q 404 1032 268 1032 l 404 899 q 326 892 349 899 q 295 865 303 886 q 288 790 288 843 l 288 0 l 108 0 l 108 558 z "},"t":{"ha":419,"x_min":21,"x_max":400,"o":"m 108 0 l 108 558 l 21 558 l 21 708 l 108 708 l 108 914 l 288 914 l 288 708 l 400 708 l 400 558 l 288 558 l 288 0 l 108 0 z "},"ŧ":{"ha":419,"x_min":21,"x_max":400,"o":"m 400 558 l 288 558 l 288 428 l 399 428 l 399 279 l 288 279 l 288 0 l 108 0 l 108 279 l 22 279 l 22 428 l 108 428 l 108 558 l 21 558 l 21 708 l 108 708 l 108 914 l 288 914 l 288 708 l 400 708 l 400 558 z "},"ť":{"ha":561,"x_min":21,"x_max":631,"o":"m 108 0 l 108 558 l 21 558 l 21 708 l 108 708 l 108 914 l 288 914 l 288 708 l 400 708 l 400 558 l 288 558 l 288 0 l 108 0 m 440 594 l 463 881 l 463 956 l 631 956 l 631 881 l 569 594 l 440 594 z "},"ţ":{"ha":419,"x_min":21,"x_max":400,"o":"m 288 708 l 400 708 l 400 558 l 288 558 l 288 0 l 257 0 l 210 -262 l 53 -262 l 53 -256 l 138 0 l 108 0 l 108 558 l 21 558 l 21 708 l 108 708 l 108 914 l 288 914 l 288 708 z "},"ț":{"ha":419,"x_min":21,"x_max":400,"o":"m 108 0 l 108 558 l 21 558 l 21 708 l 108 708 l 108 914 l 288 914 l 288 708 l 400 708 l 400 558 l 288 558 l 288 0 l 108 0 m 103 -322 q 163 -309 149 -322 q 178 -257 178 -296 l 178 -237 l 108 -237 l 108 -86 l 293 -86 l 293 -186 q 281 -322 293 -278 q 228 -383 268 -365 q 103 -401 189 -401 l 103 -322 z "},"ṭ":{"ha":419,"x_min":21,"x_max":400,"o":"m 108 0 l 108 558 l 21 558 l 21 708 l 108 708 l 108 914 l 288 914 l 288 708 l 400 708 l 400 558 l 288 558 l 288 0 l 108 0 m 99 -268 l 99 -86 l 294 -86 l 294 -268 l 99 -268 z "},"u":{"ha":625,"x_min":61,"x_max":561,"o":"m 388 85 l 376 85 q 221 -11 343 -11 q 119 15 153 -11 q 73 95 85 42 q 61 243 61 149 l 61 708 l 240 708 l 240 325 q 244 203 240 236 q 262 160 249 169 q 310 151 275 151 q 359 165 344 151 q 378 217 374 179 q 382 346 382 256 l 382 708 l 561 708 l 561 0 l 393 0 l 388 85 z "},"ú":{"ha":625,"x_min":61,"x_max":561,"o":"m 388 85 l 376 85 q 221 -11 343 -11 q 119 15 153 -11 q 73 95 85 42 q 61 243 61 149 l 61 708 l 240 708 l 240 325 q 244 203 240 236 q 262 160 249 169 q 310 151 275 151 q 359 165 344 151 q 378 217 374 179 q 382 346 382 256 l 382 708 l 561 708 l 561 0 l 393 0 l 388 85 m 236 829 l 236 836 l 310 1032 l 488 1032 l 488 1025 l 378 829 l 236 829 z "},"ŭ":{"ha":625,"x_min":61,"x_max":561,"o":"m 388 85 l 376 85 q 221 -11 343 -11 q 119 15 153 -11 q 73 95 85 42 q 61 243 61 149 l 61 708 l 240 708 l 240 325 q 244 203 240 236 q 262 160 249 169 q 310 151 275 151 q 359 165 344 151 q 378 217 374 179 q 382 346 382 256 l 382 708 l 561 708 l 561 0 l 393 0 l 388 85 m 493 1032 q 480 929 493 969 q 427 866 467 889 q 310 843 388 843 q 194 866 233 843 q 143 929 156 889 q 131 1032 131 969 l 240 1032 q 244 984 240 1000 q 262 958 247 968 q 310 947 276 947 q 371 967 358 947 q 383 1032 383 988 l 493 1032 z "},"ǔ":{"ha":625,"x_min":61,"x_max":561,"o":"m 388 85 l 376 85 q 221 -11 343 -11 q 119 15 153 -11 q 73 95 85 42 q 61 243 61 149 l 61 708 l 240 708 l 240 325 q 244 203 240 236 q 262 160 249 169 q 310 151 275 151 q 359 165 344 151 q 378 217 374 179 q 382 346 382 256 l 382 708 l 561 708 l 561 0 l 393 0 l 388 85 m 224 849 l 119 1021 l 119 1032 l 242 1032 l 313 933 l 385 1032 l 507 1032 l 507 1021 l 401 849 l 224 849 z "},"û":{"ha":625,"x_min":61,"x_max":561,"o":"m 388 85 l 376 85 q 221 -11 343 -11 q 119 15 153 -11 q 73 95 85 42 q 61 243 61 149 l 61 708 l 240 708 l 240 325 q 244 203 240 236 q 262 160 249 169 q 310 151 275 151 q 359 165 344 151 q 378 217 374 179 q 382 346 382 256 l 382 708 l 561 708 l 561 0 l 393 0 l 388 85 m 118 850 l 118 861 l 222 1032 l 401 1032 l 507 861 l 507 850 l 383 850 l 311 949 l 240 850 l 118 850 z "},"ȕ":{"ha":625,"x_min":61,"x_max":561,"o":"m 388 85 l 376 85 q 221 -11 343 -11 q 119 15 153 -11 q 73 95 85 42 q 61 243 61 149 l 61 708 l 240 708 l 240 325 q 244 203 240 236 q 262 160 249 169 q 310 151 275 151 q 359 165 344 151 q 378 217 374 179 q 382 346 382 256 l 382 708 l 561 708 l 561 0 l 393 0 l 388 85 m 275 847 l 157 847 l 67 1010 l 67 1015 l 213 1015 l 275 853 l 275 847 m 478 847 l 360 847 l 271 1010 l 271 1015 l 417 1015 l 478 853 l 478 847 z "},"ü":{"ha":625,"x_min":61,"x_max":561,"o":"m 388 85 l 376 85 q 221 -11 343 -11 q 119 15 153 -11 q 73 95 85 42 q 61 243 61 149 l 61 708 l 240 708 l 240 325 q 244 203 240 236 q 262 160 249 169 q 310 151 275 151 q 359 165 344 151 q 378 217 374 179 q 382 346 382 256 l 382 708 l 561 708 l 561 0 l 393 0 l 388 85 m 114 865 l 114 1008 l 268 1008 l 268 865 l 114 865 m 357 865 l 357 1008 l 511 1008 l 511 865 l 357 865 z "},"ǘ":{"ha":625,"x_min":61,"x_max":561,"o":"m 388 85 l 376 85 q 221 -11 343 -11 q 119 15 153 -11 q 73 95 85 42 q 61 243 61 149 l 61 708 l 240 708 l 240 325 q 244 203 240 236 q 262 160 249 169 q 310 151 275 151 q 359 165 344 151 q 378 217 374 179 q 382 346 382 256 l 382 708 l 561 708 l 561 0 l 393 0 l 388 85 m 114 871 l 114 1014 l 268 1014 l 268 871 l 114 871 m 357 871 l 357 1014 l 511 1014 l 511 871 l 357 871 m 236 1051 l 236 1058 l 310 1254 l 488 1254 l 488 1247 l 378 1051 l 236 1051 z "},"ǚ":{"ha":625,"x_min":61,"x_max":561,"o":"m 388 85 l 376 85 q 221 -11 343 -11 q 119 15 153 -11 q 73 95 85 42 q 61 243 61 149 l 61 708 l 240 708 l 240 325 q 244 203 240 236 q 262 160 249 169 q 310 151 275 151 q 359 165 344 151 q 378 217 374 179 q 382 346 382 256 l 382 708 l 561 708 l 561 0 l 393 0 l 388 85 m 114 871 l 114 1014 l 268 1014 l 268 871 l 114 871 m 357 871 l 357 1014 l 511 1014 l 511 871 l 357 871 m 226 1071 l 122 1243 l 122 1254 l 244 1254 l 315 1156 l 388 1254 l 510 1254 l 510 1243 l 404 1071 l 226 1071 z "},"ǜ":{"ha":625,"x_min":61,"x_max":561,"o":"m 388 85 l 376 85 q 221 -11 343 -11 q 119 15 153 -11 q 73 95 85 42 q 61 243 61 149 l 61 708 l 240 708 l 240 325 q 244 203 240 236 q 262 160 249 169 q 310 151 275 151 q 359 165 344 151 q 378 217 374 179 q 382 346 382 256 l 382 708 l 561 708 l 561 0 l 393 0 l 388 85 m 114 871 l 114 1014 l 268 1014 l 268 871 l 114 871 m 357 871 l 357 1014 l 511 1014 l 511 871 l 357 871 m 243 1051 l 135 1247 l 135 1254 l 313 1254 l 386 1058 l 386 1051 l 243 1051 z "},"ǖ":{"ha":625,"x_min":61,"x_max":561,"o":"m 388 85 l 376 85 q 221 -11 343 -11 q 119 15 153 -11 q 73 95 85 42 q 61 243 61 149 l 61 708 l 240 708 l 240 325 q 244 203 240 236 q 262 160 249 169 q 310 151 275 151 q 359 165 344 151 q 378 217 374 179 q 382 346 382 256 l 382 708 l 561 708 l 561 0 l 393 0 l 388 85 m 114 871 l 114 1014 l 268 1014 l 268 871 l 114 871 m 357 871 l 357 1014 l 511 1014 l 511 871 l 357 871 m 175 1093 l 175 1254 l 456 1254 l 456 1093 l 175 1093 z "},"ụ":{"ha":625,"x_min":61,"x_max":561,"o":"m 388 85 l 376 85 q 221 -11 343 -11 q 119 15 153 -11 q 73 95 85 42 q 61 243 61 149 l 61 708 l 240 708 l 240 325 q 244 203 240 236 q 262 160 249 169 q 310 151 275 151 q 359 165 344 151 q 378 217 374 179 q 382 346 382 256 l 382 708 l 561 708 l 561 0 l 393 0 l 388 85 m 204 -268 l 204 -86 l 400 -86 l 400 -268 l 204 -268 z "},"ù":{"ha":625,"x_min":61,"x_max":561,"o":"m 388 85 l 376 85 q 221 -11 343 -11 q 119 15 153 -11 q 73 95 85 42 q 61 243 61 149 l 61 708 l 240 708 l 240 325 q 244 203 240 236 q 262 160 249 169 q 310 151 275 151 q 359 165 344 151 q 378 217 374 179 q 382 346 382 256 l 382 708 l 561 708 l 561 0 l 393 0 l 388 85 m 249 829 l 140 1025 l 140 1032 l 318 1032 l 392 836 l 392 829 l 249 829 z "},"ủ":{"ha":625,"x_min":61,"x_max":561,"o":"m 388 85 l 376 85 q 221 -11 343 -11 q 119 15 153 -11 q 73 95 85 42 q 61 243 61 149 l 61 708 l 240 708 l 240 325 q 244 203 240 236 q 262 160 249 169 q 310 151 275 151 q 359 165 344 151 q 378 217 374 179 q 382 346 382 256 l 382 708 l 561 708 l 561 0 l 393 0 l 388 85 m 218 878 q 230 929 218 914 q 274 957 242 944 l 292 964 q 335 985 324 976 q 346 1007 346 993 q 334 1026 346 1022 q 289 1031 322 1031 q 150 1026 217 1031 l 150 1129 q 303 1147 243 1147 q 430 1122 386 1147 q 474 1026 474 1096 q 460 955 474 979 q 404 911 446 931 l 382 901 q 338 878 346 886 q 331 850 331 871 l 218 850 l 218 878 z "},"ư":{"ha":625,"x_min":61,"x_max":661,"o":"m 661 838 l 661 800 q 654 713 661 744 q 626 663 647 682 q 561 638 604 644 l 561 0 l 393 0 l 388 85 l 376 85 q 221 -11 343 -11 q 119 15 153 -11 q 73 95 85 42 q 61 243 61 149 l 61 708 l 240 708 l 240 325 q 244 203 240 236 q 262 160 249 169 q 310 151 275 151 q 359 165 344 151 q 378 217 374 179 q 382 346 382 256 l 382 708 l 458 708 q 528 722 511 708 q 544 774 544 735 l 544 838 l 661 838 z "},"ứ":{"ha":625,"x_min":61,"x_max":661,"o":"m 661 838 l 661 800 q 654 713 661 744 q 626 663 647 682 q 561 638 604 644 l 561 0 l 393 0 l 388 85 l 376 85 q 221 -11 343 -11 q 119 15 153 -11 q 73 95 85 42 q 61 243 61 149 l 61 708 l 240 708 l 240 325 q 244 203 240 236 q 262 160 249 169 q 310 151 275 151 q 359 165 344 151 q 378 217 374 179 q 382 346 382 256 l 382 708 l 458 708 q 528 722 511 708 q 544 774 544 735 l 544 838 l 661 838 m 233 829 l 233 836 l 307 1032 l 485 1032 l 485 1025 l 375 829 l 233 829 z "},"ự":{"ha":625,"x_min":61,"x_max":661,"o":"m 661 838 l 661 800 q 654 713 661 744 q 626 663 647 682 q 561 638 604 644 l 561 0 l 393 0 l 388 85 l 376 85 q 221 -11 343 -11 q 119 15 153 -11 q 73 95 85 42 q 61 243 61 149 l 61 708 l 240 708 l 240 325 q 244 203 240 236 q 262 160 249 169 q 310 151 275 151 q 359 165 344 151 q 378 217 374 179 q 382 346 382 256 l 382 708 l 458 708 q 528 722 511 708 q 544 774 544 735 l 544 838 l 661 838 m 204 -268 l 204 -86 l 400 -86 l 400 -268 l 204 -268 z "},"ừ":{"ha":625,"x_min":61,"x_max":661,"o":"m 661 838 l 661 800 q 654 713 661 744 q 626 663 647 682 q 561 638 604 644 l 561 0 l 393 0 l 388 85 l 376 85 q 221 -11 343 -11 q 119 15 153 -11 q 73 95 85 42 q 61 243 61 149 l 61 708 l 240 708 l 240 325 q 244 203 240 236 q 262 160 249 169 q 310 151 275 151 q 359 165 344 151 q 378 217 374 179 q 382 346 382 256 l 382 708 l 458 708 q 528 722 511 708 q 544 774 544 735 l 544 838 l 661 838 m 240 829 l 132 1025 l 132 1032 l 310 1032 l 383 836 l 383 829 l 240 829 z "},"ử":{"ha":625,"x_min":61,"x_max":661,"o":"m 661 838 l 661 800 q 654 713 661 744 q 626 663 647 682 q 561 638 604 644 l 561 0 l 393 0 l 388 85 l 376 85 q 221 -11 343 -11 q 119 15 153 -11 q 73 95 85 42 q 61 243 61 149 l 61 708 l 240 708 l 240 325 q 244 203 240 236 q 262 160 249 169 q 310 151 275 151 q 359 165 344 151 q 378 217 374 179 q 382 346 382 256 l 382 708 l 458 708 q 528 722 511 708 q 544 774 544 735 l 544 838 l 661 838 m 218 878 q 230 929 218 914 q 274 957 242 944 l 292 964 q 335 985 324 976 q 346 1007 346 993 q 334 1026 346 1022 q 289 1031 322 1031 q 150 1026 217 1031 l 150 1129 q 303 1147 243 1147 q 430 1122 386 1147 q 474 1026 474 1096 q 460 955 474 979 q 404 911 446 931 l 382 901 q 338 878 346 886 q 331 850 331 871 l 218 850 l 218 878 z "},"ữ":{"ha":625,"x_min":61,"x_max":661,"o":"m 661 838 l 661 800 q 654 713 661 744 q 626 663 647 682 q 561 638 604 644 l 561 0 l 393 0 l 388 85 l 376 85 q 221 -11 343 -11 q 119 15 153 -11 q 73 95 85 42 q 61 243 61 149 l 61 708 l 240 708 l 240 325 q 244 203 240 236 q 262 160 249 169 q 310 151 275 151 q 359 165 344 151 q 378 217 374 179 q 382 346 382 256 l 382 708 l 458 708 q 528 722 511 708 q 544 774 544 735 l 544 838 l 661 838 m 528 1032 q 522 927 528 963 q 495 872 517 892 q 425 851 474 851 q 301 874 376 851 q 267 883 293 876 q 226 890 242 890 q 204 879 208 890 q 200 835 200 868 l 97 835 q 103 940 97 904 q 131 997 108 976 q 201 1017 153 1017 q 324 993 247 1017 q 400 978 379 978 q 422 988 418 978 q 425 1032 425 999 l 528 1032 z "},"ű":{"ha":625,"x_min":61,"x_max":571,"o":"m 388 85 l 376 85 q 221 -11 343 -11 q 119 15 153 -11 q 73 95 85 42 q 61 243 61 149 l 61 708 l 240 708 l 240 325 q 244 203 240 236 q 262 160 249 169 q 310 151 275 151 q 359 165 344 151 q 378 217 374 179 q 382 346 382 256 l 382 708 l 561 708 l 561 0 l 393 0 l 388 85 m 160 847 l 160 853 l 221 1015 l 367 1015 l 367 1010 l 278 847 l 160 847 m 363 847 l 363 853 l 425 1015 l 571 1015 l 571 1010 l 481 847 l 363 847 z "},"ȗ":{"ha":625,"x_min":61,"x_max":561,"o":"m 388 85 l 376 85 q 221 -11 343 -11 q 119 15 153 -11 q 73 95 85 42 q 61 243 61 149 l 61 708 l 240 708 l 240 325 q 244 203 240 236 q 262 160 249 169 q 310 151 275 151 q 359 165 344 151 q 378 217 374 179 q 382 346 382 256 l 382 708 l 561 708 l 561 0 l 393 0 l 388 85 m 131 851 q 144 954 131 914 q 197 1017 157 994 q 314 1040 236 1040 q 429 1017 390 1040 q 481 954 468 994 q 493 851 493 914 l 383 851 q 380 899 383 883 q 362 926 376 915 q 314 936 347 936 q 253 916 265 936 q 240 851 240 896 l 131 851 z "},"ū":{"ha":625,"x_min":61,"x_max":561,"o":"m 388 85 l 376 85 q 221 -11 343 -11 q 119 15 153 -11 q 73 95 85 42 q 61 243 61 149 l 61 708 l 240 708 l 240 325 q 244 203 240 236 q 262 160 249 169 q 310 151 275 151 q 359 165 344 151 q 378 217 374 179 q 382 346 382 256 l 382 708 l 561 708 l 561 0 l 393 0 l 388 85 m 172 871 l 172 1032 l 453 1032 l 453 871 l 172 871 z "},"ų":{"ha":625,"x_min":61,"x_max":561,"o":"m 561 0 q 509 -55 533 -21 q 485 -124 485 -89 q 539 -172 485 -172 l 557 -171 l 557 -267 q 486 -272 528 -272 q 378 -240 411 -272 q 344 -157 344 -207 q 428 0 344 -76 l 393 0 l 388 85 l 376 85 q 221 -11 343 -11 q 119 15 153 -11 q 73 95 85 42 q 61 243 61 149 l 61 708 l 240 708 l 240 325 q 244 203 240 236 q 262 160 249 169 q 310 151 275 151 q 359 165 344 151 q 378 217 374 179 q 382 346 382 256 l 382 708 l 561 708 l 561 0 z "}}}
